<svg width="70" height="70" viewBox="0 0 70 70" fill="none" xmlns="http://www.w3.org/2000/svg">
<path d="M25.2 63C27.9062 63 30.1 60.8062 30.1 58.1C30.1 55.3938 27.9062 53.2 25.2 53.2C22.4938 53.2 20.3 55.3938 20.3 58.1C20.3 60.8062 22.4938 63 25.2 63Z" stroke="#FF8E2E" stroke-width="5" stroke-linecap="round" stroke-linejoin="round"/>
<path d="M56 63C59.0928 63 61.6 60.8062 61.6 58.1C61.6 55.3938 59.0928 53.2 56 53.2C52.9072 53.2 50.4 55.3938 50.4 58.1C50.4 60.8062 52.9072 63 56 63Z" stroke="#FF8E2E" stroke-width="5" stroke-linecap="round" stroke-linejoin="round"/>
<path d="M63.7 19.133L59.3702 40.6668C59.1345 41.8485 58.489 42.9099 57.5466 43.6654C56.6043 44.4208 55.4252 44.8221 54.2156 44.7991H26.9739C25.7153 44.8097 24.4964 44.3614 23.5469 43.5387C22.5974 42.7161 21.9829 41.5759 21.8193 40.3332L17.9019 10.7659C17.7394 9.53196 17.1324 8.39883 16.1937 7.57732C15.2549 6.75581 14.0485 6.30189 12.7989 6.3H7" stroke="#FF8E2E" stroke-width="5" stroke-linecap="round" stroke-linejoin="round"/>
</svg>
