<svg width="345" height="493" viewBox="0 0 345 493" fill="none" xmlns="http://www.w3.org/2000/svg">
<path d="M310.291 293.082C320.014 308.688 320.506 328.363 311.585 344.427C302.663 360.498 285.703 370.484 267.321 370.484H84.4172C66.0352 370.484 49.0749 360.498 40.1534 344.427C31.232 328.363 31.7239 308.688 41.4472 293.082L132.892 146.282C142.205 131.343 158.269 122.421 175.869 122.421C193.47 122.421 209.534 131.343 218.846 146.282L310.291 293.082Z" fill="#F2F2F2"/>
<path d="M297.158 171.705C310.183 171.705 320.742 161.146 320.742 148.121C320.742 135.096 310.183 124.537 297.158 124.537C284.133 124.537 273.574 135.096 273.574 148.121C273.574 161.146 284.133 171.705 297.158 171.705Z" fill="#FF8E2E"/>
<path d="M46.1572 228.98C56.3912 228.98 64.6875 220.684 64.6875 210.45C64.6875 200.216 56.3912 191.92 46.1572 191.92C35.9232 191.92 27.627 200.216 27.627 210.45C27.627 220.684 35.9232 228.98 46.1572 228.98Z" fill="#FF8E2E"/>
<path d="M284.558 309.119C292.981 322.643 283.257 340.162 267.321 340.162H84.4173C68.4812 340.162 58.7579 322.643 67.1807 309.119L158.633 162.312C166.584 149.556 185.155 149.556 193.106 162.312L284.558 309.119Z" fill="#FF8E2E"/>
<path d="M185.397 296.943C187.836 299.382 189.346 302.751 189.346 306.471C189.346 310.19 187.836 313.559 185.397 315.999C182.958 318.438 179.589 319.947 175.869 319.947C168.423 319.947 162.393 313.917 162.393 306.471C162.393 302.751 163.902 299.382 166.341 296.943C168.78 294.504 172.15 292.994 175.869 292.994C179.589 292.994 182.958 294.504 185.397 296.943Z" fill="#F2F2F2"/>
<path d="M189.346 205.396V262.672C189.346 270.118 183.315 276.148 175.869 276.148C168.423 276.148 162.393 270.118 162.393 262.672V205.396C162.393 197.951 168.423 191.92 175.869 191.92C179.589 191.92 182.958 193.429 185.397 195.869C187.836 198.308 189.346 201.677 189.346 205.396Z" fill="#F2F2F2"/>
<path d="M292.104 215.504C294.896 215.504 297.158 213.241 297.158 210.45C297.158 207.659 294.896 205.396 292.104 205.396C289.313 205.396 287.051 207.659 287.051 210.45C287.051 213.241 289.313 215.504 292.104 215.504Z" fill="#607D8B"/>
<path d="M244.937 131.275C247.728 131.275 249.99 129.013 249.99 126.222C249.99 123.431 247.728 121.168 244.937 121.168C242.145 121.168 239.883 123.431 239.883 126.222C239.883 129.013 242.145 131.275 244.937 131.275Z" fill="#607D8B"/>
<path d="M224.722 400.807C227.513 400.807 229.775 398.544 229.775 395.753C229.775 392.962 227.513 390.699 224.722 390.699C221.931 390.699 219.668 392.962 219.668 395.753C219.668 398.544 221.931 400.807 224.722 400.807Z" fill="#607D8B"/>
<path d="M120.278 111.061C123.069 111.061 125.332 108.798 125.332 106.007C125.332 103.216 123.069 100.953 120.278 100.953C117.487 100.953 115.225 103.216 115.225 106.007C115.225 108.798 117.487 111.061 120.278 111.061Z" fill="#607D8B"/>
<path d="M25.9424 380.592C28.7335 380.592 30.9961 378.329 30.9961 375.538C30.9961 372.747 28.7335 370.484 25.9424 370.484C23.1513 370.484 20.8887 372.747 20.8887 375.538C20.8887 378.329 23.1513 380.592 25.9424 380.592Z" fill="#607D8B"/>
<path d="M267.321 373.854H84.4173C64.8143 373.854 46.7247 363.204 37.2075 346.063C27.6904 328.925 28.2193 307.942 38.5875 291.3L130.033 144.5C139.966 128.565 157.101 119.052 175.869 119.052C194.637 119.052 211.772 128.565 221.705 144.499L313.152 291.3C323.52 307.942 324.048 328.925 314.531 346.063C305.014 363.204 286.925 373.854 267.321 373.854ZM175.869 125.79C159.443 125.79 144.446 134.117 135.752 148.064L44.307 294.863C35.2319 309.427 34.7696 327.793 43.0988 342.791C51.428 357.795 67.2603 367.115 84.4173 367.115H267.321C284.478 367.115 300.31 357.796 308.639 342.792C316.969 327.793 316.506 309.427 307.431 294.863L215.986 148.062C207.293 134.117 192.295 125.79 175.869 125.79Z" fill="#607D8B"/>
<path d="M267.321 343.531H84.4173C75.6933 343.531 67.9557 338.977 63.72 331.349C59.4837 323.721 59.7081 314.743 64.3211 307.337L155.773 160.53C160.127 153.545 167.639 149.376 175.869 149.376C184.099 149.376 191.611 153.545 195.965 160.53L287.417 307.337C292.03 314.743 292.254 323.721 288.019 331.349C283.783 338.977 276.046 343.531 267.321 343.531ZM175.869 156.114C169.981 156.114 164.607 159.097 161.492 164.094L70.0405 310.9C66.7408 316.198 66.5798 322.62 69.6106 328.078C72.6415 333.535 78.1763 336.793 84.4173 336.793H267.321C273.562 336.793 279.097 333.535 282.127 328.078C285.158 322.62 284.997 316.198 281.697 310.9L190.245 164.093C187.132 159.098 181.757 156.114 175.869 156.114Z" fill="#607D8B"/>
<path d="M175.869 279.518C166.58 279.518 159.023 271.961 159.023 262.672V205.396C159.023 196.108 166.58 188.551 175.869 188.551C180.366 188.551 184.597 190.303 187.779 193.486C190.962 196.669 192.715 200.899 192.715 205.396V262.672C192.715 271.961 185.158 279.518 175.869 279.518ZM175.869 195.289C170.296 195.289 165.762 199.823 165.762 205.396V262.672C165.762 268.246 170.296 272.779 175.869 272.779C181.442 272.779 185.977 268.246 185.977 262.672V205.396C185.977 202.698 184.925 200.161 183.014 198.251C181.105 196.341 178.567 195.289 175.869 195.289Z" fill="#607D8B"/>
<path d="M175.869 323.316C166.58 323.316 159.023 315.759 159.023 306.471C159.023 301.974 160.776 297.744 163.959 294.561C167.142 291.378 171.371 289.625 175.869 289.625C180.367 289.625 184.597 291.378 187.78 294.561C190.962 297.744 192.715 301.974 192.715 306.471C192.715 310.968 190.962 315.197 187.78 318.381C184.597 321.563 180.367 323.316 175.869 323.316ZM175.869 296.363C173.171 296.363 170.633 297.415 168.723 299.325C166.814 301.235 165.762 303.773 165.762 306.471C165.762 312.045 170.296 316.578 175.869 316.578C178.567 316.578 181.105 315.526 183.014 313.616C184.925 311.706 185.977 309.168 185.977 306.471C185.977 303.773 184.925 301.235 183.014 299.325C181.105 297.415 178.567 296.363 175.869 296.363Z" fill="#607D8B"/>
<path d="M297.158 175.074C282.296 175.074 270.205 162.983 270.205 148.121C270.205 133.259 282.296 121.168 297.158 121.168C312.02 121.168 324.111 133.259 324.111 148.121C324.111 162.983 312.02 175.074 297.158 175.074ZM297.158 127.906C286.012 127.906 276.943 136.975 276.943 148.121C276.943 159.268 286.012 168.336 297.158 168.336C308.305 168.336 317.373 159.268 317.373 148.121C317.373 136.975 308.305 127.906 297.158 127.906Z" fill="#607D8B"/>
<path d="M46.1572 232.35C34.0822 232.35 24.2578 222.525 24.2578 210.45C24.2578 198.375 34.0822 188.551 46.1572 188.551C58.2322 188.551 68.0566 198.375 68.0566 210.45C68.0566 222.525 58.2322 232.35 46.1572 232.35ZM46.1572 195.289C37.797 195.289 30.9961 202.09 30.9961 210.45C30.9961 218.81 37.797 225.611 46.1572 225.611C54.5174 225.611 61.3184 218.81 61.3184 210.45C61.3184 202.09 54.5174 195.289 46.1572 195.289Z" fill="#607D8B"/>
<path d="M33.9013 11.3H26.9413V8H44.7613V11.3H37.8013V29H33.9013V11.3ZM56.4182 12.8C58.4382 12.8 60.0582 13.39 61.2782 14.57C62.4982 15.75 63.1082 17.5 63.1082 19.82V29H59.3582V20.3C59.3582 18.9 59.0282 17.85 58.3682 17.15C57.7082 16.43 56.7682 16.07 55.5482 16.07C54.1682 16.07 53.0782 16.49 52.2782 17.33C51.4782 18.15 51.0782 19.34 51.0782 20.9V29H47.3282V6.74H51.0782V14.84C51.6982 14.18 52.4582 13.68 53.3582 13.34C54.2782 12.98 55.2982 12.8 56.4182 12.8ZM83.0718 21.08C83.0718 21.34 83.0518 21.71 83.0118 22.19H70.4418C70.6618 23.37 71.2318 24.31 72.1518 25.01C73.0918 25.69 74.2518 26.03 75.6318 26.03C77.3918 26.03 78.8418 25.45 79.9818 24.29L81.9918 26.6C81.2718 27.46 80.3618 28.11 79.2618 28.55C78.1618 28.99 76.9218 29.21 75.5418 29.21C73.7818 29.21 72.2318 28.86 70.8918 28.16C69.5518 27.46 68.5118 26.49 67.7718 25.25C67.0518 23.99 66.6918 22.57 66.6918 20.99C66.6918 19.43 67.0418 18.03 67.7418 16.79C68.4618 15.53 69.4518 14.55 70.7118 13.85C71.9718 13.15 73.3918 12.8 74.9718 12.8C76.5318 12.8 77.9218 13.15 79.1418 13.85C80.3818 14.53 81.3418 15.5 82.0218 16.76C82.7218 18 83.0718 19.44 83.0718 21.08ZM74.9718 15.8C73.7718 15.8 72.7518 16.16 71.9118 16.88C71.0918 17.58 70.5918 18.52 70.4118 19.7H79.5018C79.3418 18.54 78.8518 17.6 78.0318 16.88C77.2118 16.16 76.1918 15.8 74.9718 15.8ZM90.2439 15.32C91.3239 13.64 93.2239 12.8 95.9439 12.8V16.37C95.6239 16.31 95.3339 16.28 95.0739 16.28C93.6139 16.28 92.4739 16.71 91.6539 17.57C90.8339 18.41 90.4239 19.63 90.4239 21.23V29H86.6739V12.98H90.2439V15.32ZM114.039 21.08C114.039 21.34 114.019 21.71 113.979 22.19H101.409C101.629 23.37 102.199 24.31 103.119 25.01C104.059 25.69 105.219 26.03 106.599 26.03C108.359 26.03 109.809 25.45 110.949 24.29L112.959 26.6C112.239 27.46 111.329 28.11 110.229 28.55C109.129 28.99 107.889 29.21 106.509 29.21C104.749 29.21 103.199 28.86 101.859 28.16C100.519 27.46 99.4786 26.49 98.7386 25.25C98.0186 23.99 97.6586 22.57 97.6586 20.99C97.6586 19.43 98.0086 18.03 98.7086 16.79C99.4286 15.53 100.419 14.55 101.679 13.85C102.939 13.15 104.359 12.8 105.939 12.8C107.499 12.8 108.889 13.15 110.109 13.85C111.349 14.53 112.309 15.5 112.989 16.76C113.689 18 114.039 19.44 114.039 21.08ZM105.939 15.8C104.739 15.8 103.719 16.16 102.879 16.88C102.059 17.58 101.559 18.52 101.379 19.7H110.469C110.309 18.54 109.819 17.6 108.999 16.88C108.179 16.16 107.159 15.8 105.939 15.8ZM150.922 12.98L145.012 29H141.412L137.272 17.96L133.072 29H129.472L123.592 12.98H127.132L131.362 24.8L135.772 12.98H138.922L143.242 24.86L147.592 12.98H150.922ZM159.122 12.8C161.482 12.8 163.282 13.37 164.522 14.51C165.782 15.63 166.412 17.33 166.412 19.61V29H162.872V27.05C162.412 27.75 161.752 28.29 160.892 28.67C160.052 29.03 159.032 29.21 157.832 29.21C156.632 29.21 155.582 29.01 154.682 28.61C153.782 28.19 153.082 27.62 152.582 26.9C152.102 26.16 151.862 25.33 151.862 24.41C151.862 22.97 152.392 21.82 153.452 20.96C154.532 20.08 156.222 19.64 158.522 19.64H162.662V19.4C162.662 18.28 162.322 17.42 161.642 16.82C160.982 16.22 159.992 15.92 158.672 15.92C157.772 15.92 156.882 16.06 156.002 16.34C155.142 16.62 154.412 17.01 153.812 17.51L152.342 14.78C153.182 14.14 154.192 13.65 155.372 13.31C156.552 12.97 157.802 12.8 159.122 12.8ZM158.612 26.48C159.552 26.48 160.382 26.27 161.102 25.85C161.842 25.41 162.362 24.79 162.662 23.99V22.13H158.792C156.632 22.13 155.552 22.84 155.552 24.26C155.552 24.94 155.822 25.48 156.362 25.88C156.902 26.28 157.652 26.48 158.612 26.48ZM176.175 29.21C174.875 29.21 173.605 29.04 172.365 28.7C171.125 28.36 170.135 27.93 169.395 27.41L170.835 24.56C171.555 25.04 172.415 25.43 173.415 25.73C174.435 26.01 175.435 26.15 176.415 26.15C178.655 26.15 179.775 25.56 179.775 24.38C179.775 23.82 179.485 23.43 178.905 23.21C178.345 22.99 177.435 22.78 176.175 22.58C174.855 22.38 173.775 22.15 172.935 21.89C172.115 21.63 171.395 21.18 170.775 20.54C170.175 19.88 169.875 18.97 169.875 17.81C169.875 16.29 170.505 15.08 171.765 14.18C173.045 13.26 174.765 12.8 176.925 12.8C178.025 12.8 179.125 12.93 180.225 13.19C181.325 13.43 182.225 13.76 182.925 14.18L181.485 17.03C180.125 16.23 178.595 15.83 176.895 15.83C175.795 15.83 174.955 16 174.375 16.34C173.815 16.66 173.535 17.09 173.535 17.63C173.535 18.23 173.835 18.66 174.435 18.92C175.055 19.16 176.005 19.39 177.285 19.61C178.565 19.81 179.615 20.04 180.435 20.3C181.255 20.56 181.955 21 182.535 21.62C183.135 22.24 183.435 23.12 183.435 24.26C183.435 25.76 182.785 26.96 181.485 27.86C180.185 28.76 178.415 29.21 176.175 29.21ZM201.075 12.8C203.435 12.8 205.235 13.37 206.475 14.51C207.735 15.63 208.365 17.33 208.365 19.61V29H204.825V27.05C204.365 27.75 203.705 28.29 202.845 28.67C202.005 29.03 200.985 29.21 199.785 29.21C198.585 29.21 197.535 29.01 196.635 28.61C195.735 28.19 195.035 27.62 194.535 26.9C194.055 26.16 193.815 25.33 193.815 24.41C193.815 22.97 194.345 21.82 195.405 20.96C196.485 20.08 198.175 19.64 200.475 19.64H204.615V19.4C204.615 18.28 204.275 17.42 203.595 16.82C202.935 16.22 201.945 15.92 200.625 15.92C199.725 15.92 198.835 16.06 197.955 16.34C197.095 16.62 196.365 17.01 195.765 17.51L194.295 14.78C195.135 14.14 196.145 13.65 197.325 13.31C198.505 12.97 199.755 12.8 201.075 12.8ZM200.565 26.48C201.505 26.48 202.335 26.27 203.055 25.85C203.795 25.41 204.315 24.79 204.615 23.99V22.13H200.745C198.585 22.13 197.505 22.84 197.505 24.26C197.505 24.94 197.775 25.48 198.315 25.88C198.855 26.28 199.605 26.48 200.565 26.48ZM222.268 12.8C224.288 12.8 225.908 13.39 227.128 14.57C228.348 15.75 228.958 17.5 228.958 19.82V29H225.208V20.3C225.208 18.9 224.878 17.85 224.218 17.15C223.558 16.43 222.618 16.07 221.398 16.07C220.018 16.07 218.928 16.49 218.128 17.33C217.328 18.15 216.928 19.34 216.928 20.9V29H213.178V12.98H216.748V15.05C217.368 14.31 218.148 13.75 219.088 13.37C220.028 12.99 221.088 12.8 222.268 12.8ZM242.006 12.98H245.756V29H242.006V12.98ZM243.896 10.34C243.216 10.34 242.646 10.13 242.186 9.71C241.726 9.27 241.496 8.73 241.496 8.09C241.496 7.45 241.726 6.92 242.186 6.5C242.646 6.06 243.216 5.84 243.896 5.84C244.576 5.84 245.146 6.05 245.606 6.47C246.066 6.87 246.296 7.38 246.296 8C246.296 8.66 246.066 9.22 245.606 9.68C245.166 10.12 244.596 10.34 243.896 10.34ZM255.628 29.21C254.328 29.21 253.058 29.04 251.818 28.7C250.578 28.36 249.588 27.93 248.848 27.41L250.288 24.56C251.008 25.04 251.868 25.43 252.868 25.73C253.888 26.01 254.888 26.15 255.868 26.15C258.108 26.15 259.228 25.56 259.228 24.38C259.228 23.82 258.938 23.43 258.358 23.21C257.798 22.99 256.888 22.78 255.628 22.58C254.308 22.38 253.228 22.15 252.388 21.89C251.568 21.63 250.848 21.18 250.228 20.54C249.628 19.88 249.328 18.97 249.328 17.81C249.328 16.29 249.958 15.08 251.218 14.18C252.498 13.26 254.218 12.8 256.378 12.8C257.478 12.8 258.578 12.93 259.678 13.19C260.778 13.43 261.678 13.76 262.378 14.18L260.938 17.03C259.578 16.23 258.048 15.83 256.348 15.83C255.248 15.83 254.408 16 253.828 16.34C253.268 16.66 252.988 17.09 252.988 17.63C252.988 18.23 253.288 18.66 253.888 18.92C254.508 19.16 255.458 19.39 256.738 19.61C258.018 19.81 259.068 20.04 259.888 20.3C260.708 20.56 261.408 21 261.988 21.62C262.588 22.24 262.888 23.12 262.888 24.26C262.888 25.76 262.238 26.96 260.938 27.86C259.638 28.76 257.868 29.21 255.628 29.21ZM271.067 29.21C269.767 29.21 268.497 29.04 267.257 28.7C266.017 28.36 265.027 27.93 264.287 27.41L265.727 24.56C266.447 25.04 267.307 25.43 268.307 25.73C269.327 26.01 270.327 26.15 271.307 26.15C273.547 26.15 274.667 25.56 274.667 24.38C274.667 23.82 274.377 23.43 273.797 23.21C273.237 22.99 272.327 22.78 271.067 22.58C269.747 22.38 268.667 22.15 267.827 21.89C267.007 21.63 266.287 21.18 265.667 20.54C265.067 19.88 264.767 18.97 264.767 17.81C264.767 16.29 265.397 15.08 266.657 14.18C267.937 13.26 269.657 12.8 271.817 12.8C272.917 12.8 274.017 12.93 275.117 13.19C276.217 13.43 277.117 13.76 277.817 14.18L276.377 17.03C275.017 16.23 273.487 15.83 271.787 15.83C270.687 15.83 269.847 16 269.267 16.34C268.707 16.66 268.427 17.09 268.427 17.63C268.427 18.23 268.727 18.66 269.327 18.92C269.947 19.16 270.897 19.39 272.177 19.61C273.457 19.81 274.507 20.04 275.327 20.3C276.147 20.56 276.847 21 277.427 21.62C278.027 22.24 278.327 23.12 278.327 24.26C278.327 25.76 277.677 26.96 276.377 27.86C275.077 28.76 273.307 29.21 271.067 29.21ZM297.067 12.98V29H293.497V26.96C292.897 27.68 292.147 28.24 291.247 28.64C290.347 29.02 289.377 29.21 288.337 29.21C286.197 29.21 284.507 28.62 283.267 27.44C282.047 26.24 281.437 24.47 281.437 22.13V12.98H285.187V21.62C285.187 23.06 285.507 24.14 286.147 24.86C286.807 25.56 287.737 25.91 288.937 25.91C290.277 25.91 291.337 25.5 292.117 24.68C292.917 23.84 293.317 22.64 293.317 21.08V12.98H297.067ZM317.037 21.08C317.037 21.34 317.017 21.71 316.977 22.19H304.407C304.627 23.37 305.197 24.31 306.117 25.01C307.057 25.69 308.217 26.03 309.597 26.03C311.357 26.03 312.807 25.45 313.947 24.29L315.957 26.6C315.237 27.46 314.327 28.11 313.227 28.55C312.127 28.99 310.887 29.21 309.507 29.21C307.747 29.21 306.197 28.86 304.857 28.16C303.517 27.46 302.477 26.49 301.737 25.25C301.017 23.99 300.657 22.57 300.657 20.99C300.657 19.43 301.007 18.03 301.707 16.79C302.427 15.53 303.417 14.55 304.677 13.85C305.937 13.15 307.357 12.8 308.937 12.8C310.497 12.8 311.887 13.15 313.107 13.85C314.347 14.53 315.307 15.5 315.987 16.76C316.687 18 317.037 19.44 317.037 21.08ZM308.937 15.8C307.737 15.8 306.717 16.16 305.877 16.88C305.057 17.58 304.557 18.52 304.377 19.7H313.467C313.307 18.54 312.817 17.6 311.997 16.88C311.177 16.16 310.157 15.8 308.937 15.8ZM47.2842 43.74H51.0342V66H47.2842V43.74ZM63.1561 66.21C61.5361 66.21 60.0761 65.86 58.7761 65.16C57.4761 64.46 56.4561 63.49 55.7161 62.25C54.9961 60.99 54.6361 59.57 54.6361 57.99C54.6361 56.41 54.9961 55 55.7161 53.76C56.4561 52.52 57.4761 51.55 58.7761 50.85C60.0761 50.15 61.5361 49.8 63.1561 49.8C64.7961 49.8 66.2661 50.15 67.5661 50.85C68.8661 51.55 69.8761 52.52 70.5961 53.76C71.3361 55 71.7061 56.41 71.7061 57.99C71.7061 59.57 71.3361 60.99 70.5961 62.25C69.8761 63.49 68.8661 64.46 67.5661 65.16C66.2661 65.86 64.7961 66.21 63.1561 66.21ZM63.1561 63C64.5361 63 65.6761 62.54 66.5761 61.62C67.4761 60.7 67.9261 59.49 67.9261 57.99C67.9261 56.49 67.4761 55.28 66.5761 54.36C65.6761 53.44 64.5361 52.98 63.1561 52.98C61.7761 52.98 60.6361 53.44 59.7361 54.36C58.8561 55.28 58.4161 56.49 58.4161 57.99C58.4161 59.49 58.8561 60.7 59.7361 61.62C60.6361 62.54 61.7761 63 63.1561 63ZM81.207 49.8C83.567 49.8 85.367 50.37 86.607 51.51C87.867 52.63 88.497 54.33 88.497 56.61V66H84.957V64.05C84.497 64.75 83.837 65.29 82.977 65.67C82.137 66.03 81.117 66.21 79.917 66.21C78.717 66.21 77.667 66.01 76.767 65.61C75.867 65.19 75.167 64.62 74.667 63.9C74.187 63.16 73.947 62.33 73.947 61.41C73.947 59.97 74.477 58.82 75.537 57.96C76.617 57.08 78.307 56.64 80.607 56.64H84.747V56.4C84.747 55.28 84.407 54.42 83.727 53.82C83.067 53.22 82.077 52.92 80.757 52.92C79.857 52.92 78.967 53.06 78.087 53.34C77.227 53.62 76.497 54.01 75.897 54.51L74.427 51.78C75.267 51.14 76.277 50.65 77.457 50.31C78.637 49.97 79.887 49.8 81.207 49.8ZM80.697 63.48C81.637 63.48 82.467 63.27 83.187 62.85C83.927 62.41 84.447 61.79 84.747 60.99V59.13H80.877C78.717 59.13 77.637 59.84 77.637 61.26C77.637 61.94 77.907 62.48 78.447 62.88C78.987 63.28 79.737 63.48 80.697 63.48ZM109.146 43.74V66H105.546V63.93C104.926 64.69 104.156 65.26 103.236 65.64C102.336 66.02 101.336 66.21 100.236 66.21C98.6961 66.21 97.3061 65.87 96.0661 65.19C94.8461 64.51 93.8861 63.55 93.1861 62.31C92.4861 61.05 92.1361 59.61 92.1361 57.99C92.1361 56.37 92.4861 54.94 93.1861 53.7C93.8861 52.46 94.8461 51.5 96.0661 50.82C97.3061 50.14 98.6961 49.8 100.236 49.8C101.296 49.8 102.266 49.98 103.146 50.34C104.026 50.7 104.776 51.24 105.396 51.96V43.74H109.146ZM100.686 63C101.586 63 102.396 62.8 103.116 62.4C103.836 61.98 104.406 61.39 104.826 60.63C105.246 59.87 105.456 58.99 105.456 57.99C105.456 56.99 105.246 56.11 104.826 55.35C104.406 54.59 103.836 54.01 103.116 53.61C102.396 53.19 101.586 52.98 100.686 52.98C99.7861 52.98 98.9761 53.19 98.2561 53.61C97.5361 54.01 96.9661 54.59 96.5461 55.35C96.1261 56.11 95.9161 56.99 95.9161 57.99C95.9161 58.99 96.1261 59.87 96.5461 60.63C96.9661 61.39 97.5361 61.98 98.2561 62.4C98.9761 62.8 99.7861 63 100.686 63ZM114.052 49.98H117.802V66H114.052V49.98ZM115.942 47.34C115.262 47.34 114.692 47.13 114.232 46.71C113.772 46.27 113.542 45.73 113.542 45.09C113.542 44.45 113.772 43.92 114.232 43.5C114.692 43.06 115.262 42.84 115.942 42.84C116.622 42.84 117.192 43.05 117.652 43.47C118.112 43.87 118.342 44.38 118.342 45C118.342 45.66 118.112 46.22 117.652 46.68C117.212 47.12 116.642 47.34 115.942 47.34ZM131.814 49.8C133.834 49.8 135.454 50.39 136.674 51.57C137.894 52.75 138.504 54.5 138.504 56.82V66H134.754V57.3C134.754 55.9 134.424 54.85 133.764 54.15C133.104 53.43 132.164 53.07 130.944 53.07C129.564 53.07 128.474 53.49 127.674 54.33C126.874 55.15 126.474 56.34 126.474 57.9V66H122.724V49.98H126.294V52.05C126.914 51.31 127.694 50.75 128.634 50.37C129.574 49.99 130.634 49.8 131.814 49.8ZM159.307 49.98V63.57C159.307 69.21 156.427 72.03 150.667 72.03C149.127 72.03 147.667 71.83 146.287 71.43C144.907 71.05 143.767 70.49 142.867 69.75L144.547 66.93C145.247 67.51 146.127 67.97 147.187 68.31C148.267 68.67 149.357 68.85 150.457 68.85C152.217 68.85 153.507 68.45 154.327 67.65C155.147 66.85 155.557 65.63 155.557 63.99V63.15C154.917 63.85 154.137 64.38 153.217 64.74C152.297 65.1 151.287 65.28 150.187 65.28C148.667 65.28 147.287 64.96 146.047 64.32C144.827 63.66 143.857 62.74 143.137 61.56C142.437 60.38 142.087 59.03 142.087 57.51C142.087 55.99 142.437 54.65 143.137 53.49C143.857 52.31 144.827 51.4 146.047 50.76C147.287 50.12 148.667 49.8 150.187 49.8C151.347 49.8 152.397 49.99 153.337 50.37C154.297 50.75 155.097 51.33 155.737 52.11V49.98H159.307ZM150.757 62.1C152.177 62.1 153.337 61.68 154.237 60.84C155.157 59.98 155.617 58.87 155.617 57.51C155.617 56.17 155.157 55.08 154.237 54.24C153.337 53.4 152.177 52.98 150.757 52.98C149.317 52.98 148.137 53.4 147.217 54.24C146.317 55.08 145.867 56.17 145.867 57.51C145.867 58.87 146.317 59.98 147.217 60.84C148.137 61.68 149.317 62.1 150.757 62.1ZM182.158 65.13C181.718 65.49 181.178 65.76 180.538 65.94C179.918 66.12 179.258 66.21 178.558 66.21C176.798 66.21 175.438 65.75 174.478 64.83C173.518 63.91 173.038 62.57 173.038 60.81V53.1H170.398V50.1H173.038V46.44H176.788V50.1H181.078V53.1H176.788V60.72C176.788 61.5 176.978 62.1 177.358 62.52C177.738 62.92 178.288 63.12 179.008 63.12C179.848 63.12 180.548 62.9 181.108 62.46L182.158 65.13ZM194.333 49.8C196.353 49.8 197.973 50.39 199.193 51.57C200.413 52.75 201.023 54.5 201.023 56.82V66H197.273V57.3C197.273 55.9 196.943 54.85 196.283 54.15C195.623 53.43 194.683 53.07 193.463 53.07C192.083 53.07 190.993 53.49 190.193 54.33C189.393 55.15 188.993 56.34 188.993 57.9V66H185.243V43.74H188.993V51.84C189.613 51.18 190.373 50.68 191.273 50.34C192.193 49.98 193.213 49.8 194.333 49.8ZM220.987 58.08C220.987 58.34 220.967 58.71 220.927 59.19H208.357C208.577 60.37 209.147 61.31 210.067 62.01C211.007 62.69 212.167 63.03 213.547 63.03C215.307 63.03 216.757 62.45 217.897 61.29L219.907 63.6C219.187 64.46 218.277 65.11 217.177 65.55C216.077 65.99 214.837 66.21 213.457 66.21C211.697 66.21 210.147 65.86 208.807 65.16C207.467 64.46 206.427 63.49 205.687 62.25C204.967 60.99 204.607 59.57 204.607 57.99C204.607 56.43 204.957 55.03 205.657 53.79C206.377 52.53 207.367 51.55 208.627 50.85C209.887 50.15 211.307 49.8 212.887 49.8C214.447 49.8 215.837 50.15 217.057 50.85C218.297 51.53 219.257 52.5 219.937 53.76C220.637 55 220.987 56.44 220.987 58.08ZM212.887 52.8C211.687 52.8 210.667 53.16 209.827 53.88C209.007 54.58 208.507 55.52 208.327 56.7H217.417C217.257 55.54 216.767 54.6 215.947 53.88C215.127 53.16 214.107 52.8 212.887 52.8ZM248.57 43.74V66H244.97V63.93C244.35 64.69 243.58 65.26 242.66 65.64C241.76 66.02 240.76 66.21 239.66 66.21C238.12 66.21 236.73 65.87 235.49 65.19C234.27 64.51 233.31 63.55 232.61 62.31C231.91 61.05 231.56 59.61 231.56 57.99C231.56 56.37 231.91 54.94 232.61 53.7C233.31 52.46 234.27 51.5 235.49 50.82C236.73 50.14 238.12 49.8 239.66 49.8C240.72 49.8 241.69 49.98 242.57 50.34C243.45 50.7 244.2 51.24 244.82 51.96V43.74H248.57ZM240.11 63C241.01 63 241.82 62.8 242.54 62.4C243.26 61.98 243.83 61.39 244.25 60.63C244.67 59.87 244.88 58.99 244.88 57.99C244.88 56.99 244.67 56.11 244.25 55.35C243.83 54.59 243.26 54.01 242.54 53.61C241.82 53.19 241.01 52.98 240.11 52.98C239.21 52.98 238.4 53.19 237.68 53.61C236.96 54.01 236.39 54.59 235.97 55.35C235.55 56.11 235.34 56.99 235.34 57.99C235.34 58.99 235.55 59.87 235.97 60.63C236.39 61.39 236.96 61.98 237.68 62.4C238.4 62.8 239.21 63 240.11 63ZM259.596 49.8C261.956 49.8 263.756 50.37 264.996 51.51C266.256 52.63 266.886 54.33 266.886 56.61V66H263.346V64.05C262.886 64.75 262.226 65.29 261.366 65.67C260.526 66.03 259.506 66.21 258.306 66.21C257.106 66.21 256.056 66.01 255.156 65.61C254.256 65.19 253.556 64.62 253.056 63.9C252.576 63.16 252.336 62.33 252.336 61.41C252.336 59.97 252.866 58.82 253.926 57.96C255.006 57.08 256.696 56.64 258.996 56.64H263.136V56.4C263.136 55.28 262.796 54.42 262.116 53.82C261.456 53.22 260.466 52.92 259.146 52.92C258.246 52.92 257.356 53.06 256.476 53.34C255.616 53.62 254.886 54.01 254.286 54.51L252.816 51.78C253.656 51.14 254.666 50.65 255.846 50.31C257.026 49.97 258.276 49.8 259.596 49.8ZM259.086 63.48C260.026 63.48 260.856 63.27 261.576 62.85C262.316 62.41 262.836 61.79 263.136 60.99V59.13H259.266C257.106 59.13 256.026 59.84 256.026 61.26C256.026 61.94 256.296 62.48 256.836 62.88C257.376 63.28 258.126 63.48 259.086 63.48ZM281.328 65.13C280.888 65.49 280.348 65.76 279.708 65.94C279.088 66.12 278.428 66.21 277.728 66.21C275.968 66.21 274.608 65.75 273.648 64.83C272.688 63.91 272.208 62.57 272.208 60.81V53.1H269.568V50.1H272.208V46.44H275.958V50.1H280.248V53.1H275.958V60.72C275.958 61.5 276.148 62.1 276.528 62.52C276.908 62.92 277.458 63.12 278.178 63.12C279.018 63.12 279.718 62.9 280.278 62.46L281.328 65.13ZM290.533 49.8C292.893 49.8 294.693 50.37 295.933 51.51C297.193 52.63 297.823 54.33 297.823 56.61V66H294.283V64.05C293.823 64.75 293.163 65.29 292.303 65.67C291.463 66.03 290.443 66.21 289.243 66.21C288.043 66.21 286.993 66.01 286.093 65.61C285.193 65.19 284.493 64.62 283.993 63.9C283.513 63.16 283.273 62.33 283.273 61.41C283.273 59.97 283.803 58.82 284.863 57.96C285.943 57.08 287.633 56.64 289.933 56.64H294.073V56.4C294.073 55.28 293.733 54.42 293.053 53.82C292.393 53.22 291.403 52.92 290.083 52.92C289.183 52.92 288.293 53.06 287.413 53.34C286.553 53.62 285.823 54.01 285.223 54.51L283.753 51.78C284.593 51.14 285.603 50.65 286.783 50.31C287.963 49.97 289.213 49.8 290.533 49.8ZM290.023 63.48C290.963 63.48 291.793 63.27 292.513 62.85C293.253 62.41 293.773 61.79 294.073 60.99V59.13H290.203C288.043 59.13 286.963 59.84 286.963 61.26C286.963 61.94 287.233 62.48 287.773 62.88C288.313 63.28 289.063 63.48 290.023 63.48Z" fill="#FF8E2E"/>
<path d="M48.6669 430.3H41.7069V427H59.5269V430.3H52.5669V448H48.6669V430.3ZM65.2829 434.32C66.3629 432.64 68.2629 431.8 70.9829 431.8V435.37C70.6629 435.31 70.3729 435.28 70.1129 435.28C68.6529 435.28 67.5129 435.71 66.6929 436.57C65.8729 437.41 65.4629 438.63 65.4629 440.23V448H61.7129V431.98H65.2829V434.32ZM89.75 431.98L82.25 449.29C81.55 451.03 80.7 452.25 79.7 452.95C78.7 453.67 77.49 454.03 76.07 454.03C75.27 454.03 74.48 453.9 73.7 453.64C72.92 453.38 72.28 453.02 71.78 452.56L73.28 449.8C73.64 450.14 74.06 450.41 74.54 450.61C75.04 450.81 75.54 450.91 76.04 450.91C76.7 450.91 77.24 450.74 77.66 450.4C78.1 450.06 78.5 449.49 78.86 448.69L79.13 448.06L72.14 431.98H76.04L81.08 443.83L86.15 431.98H89.75ZM106.505 431.8C108.865 431.8 110.665 432.37 111.905 433.51C113.165 434.63 113.795 436.33 113.795 438.61V448H110.255V446.05C109.795 446.75 109.135 447.29 108.275 447.67C107.435 448.03 106.415 448.21 105.215 448.21C104.015 448.21 102.965 448.01 102.065 447.61C101.165 447.19 100.465 446.62 99.9648 445.9C99.4848 445.16 99.2448 444.33 99.2448 443.41C99.2448 441.97 99.7748 440.82 100.835 439.96C101.915 439.08 103.605 438.64 105.905 438.64H110.045V438.4C110.045 437.28 109.705 436.42 109.025 435.82C108.365 435.22 107.375 434.92 106.055 434.92C105.155 434.92 104.265 435.06 103.385 435.34C102.525 435.62 101.795 436.01 101.195 436.51L99.7248 433.78C100.565 433.14 101.575 432.65 102.755 432.31C103.935 431.97 105.185 431.8 106.505 431.8ZM105.995 445.48C106.935 445.48 107.765 445.27 108.485 444.85C109.225 444.41 109.745 443.79 110.045 442.99V441.13H106.175C104.015 441.13 102.935 441.84 102.935 443.26C102.935 443.94 103.205 444.48 103.745 444.88C104.285 445.28 105.035 445.48 105.995 445.48ZM134.654 431.98V445.57C134.654 451.21 131.774 454.03 126.014 454.03C124.474 454.03 123.014 453.83 121.634 453.43C120.254 453.05 119.114 452.49 118.214 451.75L119.894 448.93C120.594 449.51 121.474 449.97 122.534 450.31C123.614 450.67 124.704 450.85 125.804 450.85C127.564 450.85 128.854 450.45 129.674 449.65C130.494 448.85 130.904 447.63 130.904 445.99V445.15C130.264 445.85 129.484 446.38 128.564 446.74C127.644 447.1 126.634 447.28 125.534 447.28C124.014 447.28 122.634 446.96 121.394 446.32C120.174 445.66 119.204 444.74 118.484 443.56C117.784 442.38 117.434 441.03 117.434 439.51C117.434 437.99 117.784 436.65 118.484 435.49C119.204 434.31 120.174 433.4 121.394 432.76C122.634 432.12 124.014 431.8 125.534 431.8C126.694 431.8 127.744 431.99 128.684 432.37C129.644 432.75 130.444 433.33 131.084 434.11V431.98H134.654ZM126.104 444.1C127.524 444.1 128.684 443.68 129.584 442.84C130.504 441.98 130.964 440.87 130.964 439.51C130.964 438.17 130.504 437.08 129.584 436.24C128.684 435.4 127.524 434.98 126.104 434.98C124.664 434.98 123.484 435.4 122.564 436.24C121.664 437.08 121.214 438.17 121.214 439.51C121.214 440.87 121.664 441.98 122.564 442.84C123.484 443.68 124.664 444.1 126.104 444.1ZM145.704 431.8C148.064 431.8 149.864 432.37 151.104 433.51C152.364 434.63 152.994 436.33 152.994 438.61V448H149.454V446.05C148.994 446.75 148.334 447.29 147.474 447.67C146.634 448.03 145.614 448.21 144.414 448.21C143.214 448.21 142.164 448.01 141.264 447.61C140.364 447.19 139.664 446.62 139.164 445.9C138.684 445.16 138.444 444.33 138.444 443.41C138.444 441.97 138.974 440.82 140.034 439.96C141.114 439.08 142.804 438.64 145.104 438.64H149.244V438.4C149.244 437.28 148.904 436.42 148.224 435.82C147.564 435.22 146.574 434.92 145.254 434.92C144.354 434.92 143.464 435.06 142.584 435.34C141.724 435.62 140.994 436.01 140.394 436.51L138.924 433.78C139.764 433.14 140.774 432.65 141.954 432.31C143.134 431.97 144.384 431.8 145.704 431.8ZM145.194 445.48C146.134 445.48 146.964 445.27 147.684 444.85C148.424 444.41 148.944 443.79 149.244 442.99V441.13H145.374C143.214 441.13 142.134 441.84 142.134 443.26C142.134 443.94 142.404 444.48 142.944 444.88C143.484 445.28 144.234 445.48 145.194 445.48ZM157.807 431.98H161.557V448H157.807V431.98ZM159.697 429.34C159.017 429.34 158.447 429.13 157.987 428.71C157.527 428.27 157.297 427.73 157.297 427.09C157.297 426.45 157.527 425.92 157.987 425.5C158.447 425.06 159.017 424.84 159.697 424.84C160.377 424.84 160.947 425.05 161.407 425.47C161.867 425.87 162.097 426.38 162.097 427C162.097 427.66 161.867 428.22 161.407 428.68C160.967 429.12 160.397 429.34 159.697 429.34ZM175.569 431.8C177.589 431.8 179.209 432.39 180.429 433.57C181.649 434.75 182.259 436.5 182.259 438.82V448H178.509V439.3C178.509 437.9 178.179 436.85 177.519 436.15C176.859 435.43 175.919 435.07 174.699 435.07C173.319 435.07 172.229 435.49 171.429 436.33C170.629 437.15 170.229 438.34 170.229 439.9V448H166.479V431.98H170.049V434.05C170.669 433.31 171.449 432.75 172.389 432.37C173.329 431.99 174.389 431.8 175.569 431.8ZM195.307 425.74H199.057V448H195.307V425.74ZM210.099 431.8C212.459 431.8 214.259 432.37 215.499 433.51C216.759 434.63 217.389 436.33 217.389 438.61V448H213.849V446.05C213.389 446.75 212.729 447.29 211.869 447.67C211.029 448.03 210.009 448.21 208.809 448.21C207.609 448.21 206.559 448.01 205.659 447.61C204.759 447.19 204.059 446.62 203.559 445.9C203.079 445.16 202.839 444.33 202.839 443.41C202.839 441.97 203.369 440.82 204.429 439.96C205.509 439.08 207.199 438.64 209.499 438.64H213.639V438.4C213.639 437.28 213.299 436.42 212.619 435.82C211.959 435.22 210.969 434.92 209.649 434.92C208.749 434.92 207.859 435.06 206.979 435.34C206.119 435.62 205.389 436.01 204.789 436.51L203.319 433.78C204.159 433.14 205.169 432.65 206.349 432.31C207.529 431.97 208.779 431.8 210.099 431.8ZM209.589 445.48C210.529 445.48 211.359 445.27 212.079 444.85C212.819 444.41 213.339 443.79 213.639 442.99V441.13H209.769C207.609 441.13 206.529 441.84 206.529 443.26C206.529 443.94 206.799 444.48 207.339 444.88C207.879 445.28 208.629 445.48 209.589 445.48ZM231.831 447.13C231.391 447.49 230.851 447.76 230.211 447.94C229.591 448.12 228.931 448.21 228.231 448.21C226.471 448.21 225.111 447.75 224.151 446.83C223.191 445.91 222.711 444.57 222.711 442.81V435.1H220.071V432.1H222.711V428.44H226.461V432.1H230.751V435.1H226.461V442.72C226.461 443.5 226.651 444.1 227.031 444.52C227.411 444.92 227.961 445.12 228.681 445.12C229.521 445.12 230.221 444.9 230.781 444.46L231.831 447.13ZM249.449 440.08C249.449 440.34 249.429 440.71 249.389 441.19H236.819C237.039 442.37 237.609 443.31 238.529 444.01C239.469 444.69 240.629 445.03 242.009 445.03C243.769 445.03 245.219 444.45 246.359 443.29L248.369 445.6C247.649 446.46 246.739 447.11 245.639 447.55C244.539 447.99 243.299 448.21 241.919 448.21C240.159 448.21 238.609 447.86 237.269 447.16C235.929 446.46 234.889 445.49 234.149 444.25C233.429 442.99 233.069 441.57 233.069 439.99C233.069 438.43 233.419 437.03 234.119 435.79C234.839 434.53 235.829 433.55 237.089 432.85C238.349 432.15 239.769 431.8 241.349 431.8C242.909 431.8 244.299 432.15 245.519 432.85C246.759 433.53 247.719 434.5 248.399 435.76C249.099 437 249.449 438.44 249.449 440.08ZM241.349 434.8C240.149 434.8 239.129 435.16 238.289 435.88C237.469 436.58 236.969 437.52 236.789 438.7H245.879C245.719 437.54 245.229 436.6 244.409 435.88C243.589 435.16 242.569 434.8 241.349 434.8ZM256.621 434.32C257.701 432.64 259.601 431.8 262.321 431.8V435.37C262.001 435.31 261.711 435.28 261.451 435.28C259.991 435.28 258.851 435.71 258.031 436.57C257.211 437.41 256.801 438.63 256.801 440.23V448H253.051V431.98H256.621V434.32ZM281.139 448.21C279.519 448.21 278.059 447.86 276.759 447.16C275.459 446.46 274.439 445.49 273.699 444.25C272.979 442.99 272.619 441.57 272.619 439.99C272.619 438.41 272.979 437 273.699 435.76C274.439 434.52 275.459 433.55 276.759 432.85C278.059 432.15 279.519 431.8 281.139 431.8C282.779 431.8 284.249 432.15 285.549 432.85C286.849 433.55 287.859 434.52 288.579 435.76C289.319 437 289.689 438.41 289.689 439.99C289.689 441.57 289.319 442.99 288.579 444.25C287.859 445.49 286.849 446.46 285.549 447.16C284.249 447.86 282.779 448.21 281.139 448.21ZM281.139 445C282.519 445 283.659 444.54 284.559 443.62C285.459 442.7 285.909 441.49 285.909 439.99C285.909 438.49 285.459 437.28 284.559 436.36C283.659 435.44 282.519 434.98 281.139 434.98C279.759 434.98 278.619 435.44 277.719 436.36C276.839 437.28 276.399 438.49 276.399 439.99C276.399 441.49 276.839 442.7 277.719 443.62C278.619 444.54 279.759 445 281.139 445ZM296.845 434.32C297.925 432.64 299.825 431.8 302.545 431.8V435.37C302.225 435.31 301.935 435.28 301.675 435.28C300.215 435.28 299.075 435.71 298.255 436.57C297.435 437.41 297.025 438.63 297.025 440.23V448H293.275V431.98H296.845V434.32ZM46.9438 485.21C45.2838 485.21 43.7938 484.86 42.4738 484.16C41.1538 483.46 40.1238 482.49 39.3838 481.25C38.6438 479.99 38.2738 478.57 38.2738 476.99C38.2738 475.41 38.6438 474 39.3838 472.76C40.1238 471.52 41.1438 470.55 42.4438 469.85C43.7638 469.15 45.2638 468.8 46.9438 468.8C48.5238 468.8 49.9038 469.12 51.0838 469.76C52.2838 470.4 53.1838 471.32 53.7838 472.52L50.9038 474.2C50.4438 473.46 49.8638 472.91 49.1638 472.55C48.4838 472.17 47.7338 471.98 46.9138 471.98C45.5138 471.98 44.3538 472.44 43.4338 473.36C42.5138 474.26 42.0538 475.47 42.0538 476.99C42.0538 478.51 42.5038 479.73 43.4038 480.65C44.3238 481.55 45.4938 482 46.9138 482C47.7338 482 48.4838 481.82 49.1638 481.46C49.8638 481.08 50.4438 480.52 50.9038 479.78L53.7838 481.46C53.1638 482.66 52.2538 483.59 51.0538 484.25C49.8738 484.89 48.5038 485.21 46.9438 485.21ZM63.9911 485.21C62.3711 485.21 60.9111 484.86 59.6111 484.16C58.3111 483.46 57.2911 482.49 56.5511 481.25C55.8311 479.99 55.4711 478.57 55.4711 476.99C55.4711 475.41 55.8311 474 56.5511 472.76C57.2911 471.52 58.3111 470.55 59.6111 469.85C60.9111 469.15 62.3711 468.8 63.9911 468.8C65.6311 468.8 67.1011 469.15 68.4011 469.85C69.7011 470.55 70.7111 471.52 71.4311 472.76C72.1711 474 72.5411 475.41 72.5411 476.99C72.5411 478.57 72.1711 479.99 71.4311 481.25C70.7111 482.49 69.7011 483.46 68.4011 484.16C67.1011 484.86 65.6311 485.21 63.9911 485.21ZM63.9911 482C65.3711 482 66.5111 481.54 67.4111 480.62C68.3111 479.7 68.7611 478.49 68.7611 476.99C68.7611 475.49 68.3111 474.28 67.4111 473.36C66.5111 472.44 65.3711 471.98 63.9911 471.98C62.6111 471.98 61.4711 472.44 60.5711 473.36C59.6911 474.28 59.2511 475.49 59.2511 476.99C59.2511 478.49 59.6911 479.7 60.5711 480.62C61.4711 481.54 62.6111 482 63.9911 482ZM85.217 468.8C87.237 468.8 88.857 469.39 90.077 470.57C91.297 471.75 91.907 473.5 91.907 475.82V485H88.157V476.3C88.157 474.9 87.827 473.85 87.167 473.15C86.507 472.43 85.567 472.07 84.347 472.07C82.967 472.07 81.877 472.49 81.077 473.33C80.277 474.15 79.877 475.34 79.877 476.9V485H76.127V468.98H79.697V471.05C80.317 470.31 81.097 469.75 82.037 469.37C82.977 468.99 84.037 468.8 85.217 468.8ZM106.294 484.13C105.854 484.49 105.314 484.76 104.674 484.94C104.054 485.12 103.394 485.21 102.694 485.21C100.934 485.21 99.5741 484.75 98.6141 483.83C97.6541 482.91 97.1741 481.57 97.1741 479.81V472.1H94.5341V469.1H97.1741V465.44H100.924V469.1H105.214V472.1H100.924V479.72C100.924 480.5 101.114 481.1 101.494 481.52C101.874 481.92 102.424 482.12 103.144 482.12C103.984 482.12 104.684 481.9 105.244 481.46L106.294 484.13ZM115.499 468.8C117.859 468.8 119.659 469.37 120.899 470.51C122.159 471.63 122.789 473.33 122.789 475.61V485H119.249V483.05C118.789 483.75 118.129 484.29 117.269 484.67C116.429 485.03 115.409 485.21 114.209 485.21C113.009 485.21 111.959 485.01 111.059 484.61C110.159 484.19 109.459 483.62 108.959 482.9C108.479 482.16 108.239 481.33 108.239 480.41C108.239 478.97 108.769 477.82 109.829 476.96C110.909 476.08 112.599 475.64 114.899 475.64H119.039V475.4C119.039 474.28 118.699 473.42 118.019 472.82C117.359 472.22 116.369 471.92 115.049 471.92C114.149 471.92 113.259 472.06 112.379 472.34C111.519 472.62 110.789 473.01 110.189 473.51L108.719 470.78C109.559 470.14 110.569 469.65 111.749 469.31C112.929 468.97 114.179 468.8 115.499 468.8ZM114.989 482.48C115.929 482.48 116.759 482.27 117.479 481.85C118.219 481.41 118.739 480.79 119.039 479.99V478.13H115.169C113.009 478.13 111.929 478.84 111.929 480.26C111.929 480.94 112.199 481.48 112.739 481.88C113.279 482.28 114.029 482.48 114.989 482.48ZM135.098 485.21C133.438 485.21 131.948 484.86 130.628 484.16C129.308 483.46 128.278 482.49 127.538 481.25C126.798 479.99 126.428 478.57 126.428 476.99C126.428 475.41 126.798 474 127.538 472.76C128.278 471.52 129.298 470.55 130.598 469.85C131.918 469.15 133.418 468.8 135.098 468.8C136.678 468.8 138.058 469.12 139.238 469.76C140.438 470.4 141.338 471.32 141.938 472.52L139.058 474.2C138.598 473.46 138.018 472.91 137.318 472.55C136.638 472.17 135.888 471.98 135.068 471.98C133.668 471.98 132.508 472.44 131.588 473.36C130.668 474.26 130.208 475.47 130.208 476.99C130.208 478.51 130.658 479.73 131.558 480.65C132.478 481.55 133.648 482 135.068 482C135.888 482 136.638 481.82 137.318 481.46C138.018 481.08 138.598 480.52 139.058 479.78L141.938 481.46C141.318 482.66 140.408 483.59 139.208 484.25C138.028 484.89 136.658 485.21 135.098 485.21ZM155.015 484.13C154.575 484.49 154.035 484.76 153.395 484.94C152.775 485.12 152.115 485.21 151.415 485.21C149.655 485.21 148.295 484.75 147.335 483.83C146.375 482.91 145.895 481.57 145.895 479.81V472.1H143.255V469.1H145.895V465.44H149.645V469.1H153.935V472.1H149.645V479.72C149.645 480.5 149.835 481.1 150.215 481.52C150.595 481.92 151.145 482.12 151.865 482.12C152.705 482.12 153.405 481.9 153.965 481.46L155.015 484.13ZM181.901 468.98V485H178.331V482.96C177.731 483.68 176.981 484.24 176.081 484.64C175.181 485.02 174.211 485.21 173.171 485.21C171.031 485.21 169.341 484.62 168.101 483.44C166.881 482.24 166.271 480.47 166.271 478.13V468.98H170.021V477.62C170.021 479.06 170.341 480.14 170.981 480.86C171.641 481.56 172.571 481.91 173.771 481.91C175.111 481.91 176.171 481.5 176.951 480.68C177.751 479.84 178.151 478.64 178.151 477.08V468.98H181.901ZM191.761 485.21C190.461 485.21 189.191 485.04 187.951 484.7C186.711 484.36 185.721 483.93 184.981 483.41L186.421 480.56C187.141 481.04 188.001 481.43 189.001 481.73C190.021 482.01 191.021 482.15 192.001 482.15C194.241 482.15 195.361 481.56 195.361 480.38C195.361 479.82 195.071 479.43 194.491 479.21C193.931 478.99 193.021 478.78 191.761 478.58C190.441 478.38 189.361 478.15 188.521 477.89C187.701 477.63 186.981 477.18 186.361 476.54C185.761 475.88 185.461 474.97 185.461 473.81C185.461 472.29 186.091 471.08 187.351 470.18C188.631 469.26 190.351 468.8 192.511 468.8C193.611 468.8 194.711 468.93 195.811 469.19C196.911 469.43 197.811 469.76 198.511 470.18L197.071 473.03C195.711 472.23 194.181 471.83 192.481 471.83C191.381 471.83 190.541 472 189.961 472.34C189.401 472.66 189.121 473.09 189.121 473.63C189.121 474.23 189.421 474.66 190.021 474.92C190.641 475.16 191.591 475.39 192.871 475.61C194.151 475.81 195.201 476.04 196.021 476.3C196.841 476.56 197.541 477 198.121 477.62C198.721 478.24 199.021 479.12 199.021 480.26C199.021 481.76 198.371 482.96 197.071 483.86C195.771 484.76 194.001 485.21 191.761 485.21ZM219.421 468.8C220.981 468.8 222.371 469.14 223.591 469.82C224.831 470.5 225.801 471.46 226.501 472.7C227.201 473.94 227.551 475.37 227.551 476.99C227.551 478.61 227.201 480.05 226.501 481.31C225.801 482.55 224.831 483.51 223.591 484.19C222.371 484.87 220.981 485.21 219.421 485.21C217.261 485.21 215.551 484.49 214.291 483.05V490.82H210.541V468.98H214.111V471.08C214.731 470.32 215.491 469.75 216.391 469.37C217.311 468.99 218.321 468.8 219.421 468.8ZM219.001 482C220.381 482 221.511 481.54 222.391 480.62C223.291 479.7 223.741 478.49 223.741 476.99C223.741 475.49 223.291 474.28 222.391 473.36C221.511 472.44 220.381 471.98 219.001 471.98C218.101 471.98 217.291 472.19 216.571 472.61C215.851 473.01 215.281 473.59 214.861 474.35C214.441 475.11 214.231 475.99 214.231 476.99C214.231 477.99 214.441 478.87 214.861 479.63C215.281 480.39 215.851 480.98 216.571 481.4C217.291 481.8 218.101 482 219.001 482ZM231.107 462.74H234.857V485H231.107V462.74ZM254.839 477.08C254.839 477.34 254.819 477.71 254.779 478.19H242.209C242.429 479.37 242.999 480.31 243.919 481.01C244.859 481.69 246.019 482.03 247.399 482.03C249.159 482.03 250.609 481.45 251.749 480.29L253.759 482.6C253.039 483.46 252.129 484.11 251.029 484.55C249.929 484.99 248.689 485.21 247.309 485.21C245.549 485.21 243.999 484.86 242.659 484.16C241.319 483.46 240.279 482.49 239.539 481.25C238.819 479.99 238.459 478.57 238.459 476.99C238.459 475.43 238.809 474.03 239.509 472.79C240.229 471.53 241.219 470.55 242.479 469.85C243.739 469.15 245.159 468.8 246.739 468.8C248.299 468.8 249.689 469.15 250.909 469.85C252.149 470.53 253.109 471.5 253.789 472.76C254.489 474 254.839 475.44 254.839 477.08ZM246.739 471.8C245.539 471.8 244.519 472.16 243.679 472.88C242.859 473.58 242.359 474.52 242.179 475.7H251.269C251.109 474.54 250.619 473.6 249.799 472.88C248.979 472.16 247.959 471.8 246.739 471.8ZM264.122 468.8C266.482 468.8 268.282 469.37 269.522 470.51C270.782 471.63 271.412 473.33 271.412 475.61V485H267.872V483.05C267.412 483.75 266.752 484.29 265.892 484.67C265.052 485.03 264.032 485.21 262.832 485.21C261.632 485.21 260.582 485.01 259.682 484.61C258.782 484.19 258.082 483.62 257.582 482.9C257.102 482.16 256.862 481.33 256.862 480.41C256.862 478.97 257.392 477.82 258.452 476.96C259.532 476.08 261.222 475.64 263.522 475.64H267.662V475.4C267.662 474.28 267.322 473.42 266.642 472.82C265.982 472.22 264.992 471.92 263.672 471.92C262.772 471.92 261.882 472.06 261.002 472.34C260.142 472.62 259.412 473.01 258.812 473.51L257.342 470.78C258.182 470.14 259.192 469.65 260.372 469.31C261.552 468.97 262.802 468.8 264.122 468.8ZM263.612 482.48C264.552 482.48 265.382 482.27 266.102 481.85C266.842 481.41 267.362 480.79 267.662 479.99V478.13H263.792C261.632 478.13 260.552 478.84 260.552 480.26C260.552 480.94 260.822 481.48 261.362 481.88C261.902 482.28 262.652 482.48 263.612 482.48ZM281.175 485.21C279.875 485.21 278.605 485.04 277.365 484.7C276.125 484.36 275.135 483.93 274.395 483.41L275.835 480.56C276.555 481.04 277.415 481.43 278.415 481.73C279.435 482.01 280.435 482.15 281.415 482.15C283.655 482.15 284.775 481.56 284.775 480.38C284.775 479.82 284.485 479.43 283.905 479.21C283.345 478.99 282.435 478.78 281.175 478.58C279.855 478.38 278.775 478.15 277.935 477.89C277.115 477.63 276.395 477.18 275.775 476.54C275.175 475.88 274.875 474.97 274.875 473.81C274.875 472.29 275.505 471.08 276.765 470.18C278.045 469.26 279.765 468.8 281.925 468.8C283.025 468.8 284.125 468.93 285.225 469.19C286.325 469.43 287.225 469.76 287.925 470.18L286.485 473.03C285.125 472.23 283.595 471.83 281.895 471.83C280.795 471.83 279.955 472 279.375 472.34C278.815 472.66 278.535 473.09 278.535 473.63C278.535 474.23 278.835 474.66 279.435 474.92C280.055 475.16 281.005 475.39 282.285 475.61C283.565 475.81 284.615 476.04 285.435 476.3C286.255 476.56 286.955 477 287.535 477.62C288.135 478.24 288.435 479.12 288.435 480.26C288.435 481.76 287.785 482.96 286.485 483.86C285.185 484.76 283.415 485.21 281.175 485.21ZM306.724 477.08C306.724 477.34 306.704 477.71 306.664 478.19H294.094C294.314 479.37 294.884 480.31 295.804 481.01C296.744 481.69 297.904 482.03 299.284 482.03C301.044 482.03 302.494 481.45 303.634 480.29L305.644 482.6C304.924 483.46 304.014 484.11 302.914 484.55C301.814 484.99 300.574 485.21 299.194 485.21C297.434 485.21 295.884 484.86 294.544 484.16C293.204 483.46 292.164 482.49 291.424 481.25C290.704 479.99 290.344 478.57 290.344 476.99C290.344 475.43 290.694 474.03 291.394 472.79C292.114 471.53 293.104 470.55 294.364 469.85C295.624 469.15 297.044 468.8 298.624 468.8C300.184 468.8 301.574 469.15 302.794 469.85C304.034 470.53 304.994 471.5 305.674 472.76C306.374 474 306.724 475.44 306.724 477.08ZM298.624 471.8C297.424 471.8 296.404 472.16 295.564 472.88C294.744 473.58 294.244 474.52 294.064 475.7H303.154C302.994 474.54 302.504 473.6 301.684 472.88C300.864 472.16 299.844 471.8 298.624 471.8Z" fill="#FF8E2E"/>
</svg>
