<svg width="826" height="822" viewBox="0 0 826 822" fill="none" xmlns="http://www.w3.org/2000/svg">
<path d="M78.3333 506.667C89.0108 506.667 97.6667 498.011 97.6667 487.333C97.6667 476.656 89.0108 468 78.3333 468C67.6558 468 59 476.656 59 487.333C59 498.011 67.6558 506.667 78.3333 506.667Z" stroke="#EB4343" stroke-width="10" stroke-linecap="round" stroke-linejoin="round"/>
<path d="M198.333 506.667C209.011 506.667 217.667 498.011 217.667 487.333C217.667 476.656 209.011 468 198.333 468C187.656 468 179 476.656 179 487.333C179 498.011 187.656 506.667 198.333 506.667Z" stroke="#EB4343" stroke-width="10" stroke-linecap="round" stroke-linejoin="round"/>
<path d="M223.333 352L207.093 433.103C206.209 437.554 203.788 441.552 200.254 444.397C196.719 447.242 192.296 448.754 187.76 448.667H85.5832C80.8628 448.707 76.2909 447.018 72.7295 443.92C69.1681 440.822 66.8633 436.527 66.2498 431.847L51.5565 320.487C50.9472 315.839 48.6703 311.572 45.1494 308.477C41.6286 305.383 37.1037 303.674 32.4165 303.667H10.6665" stroke="#EB4343" stroke-width="10" stroke-linecap="round" stroke-linejoin="round"/>
<path d="M138 436C122.087 436 106.826 429.679 95.5736 418.426C84.3214 407.174 78 391.913 78 376C78 360.087 84.3214 344.826 95.5736 333.574C106.826 322.321 122.087 316 138 316C153.913 316 169.174 322.321 180.426 333.574C191.679 344.826 198 360.087 198 376C198 391.913 191.679 407.174 180.426 418.426C169.174 429.679 153.913 436 138 436V436ZM138 424C150.73 424 162.939 418.943 171.941 409.941C180.943 400.939 186 388.73 186 376C186 363.27 180.943 351.061 171.941 342.059C162.939 333.057 150.73 328 138 328C125.27 328 113.061 333.057 104.059 342.059C95.0571 351.061 90 363.27 90 376C90 388.73 95.0571 400.939 104.059 409.941C113.061 418.943 125.27 424 138 424V424ZM116.76 396.76C119.547 393.966 122.857 391.75 126.502 390.237C130.147 388.725 134.054 387.946 138 387.946C141.946 387.946 145.853 388.725 149.498 390.237C153.143 391.75 156.453 393.966 159.24 396.76C160.37 397.89 161.005 399.422 161.005 401.02C161.005 402.618 160.37 404.15 159.24 405.28C158.681 405.839 158.016 406.283 157.286 406.586C156.555 406.889 155.771 407.045 154.98 407.045C153.382 407.045 151.85 406.41 150.72 405.28C147.345 401.909 142.77 400.016 138 400.016C133.23 400.016 128.655 401.909 125.28 405.28C124.721 405.839 124.056 406.283 123.326 406.586C122.595 406.889 121.811 407.045 121.02 407.045C120.229 407.045 119.445 406.889 118.715 406.586C117.984 406.283 117.319 405.839 116.76 405.28C116.201 404.721 115.757 404.056 115.454 403.326C115.151 402.595 114.995 401.811 114.995 401.02C114.995 400.229 115.151 399.445 115.454 398.715C115.757 397.984 116.201 397.319 116.76 396.76V396.76ZM120 370C118.409 370 116.883 369.368 115.757 368.243C114.632 367.117 114 365.591 114 364C114 362.409 114.632 360.883 115.757 359.757C116.883 358.632 118.409 358 120 358C121.591 358 123.117 358.632 124.243 359.757C125.368 360.883 126 362.409 126 364C126 365.591 125.368 367.117 124.243 368.243C123.117 369.368 121.591 370 120 370ZM156 370C154.409 370 152.883 369.368 151.757 368.243C150.632 367.117 150 365.591 150 364C150 362.409 150.632 360.883 151.757 359.757C152.883 358.632 154.409 358 156 358C157.591 358 159.117 358.632 160.243 359.757C161.368 360.883 162 362.409 162 364C162 365.591 161.368 367.117 160.243 368.243C159.117 369.368 157.591 370 156 370Z" fill="#EB4343"/>
<path d="M26.14 136.12V151H16.42V136L0.16 109H10.48L21.7 127.66L32.92 109H42.46L26.14 136.12ZM57.6527 151.48C54.2527 151.48 51.1927 150.78 48.4727 149.38C45.7927 147.94 43.6927 145.96 42.1727 143.44C40.6527 140.92 39.8927 138.06 39.8927 134.86C39.8927 131.66 40.6527 128.8 42.1727 126.28C43.6927 123.76 45.7927 121.8 48.4727 120.4C51.1927 118.96 54.2527 118.24 57.6527 118.24C61.0527 118.24 64.0927 118.96 66.7727 120.4C69.4527 121.8 71.5527 123.76 73.0727 126.28C74.5927 128.8 75.3527 131.66 75.3527 134.86C75.3527 138.06 74.5927 140.92 73.0727 143.44C71.5527 145.96 69.4527 147.94 66.7727 149.38C64.0927 150.78 61.0527 151.48 57.6527 151.48ZM57.6527 143.8C60.0527 143.8 62.0127 143 63.5327 141.4C65.0927 139.76 65.8727 137.58 65.8727 134.86C65.8727 132.14 65.0927 129.98 63.5327 128.38C62.0127 126.74 60.0527 125.92 57.6527 125.92C55.2527 125.92 53.2727 126.74 51.7127 128.38C50.1527 129.98 49.3727 132.14 49.3727 134.86C49.3727 137.58 50.1527 139.76 51.7127 141.4C53.2727 143 55.2527 143.8 57.6527 143.8ZM114.129 118.72V151H105.249V147.16C104.009 148.56 102.529 149.64 100.809 150.4C99.0891 151.12 97.2291 151.48 95.2291 151.48C90.9891 151.48 87.6291 150.26 85.1491 147.82C82.6691 145.38 81.4291 141.76 81.4291 136.96V118.72H90.7891V135.58C90.7891 140.78 92.9691 143.38 97.3291 143.38C99.5691 143.38 101.369 142.66 102.729 141.22C104.089 139.74 104.769 137.56 104.769 134.68V118.72H114.129ZM172.673 106.48V151H163.733V147.28C161.413 150.08 158.053 151.48 153.653 151.48C150.613 151.48 147.853 150.8 145.373 149.44C142.933 148.08 141.013 146.14 139.613 143.62C138.213 141.1 137.513 138.18 137.513 134.86C137.513 131.54 138.213 128.62 139.613 126.1C141.013 123.58 142.933 121.64 145.373 120.28C147.853 118.92 150.613 118.24 153.653 118.24C157.773 118.24 160.993 119.54 163.313 122.14V106.48H172.673ZM155.273 143.8C157.633 143.8 159.593 143 161.153 141.4C162.713 139.76 163.493 137.58 163.493 134.86C163.493 132.14 162.713 129.98 161.153 128.38C159.593 126.74 157.633 125.92 155.273 125.92C152.873 125.92 150.893 126.74 149.333 128.38C147.773 129.98 146.993 132.14 146.993 134.86C146.993 137.58 147.773 139.76 149.333 141.4C150.893 143 152.873 143.8 155.273 143.8ZM196.696 151.48C193.296 151.48 190.236 150.78 187.516 149.38C184.836 147.94 182.736 145.96 181.216 143.44C179.696 140.92 178.936 138.06 178.936 134.86C178.936 131.66 179.696 128.8 181.216 126.28C182.736 123.76 184.836 121.8 187.516 120.4C190.236 118.96 193.296 118.24 196.696 118.24C200.096 118.24 203.136 118.96 205.816 120.4C208.496 121.8 210.596 123.76 212.116 126.28C213.636 128.8 214.396 131.66 214.396 134.86C214.396 138.06 213.636 140.92 212.116 143.44C210.596 145.96 208.496 147.94 205.816 149.38C203.136 150.78 200.096 151.48 196.696 151.48ZM196.696 143.8C199.096 143.8 201.056 143 202.576 141.4C204.136 139.76 204.916 137.58 204.916 134.86C204.916 132.14 204.136 129.98 202.576 128.38C201.056 126.74 199.096 125.92 196.696 125.92C194.296 125.92 192.316 126.74 190.756 128.38C189.196 129.98 188.416 132.14 188.416 134.86C188.416 137.58 189.196 139.76 190.756 141.4C192.316 143 194.296 143.8 196.696 143.8ZM240.272 118.24C244.272 118.24 247.492 119.44 249.932 121.84C252.412 124.24 253.652 127.8 253.652 132.52V151H244.292V133.96C244.292 131.4 243.732 129.5 242.612 128.26C241.492 126.98 239.872 126.34 237.752 126.34C235.392 126.34 233.512 127.08 232.112 128.56C230.712 130 230.012 132.16 230.012 135.04V151H220.652V118.72H229.592V122.5C230.832 121.14 232.372 120.1 234.212 119.38C236.052 118.62 238.072 118.24 240.272 118.24ZM265.502 106C267.182 106 268.562 106.54 269.642 107.62C270.722 108.66 271.262 110.04 271.262 111.76C271.262 112.56 271.162 113.36 270.962 114.16C270.762 114.96 270.342 116.16 269.702 117.76L266.222 126.4H260.282L262.862 116.92C261.862 116.48 261.082 115.82 260.522 114.94C259.962 114.06 259.682 113 259.682 111.76C259.682 110.04 260.222 108.66 261.302 107.62C262.422 106.54 263.822 106 265.502 106ZM298.777 149.44C297.857 150.12 296.717 150.64 295.357 151C294.037 151.32 292.637 151.48 291.157 151.48C287.317 151.48 284.337 150.5 282.217 148.54C280.137 146.58 279.097 143.7 279.097 139.9V126.64H274.117V119.44H279.097V111.58H288.457V119.44H296.497V126.64H288.457V139.78C288.457 141.14 288.797 142.2 289.477 142.96C290.197 143.68 291.197 144.04 292.477 144.04C293.957 144.04 295.217 143.64 296.257 142.84L298.777 149.44ZM24.94 180.24C28.94 180.24 32.16 181.44 34.6 183.84C37.08 186.24 38.32 189.8 38.32 194.52V213H28.96V195.96C28.96 193.4 28.4 191.5 27.28 190.26C26.16 188.98 24.54 188.34 22.42 188.34C20.06 188.34 18.18 189.08 16.78 190.56C15.38 192 14.68 194.16 14.68 197.04V213H5.32V168.48H14.68V184.08C15.92 182.84 17.42 181.9 19.18 181.26C20.94 180.58 22.86 180.24 24.94 180.24ZM59.8244 180.24C64.8244 180.24 68.6644 181.44 71.3444 183.84C74.0244 186.2 75.3644 189.78 75.3644 194.58V213H66.6044V208.98C64.8444 211.98 61.5644 213.48 56.7644 213.48C54.2844 213.48 52.1244 213.06 50.2844 212.22C48.4844 211.38 47.1044 210.22 46.1444 208.74C45.1844 207.26 44.7044 205.58 44.7044 203.7C44.7044 200.7 45.8244 198.34 48.0644 196.62C50.3444 194.9 53.8444 194.04 58.5644 194.04H66.0044C66.0044 192 65.3844 190.44 64.1444 189.36C62.9044 188.24 61.0444 187.68 58.5644 187.68C56.8444 187.68 55.1444 187.96 53.4644 188.52C51.8244 189.04 50.4244 189.76 49.2644 190.68L45.9044 184.14C47.6644 182.9 49.7644 181.94 52.2044 181.26C54.6844 180.58 57.2244 180.24 59.8244 180.24ZM59.1044 207.18C60.7044 207.18 62.1244 206.82 63.3644 206.1C64.6044 205.34 65.4844 204.24 66.0044 202.8V199.5H59.5844C55.7444 199.5 53.8244 200.76 53.8244 203.28C53.8244 204.48 54.2844 205.44 55.2044 206.16C56.1644 206.84 57.4644 207.18 59.1044 207.18ZM115.29 180.72L101.67 213H92.0097L78.4497 180.72H88.1097L97.0497 202.68L106.29 180.72H115.29ZM149.85 196.98C149.85 197.1 149.79 197.94 149.67 199.5H125.25C125.69 201.5 126.73 203.08 128.37 204.24C130.01 205.4 132.05 205.98 134.49 205.98C136.17 205.98 137.65 205.74 138.93 205.26C140.25 204.74 141.47 203.94 142.59 202.86L147.57 208.26C144.53 211.74 140.09 213.48 134.25 213.48C130.61 213.48 127.39 212.78 124.59 211.38C121.79 209.94 119.63 207.96 118.11 205.44C116.59 202.92 115.83 200.06 115.83 196.86C115.83 193.7 116.57 190.86 118.05 188.34C119.57 185.78 121.63 183.8 124.23 182.4C126.87 180.96 129.81 180.24 133.05 180.24C136.21 180.24 139.07 180.92 141.63 182.28C144.19 183.64 146.19 185.6 147.63 188.16C149.11 190.68 149.85 193.62 149.85 196.98ZM133.11 187.32C130.99 187.32 129.21 187.92 127.77 189.12C126.33 190.32 125.45 191.96 125.13 194.04H141.03C140.71 192 139.83 190.38 138.39 189.18C136.95 187.94 135.19 187.32 133.11 187.32ZM192.154 180.24C195.154 180.24 197.874 180.94 200.314 182.34C202.794 183.7 204.734 185.64 206.134 188.16C207.534 190.64 208.234 193.54 208.234 196.86C208.234 200.18 207.534 203.1 206.134 205.62C204.734 208.1 202.794 210.04 200.314 211.44C197.874 212.8 195.154 213.48 192.154 213.48C188.034 213.48 184.794 212.18 182.434 209.58V224.64H173.074V180.72H182.014V184.44C184.334 181.64 187.714 180.24 192.154 180.24ZM190.534 205.8C192.934 205.8 194.894 205 196.414 203.4C197.974 201.76 198.754 199.58 198.754 196.86C198.754 194.14 197.974 191.98 196.414 190.38C194.894 188.74 192.934 187.92 190.534 187.92C188.134 187.92 186.154 188.74 184.594 190.38C183.074 191.98 182.314 194.14 182.314 196.86C182.314 199.58 183.074 201.76 184.594 203.4C186.154 205 188.134 205.8 190.534 205.8ZM223.44 184.98C224.56 183.42 226.06 182.24 227.94 181.44C229.86 180.64 232.06 180.24 234.54 180.24V188.88C233.5 188.8 232.8 188.76 232.44 188.76C229.76 188.76 227.66 189.52 226.14 191.04C224.62 192.52 223.86 194.76 223.86 197.76V213H214.5V180.72H223.44V184.98ZM255.172 213.48C251.772 213.48 248.712 212.78 245.992 211.38C243.312 209.94 241.212 207.96 239.692 205.44C238.172 202.92 237.412 200.06 237.412 196.86C237.412 193.66 238.172 190.8 239.692 188.28C241.212 185.76 243.312 183.8 245.992 182.4C248.712 180.96 251.772 180.24 255.172 180.24C258.572 180.24 261.612 180.96 264.292 182.4C266.972 183.8 269.072 185.76 270.592 188.28C272.112 190.8 272.872 193.66 272.872 196.86C272.872 200.06 272.112 202.92 270.592 205.44C269.072 207.96 266.972 209.94 264.292 211.38C261.612 212.78 258.572 213.48 255.172 213.48ZM255.172 205.8C257.572 205.8 259.532 205 261.052 203.4C262.612 201.76 263.392 199.58 263.392 196.86C263.392 194.14 262.612 191.98 261.052 190.38C259.532 188.74 257.572 187.92 255.172 187.92C252.772 187.92 250.792 188.74 249.232 190.38C247.672 191.98 246.892 194.14 246.892 196.86C246.892 199.58 247.672 201.76 249.232 203.4C250.792 205 252.772 205.8 255.172 205.8ZM312.009 168.48V213H303.069V209.28C300.749 212.08 297.389 213.48 292.989 213.48C289.949 213.48 287.189 212.8 284.709 211.44C282.269 210.08 280.349 208.14 278.949 205.62C277.549 203.1 276.849 200.18 276.849 196.86C276.849 193.54 277.549 190.62 278.949 188.1C280.349 185.58 282.269 183.64 284.709 182.28C287.189 180.92 289.949 180.24 292.989 180.24C297.109 180.24 300.329 181.54 302.649 184.14V168.48H312.009ZM294.609 205.8C296.969 205.8 298.929 205 300.489 203.4C302.049 201.76 302.829 199.58 302.829 196.86C302.829 194.14 302.049 191.98 300.489 190.38C298.929 188.74 296.969 187.92 294.609 187.92C292.209 187.92 290.229 188.74 288.669 190.38C287.109 191.98 286.329 194.14 286.329 196.86C286.329 199.58 287.109 201.76 288.669 203.4C290.229 205 292.209 205.8 294.609 205.8ZM353.192 180.72V213H344.312V209.16C343.072 210.56 341.592 211.64 339.872 212.4C338.152 213.12 336.292 213.48 334.292 213.48C330.052 213.48 326.692 212.26 324.212 209.82C321.732 207.38 320.492 203.76 320.492 198.96V180.72H329.852V197.58C329.852 202.78 332.032 205.38 336.392 205.38C338.632 205.38 340.432 204.66 341.792 203.22C343.152 201.74 343.832 199.56 343.832 196.68V180.72H353.192ZM377.463 213.48C374.023 213.48 370.923 212.78 368.163 211.38C365.443 209.94 363.303 207.96 361.743 205.44C360.223 202.92 359.463 200.06 359.463 196.86C359.463 193.66 360.223 190.8 361.743 188.28C363.303 185.76 365.443 183.8 368.163 182.4C370.923 180.96 374.023 180.24 377.463 180.24C380.863 180.24 383.823 180.96 386.343 182.4C388.903 183.8 390.763 185.82 391.923 188.46L384.663 192.36C382.983 189.4 380.563 187.92 377.403 187.92C374.963 187.92 372.943 188.72 371.343 190.32C369.743 191.92 368.943 194.1 368.943 196.86C368.943 199.62 369.743 201.8 371.343 203.4C372.943 205 374.963 205.8 377.403 205.8C380.603 205.8 383.023 204.32 384.663 201.36L391.923 205.32C390.763 207.88 388.903 209.88 386.343 211.32C383.823 212.76 380.863 213.48 377.463 213.48ZM418.601 211.44C417.681 212.12 416.541 212.64 415.181 213C413.861 213.32 412.461 213.48 410.981 213.48C407.141 213.48 404.161 212.5 402.041 210.54C399.961 208.58 398.921 205.7 398.921 201.9V188.64H393.941V181.44H398.921V173.58H408.281V181.44H416.321V188.64H408.281V201.78C408.281 203.14 408.621 204.2 409.301 204.96C410.021 205.68 411.021 206.04 412.301 206.04C413.781 206.04 415.041 205.64 416.081 204.84L418.601 211.44ZM434.715 213.48C432.035 213.48 429.415 213.16 426.855 212.52C424.295 211.84 422.255 211 420.735 210L423.855 203.28C425.295 204.2 427.035 204.96 429.075 205.56C431.115 206.12 433.115 206.4 435.075 206.4C439.035 206.4 441.015 205.42 441.015 203.46C441.015 202.54 440.475 201.88 439.395 201.48C438.315 201.08 436.655 200.74 434.415 200.46C431.775 200.06 429.595 199.6 427.875 199.08C426.155 198.56 424.655 197.64 423.375 196.32C422.135 195 421.515 193.12 421.515 190.68C421.515 188.64 422.095 186.84 423.255 185.28C424.455 183.68 426.175 182.44 428.415 181.56C430.695 180.68 433.375 180.24 436.455 180.24C438.735 180.24 440.995 180.5 443.235 181.02C445.515 181.5 447.395 182.18 448.875 183.06L445.755 189.72C442.915 188.12 439.815 187.32 436.455 187.32C434.455 187.32 432.955 187.6 431.955 188.16C430.955 188.72 430.455 189.44 430.455 190.32C430.455 191.32 430.995 192.02 432.075 192.42C433.155 192.82 434.875 193.2 437.235 193.56C439.875 194 442.035 194.48 443.715 195C445.395 195.48 446.855 196.38 448.095 197.7C449.335 199.02 449.955 200.86 449.955 203.22C449.955 205.22 449.355 207 448.155 208.56C446.955 210.12 445.195 211.34 442.875 212.22C440.595 213.06 437.875 213.48 434.715 213.48ZM5.32 242.72H14.68V275H5.32V242.72ZM10 238.22C8.28 238.22 6.88 237.72 5.8 236.72C4.72 235.72 4.18 234.48 4.18 233C4.18 231.52 4.72 230.28 5.8 229.28C6.88 228.28 8.28 227.78 10 227.78C11.72 227.78 13.12 228.26 14.2 229.22C15.28 230.18 15.82 231.38 15.82 232.82C15.82 234.38 15.28 235.68 14.2 236.72C13.12 237.72 11.72 238.22 10 238.22ZM42.9869 242.24C46.9869 242.24 50.2069 243.44 52.6469 245.84C55.1269 248.24 56.3669 251.8 56.3669 256.52V275H47.0069V257.96C47.0069 255.4 46.4469 253.5 45.3269 252.26C44.2069 250.98 42.5869 250.34 40.4669 250.34C38.1069 250.34 36.2269 251.08 34.8269 252.56C33.4269 254 32.7269 256.16 32.7269 259.04V275H23.3669V242.72H32.3069V246.5C33.5469 245.14 35.0869 244.1 36.9269 243.38C38.7669 242.62 40.7869 242.24 42.9869 242.24ZM113.883 242.72L99.3034 276.98C97.8234 280.7 95.9834 283.32 93.7834 284.84C91.6234 286.36 89.0034 287.12 85.9234 287.12C84.2434 287.12 82.5834 286.86 80.9434 286.34C79.3034 285.82 77.9634 285.1 76.9234 284.18L80.3434 277.52C81.0634 278.16 81.8834 278.66 82.8034 279.02C83.7634 279.38 84.7034 279.56 85.6234 279.56C86.9034 279.56 87.9434 279.24 88.7434 278.6C89.5434 278 90.2634 276.98 90.9034 275.54L91.0234 275.24L77.0434 242.72H86.7034L95.7634 264.62L104.883 242.72H113.883ZM132.184 275.48C128.784 275.48 125.724 274.78 123.004 273.38C120.324 271.94 118.224 269.96 116.704 267.44C115.184 264.92 114.424 262.06 114.424 258.86C114.424 255.66 115.184 252.8 116.704 250.28C118.224 247.76 120.324 245.8 123.004 244.4C125.724 242.96 128.784 242.24 132.184 242.24C135.584 242.24 138.624 242.96 141.304 244.4C143.984 245.8 146.084 247.76 147.604 250.28C149.124 252.8 149.884 255.66 149.884 258.86C149.884 262.06 149.124 264.92 147.604 267.44C146.084 269.96 143.984 271.94 141.304 273.38C138.624 274.78 135.584 275.48 132.184 275.48ZM132.184 267.8C134.584 267.8 136.544 267 138.064 265.4C139.624 263.76 140.404 261.58 140.404 258.86C140.404 256.14 139.624 253.98 138.064 252.38C136.544 250.74 134.584 249.92 132.184 249.92C129.784 249.92 127.804 250.74 126.244 252.38C124.684 253.98 123.904 256.14 123.904 258.86C123.904 261.58 124.684 263.76 126.244 265.4C127.804 267 129.784 267.8 132.184 267.8ZM188.66 242.72V275H179.78V271.16C178.54 272.56 177.06 273.64 175.34 274.4C173.62 275.12 171.76 275.48 169.76 275.48C165.52 275.48 162.16 274.26 159.68 271.82C157.2 269.38 155.96 265.76 155.96 260.96V242.72H165.32V259.58C165.32 264.78 167.5 267.38 171.86 267.38C174.1 267.38 175.9 266.66 177.26 265.22C178.62 263.74 179.3 261.56 179.3 258.68V242.72H188.66ZM206.272 246.98C207.392 245.42 208.892 244.24 210.772 243.44C212.692 242.64 214.892 242.24 217.372 242.24V250.88C216.332 250.8 215.632 250.76 215.272 250.76C212.592 250.76 210.492 251.52 208.972 253.04C207.452 254.52 206.692 256.76 206.692 259.76V275H197.332V242.72H206.272V246.98ZM260.924 275.72C256.644 275.72 252.764 274.8 249.284 272.96C245.844 271.08 243.124 268.5 241.124 265.22C239.164 261.9 238.184 258.16 238.184 254C238.184 249.84 239.164 246.12 241.124 242.84C243.124 239.52 245.844 236.94 249.284 235.1C252.764 233.22 256.664 232.28 260.984 232.28C264.624 232.28 267.904 232.92 270.824 234.2C273.784 235.48 276.264 237.32 278.264 239.72L272.024 245.48C269.184 242.2 265.664 240.56 261.464 240.56C258.864 240.56 256.544 241.14 254.504 242.3C252.464 243.42 250.864 245 249.704 247.04C248.584 249.08 248.024 251.4 248.024 254C248.024 256.6 248.584 258.92 249.704 260.96C250.864 263 252.464 264.6 254.504 265.76C256.544 266.88 258.864 267.44 261.464 267.44C265.664 267.44 269.184 265.78 272.024 262.46L278.264 268.22C276.264 270.66 273.784 272.52 270.824 273.8C267.864 275.08 264.564 275.72 260.924 275.72ZM296.953 242.24C301.953 242.24 305.793 243.44 308.473 245.84C311.153 248.2 312.493 251.78 312.493 256.58V275H303.733V270.98C301.973 273.98 298.693 275.48 293.893 275.48C291.413 275.48 289.253 275.06 287.413 274.22C285.613 273.38 284.233 272.22 283.273 270.74C282.313 269.26 281.833 267.58 281.833 265.7C281.833 262.7 282.953 260.34 285.193 258.62C287.473 256.9 290.973 256.04 295.693 256.04H303.133C303.133 254 302.513 252.44 301.273 251.36C300.033 250.24 298.173 249.68 295.693 249.68C293.973 249.68 292.273 249.96 290.593 250.52C288.953 251.04 287.553 251.76 286.393 252.68L283.033 246.14C284.793 244.9 286.893 243.94 289.333 243.26C291.813 242.58 294.353 242.24 296.953 242.24ZM296.233 269.18C297.833 269.18 299.253 268.82 300.493 268.1C301.733 267.34 302.613 266.24 303.133 264.8V261.5H296.713C292.873 261.5 290.953 262.76 290.953 265.28C290.953 266.48 291.413 267.44 292.333 268.16C293.293 268.84 294.593 269.18 296.233 269.18ZM329.905 246.98C331.025 245.42 332.525 244.24 334.405 243.44C336.325 242.64 338.525 242.24 341.005 242.24V250.88C339.965 250.8 339.265 250.76 338.905 250.76C336.225 250.76 334.125 251.52 332.605 253.04C331.085 254.52 330.325 256.76 330.325 259.76V275H320.965V242.72H329.905V246.98ZM368.503 273.44C367.583 274.12 366.443 274.64 365.083 275C363.763 275.32 362.363 275.48 360.883 275.48C357.043 275.48 354.063 274.5 351.943 272.54C349.863 270.58 348.823 267.7 348.823 263.9V250.64H343.843V243.44H348.823V235.58H358.183V243.44H366.223V250.64H358.183V263.78C358.183 265.14 358.523 266.2 359.203 266.96C359.923 267.68 360.923 268.04 362.203 268.04C363.683 268.04 364.943 267.64 365.983 266.84L368.503 273.44Z" fill="#EB4343"/>
<path d="M553.452 97.5141C553.35 99.0826 553.147 102.22 554.626 103.883C556.003 107.115 555.902 108.683 557.279 111.915L558.656 115.147L559.931 119.947C577.124 172.941 587.286 236.535 584.242 283.59C581.198 330.644 538.972 419.433 498.47 481.558C496.789 483.032 496.586 486.169 496.484 487.737C496.281 490.874 497.658 494.106 499.137 495.77C500.616 497.433 503.674 499.191 506.834 499.381C509.995 499.571 514.836 498.287 516.619 495.245C572.617 438.775 626.571 364.861 631.644 286.437C636.717 208.012 619.017 162.861 590.562 112.34C587.807 105.876 584.952 100.981 580.516 95.9906C577.559 92.6638 571.644 86.0102 568.484 85.8204C559.105 83.6825 553.858 91.2402 553.452 97.5141Z" fill="#FF8E2E"/>
<path d="M524.908 29.0474C520.163 28.8565 515.348 30.2358 512.114 31.6786C510.463 33.1851 508.741 36.2615 507.089 37.768C503.646 43.921 503.226 53.3414 502.737 64.3318C502.387 72.1821 501.968 81.6024 504.712 91.15L507.455 100.698L508.827 105.471C511.711 111.879 514.665 116.716 517.549 123.124C520.572 126.391 523.596 129.658 528.341 129.849C531.505 129.976 534.738 128.534 536.39 127.027C538.042 125.521 539.763 122.444 539.833 120.874L539.903 119.304C538.531 114.53 538.811 108.25 537.579 100.336C537.859 94.0559 536.627 86.142 536.836 81.4318C537.046 76.7216 537.186 73.5815 538.908 70.505C538.978 68.9349 538.978 68.935 540.629 67.4285C540.629 67.4285 542.211 67.4922 543.793 67.5558C548.538 67.7466 557.959 69.6983 567.309 73.2201C576.66 76.7419 586.011 80.2637 590.686 82.0246C592.268 82.0882 593.78 83.7218 595.362 83.7854C598.525 83.9127 600.177 82.4062 603.41 80.9634C606.644 79.5205 606.784 76.3804 606.854 74.8104C606.993 71.6703 605.551 68.4665 604.04 66.8329C584.526 42.455 551.658 33.2689 532.677 32.5056L524.908 29.0474Z" fill="#FF8E2E"/>
<path d="M533.333 800.667C544.011 800.667 552.667 792.011 552.667 781.333C552.667 770.656 544.011 762 533.333 762C522.656 762 514 770.656 514 781.333C514 792.011 522.656 800.667 533.333 800.667Z" stroke="#FF8E2E" stroke-width="10" stroke-linecap="round" stroke-linejoin="round"/>
<path d="M647.333 800.667C658.011 800.667 666.667 792.011 666.667 781.333C666.667 770.656 658.011 762 647.333 762C636.656 762 628 770.656 628 781.333C628 792.011 636.656 800.667 647.333 800.667Z" stroke="#FF8E2E" stroke-width="10" stroke-linecap="round" stroke-linejoin="round"/>
<path d="M676.333 648L660.093 729.103C659.209 733.554 656.788 737.552 653.254 740.397C649.719 743.242 645.296 744.754 640.76 744.667H538.583C533.863 744.707 529.291 743.018 525.729 739.92C522.168 736.822 519.863 732.527 519.25 727.847L504.557 616.487C503.947 611.839 501.67 607.572 498.149 604.477C494.629 601.383 490.104 599.674 485.417 599.667H463.667" stroke="#FF8E2E" stroke-width="10" stroke-linecap="round" stroke-linejoin="round"/>
<path d="M604.513 728.687H639.353C641.298 728.687 643.164 727.915 644.539 726.539C645.915 725.164 646.688 723.298 646.688 721.353V637.004H562.339V659.008" stroke="#FF8E2E" stroke-width="8" stroke-linejoin="round"/>
<path d="M626.517 655.341V622.335C626.517 620.389 625.745 618.524 624.369 617.148C622.994 615.773 621.128 615 619.183 615H589.844C587.899 615 586.033 615.773 584.658 617.148C583.282 618.524 582.509 620.389 582.509 622.335V655.341" stroke="#FF8E2E" stroke-width="8" stroke-linejoin="round"/>
<path d="M562.339 648.006H646.688" stroke="#FF8E2E" stroke-width="8" stroke-linejoin="round"/>
<path d="M578.842 659.008C578.842 658.035 579.228 657.103 579.916 656.415C580.604 655.727 581.536 655.341 582.509 655.341C583.482 655.341 584.415 655.727 585.102 656.415C585.79 657.103 586.176 658.035 586.176 659.008" stroke="#FF8E2E" stroke-width="8" stroke-linejoin="round"/>
<path d="M626.517 662.675C628.542 662.675 630.184 661.033 630.184 659.008C630.184 656.983 628.542 655.341 626.517 655.341C624.492 655.341 622.85 656.983 622.85 659.008C622.85 661.033 624.492 662.675 626.517 662.675Z" stroke="#FF8E2E" stroke-width="8" stroke-linejoin="round"/>
<path d="M606.347 677.345H533V688.347H606.347V677.345Z" stroke="#FF8E2E" stroke-width="8" stroke-linejoin="round"/>
<path d="M538.501 688.347V725.02C538.501 725.993 538.887 726.926 539.575 727.613C540.263 728.301 541.196 728.687 542.168 728.687H597.178C598.151 728.687 599.084 728.301 599.772 727.613C600.459 726.926 600.846 725.993 600.846 725.02V688.347" stroke="#FF8E2E" stroke-width="8" stroke-linejoin="round"/>
<path d="M558.671 677.345V688.347" stroke="#FF8E2E" stroke-width="8" stroke-linejoin="round"/>
<path d="M580.675 677.345V688.347" stroke="#FF8E2E" stroke-width="8" stroke-linejoin="round"/>
<path d="M577.008 688.347V728.687" stroke="#FF8E2E" stroke-width="8" stroke-linejoin="round"/>
<path d="M562.339 688.347V728.687" stroke="#FF8E2E" stroke-width="8" stroke-linejoin="round"/>
<path d="M538.501 695.681H556.838" stroke="#FF8E2E" stroke-width="8" stroke-linejoin="round"/>
<path d="M582.509 695.681H600.846" stroke="#FF8E2E" stroke-width="8" stroke-linejoin="round"/>
<path d="M569.674 677.345V670.01C569.689 669.283 569.557 668.561 569.286 667.887C569.015 667.212 568.611 666.6 568.097 666.086C567.583 665.572 566.97 665.167 566.296 664.896C565.622 664.625 564.899 664.494 564.173 664.509H551.337C551.337 664.509 553.171 677.345 569.674 677.345Z" stroke="#FF8E2E" stroke-width="8" stroke-linejoin="round"/>
<path d="M569.674 677.345V670.01C569.658 669.283 569.79 668.561 570.061 667.887C570.332 667.212 570.736 666.6 571.25 666.086C571.764 665.572 572.377 665.167 573.051 664.896C573.726 664.625 574.448 664.494 575.175 664.509H588.01C588.01 664.509 586.177 677.345 569.674 677.345Z" stroke="#FF8E2E" stroke-width="8" stroke-linejoin="round"/>
<path d="M639.353 712.184V717.685C639.363 718.17 639.275 718.651 639.095 719.101C638.914 719.551 638.644 719.959 638.302 720.302C637.959 720.644 637.551 720.914 637.101 721.095C636.651 721.275 636.17 721.363 635.686 721.353H630.185" stroke="#FF8E2E" stroke-width="8" stroke-linejoin="round"/>
<path d="M593.511 714.018V721.353H586.176" stroke="#FF8E2E" stroke-width="8" stroke-linejoin="round"/>
<path d="M318.98 521.998H328.7V556.078H349.76V563.998H318.98V521.998ZM385.917 547.978C385.917 548.098 385.857 548.938 385.737 550.498H361.317C361.757 552.498 362.797 554.078 364.437 555.238C366.077 556.398 368.117 556.978 370.557 556.978C372.237 556.978 373.717 556.738 374.997 556.258C376.317 555.738 377.537 554.938 378.657 553.858L383.637 559.258C380.597 562.738 376.157 564.478 370.317 564.478C366.677 564.478 363.457 563.778 360.657 562.378C357.857 560.938 355.697 558.958 354.177 556.438C352.657 553.918 351.897 551.058 351.897 547.858C351.897 544.698 352.637 541.858 354.117 539.338C355.637 536.778 357.697 534.798 360.297 533.398C362.937 531.958 365.877 531.238 369.117 531.238C372.277 531.238 375.137 531.918 377.697 533.278C380.257 534.638 382.257 536.598 383.697 539.158C385.177 541.678 385.917 544.618 385.917 547.978ZM369.177 538.318C367.057 538.318 365.277 538.918 363.837 540.118C362.397 541.318 361.517 542.958 361.197 545.038H377.097C376.777 542.998 375.897 541.378 374.457 540.178C373.017 538.938 371.257 538.318 369.177 538.318ZM412.968 562.438C412.048 563.118 410.908 563.638 409.548 563.998C408.228 564.318 406.828 564.478 405.348 564.478C401.508 564.478 398.528 563.498 396.408 561.538C394.328 559.578 393.288 556.698 393.288 552.898V539.638H388.308V532.438H393.288V524.578H402.648V532.438H410.688V539.638H402.648V552.778C402.648 554.138 402.988 555.198 403.668 555.958C404.388 556.678 405.388 557.038 406.668 557.038C408.148 557.038 409.408 556.638 410.448 555.838L412.968 562.438ZM421.822 518.998C423.502 518.998 424.882 519.538 425.962 520.618C427.042 521.658 427.582 523.038 427.582 524.758C427.582 525.558 427.482 526.358 427.282 527.158C427.082 527.958 426.662 529.158 426.022 530.758L422.542 539.398H416.602L419.182 529.918C418.182 529.478 417.402 528.818 416.842 527.938C416.282 527.058 416.002 525.998 416.002 524.758C416.002 523.038 416.542 521.658 417.622 520.618C418.742 519.538 420.142 518.998 421.822 518.998ZM443.731 564.478C441.051 564.478 438.431 564.158 435.871 563.518C433.311 562.838 431.271 561.998 429.751 560.998L432.871 554.278C434.311 555.198 436.051 555.958 438.091 556.558C440.131 557.118 442.131 557.398 444.091 557.398C448.051 557.398 450.031 556.418 450.031 554.458C450.031 553.538 449.491 552.878 448.411 552.478C447.331 552.078 445.671 551.738 443.431 551.458C440.791 551.058 438.611 550.598 436.891 550.078C435.171 549.558 433.671 548.638 432.391 547.318C431.151 545.998 430.531 544.118 430.531 541.678C430.531 539.638 431.111 537.838 432.271 536.278C433.471 534.678 435.191 533.438 437.431 532.558C439.711 531.678 442.391 531.238 445.471 531.238C447.751 531.238 450.011 531.498 452.251 532.018C454.531 532.498 456.411 533.178 457.891 534.058L454.771 540.718C451.931 539.118 448.831 538.318 445.471 538.318C443.471 538.318 441.971 538.598 440.971 539.158C439.971 539.718 439.471 540.438 439.471 541.318C439.471 542.318 440.011 543.018 441.091 543.418C442.171 543.818 443.891 544.198 446.251 544.558C448.891 544.998 451.051 545.478 452.731 545.998C454.411 546.478 455.871 547.378 457.111 548.698C458.351 550.018 458.971 551.858 458.971 554.218C458.971 556.218 458.371 557.998 457.171 559.558C455.971 561.118 454.211 562.338 451.891 563.218C449.611 564.058 446.891 564.478 443.731 564.478ZM497.338 564.478C493.898 564.478 490.798 563.778 488.038 562.378C485.318 560.938 483.178 558.958 481.618 556.438C480.098 553.918 479.338 551.058 479.338 547.858C479.338 544.658 480.098 541.798 481.618 539.278C483.178 536.758 485.318 534.798 488.038 533.398C490.798 531.958 493.898 531.238 497.338 531.238C500.738 531.238 503.698 531.958 506.218 533.398C508.778 534.798 510.638 536.818 511.798 539.458L504.538 543.358C502.858 540.398 500.438 538.918 497.278 538.918C494.838 538.918 492.818 539.718 491.218 541.318C489.618 542.918 488.818 545.098 488.818 547.858C488.818 550.618 489.618 552.798 491.218 554.398C492.818 555.998 494.838 556.798 497.278 556.798C500.478 556.798 502.898 555.318 504.538 552.358L511.798 556.318C510.638 558.878 508.778 560.878 506.218 562.318C503.698 563.758 500.738 564.478 497.338 564.478ZM536.573 531.238C540.573 531.238 543.793 532.438 546.233 534.838C548.713 537.238 549.953 540.798 549.953 545.518V563.998H540.593V546.958C540.593 544.398 540.033 542.498 538.913 541.258C537.793 539.978 536.173 539.338 534.053 539.338C531.693 539.338 529.813 540.078 528.413 541.558C527.013 542.998 526.313 545.158 526.313 548.038V563.998H516.953V519.478H526.313V535.078C527.553 533.838 529.053 532.898 530.813 532.258C532.573 531.578 534.493 531.238 536.573 531.238ZM571.457 531.238C576.457 531.238 580.297 532.438 582.977 534.838C585.657 537.198 586.997 540.778 586.997 545.578V563.998H578.237V559.978C576.477 562.978 573.197 564.478 568.397 564.478C565.917 564.478 563.757 564.058 561.917 563.218C560.117 562.378 558.737 561.218 557.777 559.738C556.817 558.258 556.337 556.578 556.337 554.698C556.337 551.698 557.457 549.338 559.697 547.618C561.977 545.898 565.477 545.038 570.197 545.038H577.637C577.637 542.998 577.017 541.438 575.777 540.358C574.537 539.238 572.677 538.678 570.197 538.678C568.477 538.678 566.777 538.958 565.097 539.518C563.457 540.038 562.057 540.758 560.897 541.678L557.537 535.138C559.297 533.898 561.397 532.938 563.837 532.258C566.317 531.578 568.857 531.238 571.457 531.238ZM570.737 558.178C572.337 558.178 573.757 557.818 574.997 557.098C576.237 556.338 577.117 555.238 577.637 553.798V550.498H571.217C567.377 550.498 565.457 551.758 565.457 554.278C565.457 555.478 565.917 556.438 566.837 557.158C567.797 557.838 569.097 558.178 570.737 558.178ZM615.088 531.238C619.088 531.238 622.308 532.438 624.748 534.838C627.228 537.238 628.468 540.798 628.468 545.518V563.998H619.108V546.958C619.108 544.398 618.548 542.498 617.428 541.258C616.308 539.978 614.688 539.338 612.568 539.338C610.208 539.338 608.328 540.078 606.928 541.558C605.528 542.998 604.828 545.158 604.828 548.038V563.998H595.468V531.718H604.408V535.498C605.648 534.138 607.188 533.098 609.028 532.378C610.868 531.618 612.888 531.238 615.088 531.238ZM670.604 531.718V558.598C670.604 564.518 669.064 568.918 665.984 571.798C662.904 574.678 658.404 576.118 652.484 576.118C649.364 576.118 646.404 575.738 643.604 574.978C640.804 574.218 638.484 573.118 636.644 571.678L640.364 564.958C641.724 566.078 643.444 566.958 645.524 567.598C647.604 568.278 649.684 568.618 651.764 568.618C655.004 568.618 657.384 567.878 658.904 566.398C660.464 564.958 661.244 562.758 661.244 559.798V558.418C658.804 561.098 655.404 562.438 651.044 562.438C648.084 562.438 645.364 561.798 642.884 560.518C640.444 559.198 638.504 557.358 637.064 554.998C635.624 552.638 634.904 549.918 634.904 546.838C634.904 543.758 635.624 541.038 637.064 538.678C638.504 536.318 640.444 534.498 642.884 533.218C645.364 531.898 648.084 531.238 651.044 531.238C655.724 531.238 659.284 532.778 661.724 535.858V531.718H670.604ZM652.904 554.758C655.384 554.758 657.404 554.038 658.964 552.598C660.564 551.118 661.364 549.198 661.364 546.838C661.364 544.478 660.564 542.578 658.964 541.138C657.404 539.658 655.384 538.918 652.904 538.918C650.424 538.918 648.384 539.658 646.784 541.138C645.184 542.578 644.384 544.478 644.384 546.838C644.384 549.198 645.184 551.118 646.784 552.598C648.384 554.038 650.424 554.758 652.904 554.758ZM710.936 547.978C710.936 548.098 710.876 548.938 710.756 550.498H686.336C686.776 552.498 687.816 554.078 689.456 555.238C691.096 556.398 693.136 556.978 695.576 556.978C697.256 556.978 698.736 556.738 700.016 556.258C701.336 555.738 702.556 554.938 703.676 553.858L708.656 559.258C705.616 562.738 701.176 564.478 695.336 564.478C691.696 564.478 688.476 563.778 685.676 562.378C682.876 560.938 680.716 558.958 679.196 556.438C677.676 553.918 676.916 551.058 676.916 547.858C676.916 544.698 677.656 541.858 679.136 539.338C680.656 536.778 682.716 534.798 685.316 533.398C687.956 531.958 690.896 531.238 694.136 531.238C697.296 531.238 700.156 531.918 702.716 533.278C705.276 534.638 707.276 536.598 708.716 539.158C710.196 541.678 710.936 544.618 710.936 547.978ZM694.196 538.318C692.076 538.318 690.296 538.918 688.856 540.118C687.416 541.318 686.536 542.958 686.216 545.038H702.116C701.796 542.998 700.916 541.378 699.476 540.178C698.036 538.938 696.276 538.318 694.196 538.318ZM339.14 624.438C338.22 625.118 337.08 625.638 335.72 625.998C334.4 626.318 333 626.478 331.52 626.478C327.68 626.478 324.7 625.498 322.58 623.538C320.5 621.578 319.46 618.698 319.46 614.898V601.638H314.48V594.438H319.46V586.578H328.82V594.438H336.86V601.638H328.82V614.778C328.82 616.138 329.16 617.198 329.84 617.958C330.56 618.678 331.56 619.038 332.84 619.038C334.32 619.038 335.58 618.638 336.62 617.838L339.14 624.438ZM364.014 593.238C368.014 593.238 371.234 594.438 373.674 596.838C376.154 599.238 377.394 602.798 377.394 607.518V625.998H368.034V608.958C368.034 606.398 367.474 604.498 366.354 603.258C365.234 601.978 363.614 601.338 361.494 601.338C359.134 601.338 357.254 602.078 355.854 603.558C354.454 604.998 353.754 607.158 353.754 610.038V625.998H344.394V581.478H353.754V597.078C354.994 595.838 356.494 594.898 358.254 594.258C360.014 593.578 361.934 593.238 364.014 593.238ZM398.899 593.238C403.899 593.238 407.739 594.438 410.419 596.838C413.099 599.198 414.439 602.778 414.439 607.578V625.998H405.679V621.978C403.919 624.978 400.639 626.478 395.839 626.478C393.359 626.478 391.199 626.058 389.359 625.218C387.559 624.378 386.179 623.218 385.219 621.738C384.259 620.258 383.779 618.578 383.779 616.698C383.779 613.698 384.899 611.338 387.139 609.618C389.419 607.898 392.919 607.038 397.639 607.038H405.079C405.079 604.998 404.459 603.438 403.219 602.358C401.979 601.238 400.119 600.678 397.639 600.678C395.919 600.678 394.219 600.958 392.539 601.518C390.899 602.038 389.499 602.758 388.339 603.678L384.979 597.138C386.739 595.898 388.839 594.938 391.279 594.258C393.759 593.578 396.299 593.238 398.899 593.238ZM398.179 620.178C399.779 620.178 401.199 619.818 402.439 619.098C403.679 618.338 404.559 617.238 405.079 615.798V612.498H398.659C394.819 612.498 392.899 613.758 392.899 616.278C392.899 617.478 393.359 618.438 394.279 619.158C395.239 619.838 396.539 620.178 398.179 620.178ZM443.73 624.438C442.81 625.118 441.67 625.638 440.31 625.998C438.99 626.318 437.59 626.478 436.11 626.478C432.27 626.478 429.29 625.498 427.17 623.538C425.09 621.578 424.05 618.698 424.05 614.898V601.638H419.07V594.438H424.05V586.578H433.41V594.438H441.45V601.638H433.41V614.778C433.41 616.138 433.75 617.198 434.43 617.958C435.15 618.678 436.15 619.038 437.43 619.038C438.91 619.038 440.17 618.638 441.21 617.838L443.73 624.438Z" fill="#333333"/>
</svg>
