<svg width="703" height="831" viewBox="0 0 703 831" fill="none" xmlns="http://www.w3.org/2000/svg">
<path d="M78.3333 461.667C89.0108 461.667 97.6667 453.011 97.6667 442.333C97.6667 431.656 89.0108 423 78.3333 423C67.6558 423 59 431.656 59 442.333C59 453.011 67.6558 461.667 78.3333 461.667Z" stroke="#EB4343" stroke-width="10" stroke-linecap="round" stroke-linejoin="round"/>
<path d="M198.333 461.667C209.011 461.667 217.667 453.011 217.667 442.333C217.667 431.656 209.011 423 198.333 423C187.656 423 179 431.656 179 442.333C179 453.011 187.656 461.667 198.333 461.667Z" stroke="#EB4343" stroke-width="10" stroke-linecap="round" stroke-linejoin="round"/>
<path d="M223.333 307L207.093 388.103C206.209 392.554 203.788 396.552 200.254 399.397C196.719 402.242 192.296 403.754 187.76 403.667H85.5832C80.8628 403.707 76.2909 402.018 72.7295 398.92C69.1681 395.822 66.8633 391.527 66.2498 386.847L51.5565 275.487C50.9472 270.839 48.6703 266.572 45.1494 263.477C41.6286 260.383 37.1037 258.674 32.4165 258.667H10.6665" stroke="#EB4343" stroke-width="10" stroke-linecap="round" stroke-linejoin="round"/>
<path d="M138 391C122.087 391 106.826 384.679 95.5736 373.426C84.3214 362.174 78 346.913 78 331C78 315.087 84.3214 299.826 95.5736 288.574C106.826 277.321 122.087 271 138 271C153.913 271 169.174 277.321 180.426 288.574C191.679 299.826 198 315.087 198 331C198 346.913 191.679 362.174 180.426 373.426C169.174 384.679 153.913 391 138 391ZM138 379C150.73 379 162.939 373.943 171.941 364.941C180.943 355.939 186 343.73 186 331C186 318.27 180.943 306.061 171.941 297.059C162.939 288.057 150.73 283 138 283C125.27 283 113.061 288.057 104.059 297.059C95.0571 306.061 90 318.27 90 331C90 343.73 95.0571 355.939 104.059 364.941C113.061 373.943 125.27 379 138 379ZM116.76 351.76C119.547 348.966 122.857 346.75 126.502 345.237C130.147 343.725 134.054 342.946 138 342.946C141.946 342.946 145.853 343.725 149.498 345.237C153.143 346.75 156.453 348.966 159.24 351.76C160.37 352.89 161.005 354.422 161.005 356.02C161.005 357.618 160.37 359.15 159.24 360.28C158.681 360.839 158.016 361.283 157.286 361.586C156.555 361.889 155.771 362.045 154.98 362.045C153.382 362.045 151.85 361.41 150.72 360.28C147.345 356.909 142.77 355.016 138 355.016C133.23 355.016 128.655 356.909 125.28 360.28C124.721 360.839 124.056 361.283 123.326 361.586C122.595 361.889 121.811 362.045 121.02 362.045C120.229 362.045 119.445 361.889 118.715 361.586C117.984 361.283 117.319 360.839 116.76 360.28C116.201 359.721 115.757 359.056 115.454 358.326C115.151 357.595 114.995 356.811 114.995 356.02C114.995 355.229 115.151 354.445 115.454 353.715C115.757 352.984 116.201 352.319 116.76 351.76ZM120 325C118.409 325 116.883 324.368 115.757 323.243C114.632 322.117 114 320.591 114 319C114 317.409 114.632 315.883 115.757 314.757C116.883 313.632 118.409 313 120 313C121.591 313 123.117 313.632 124.243 314.757C125.368 315.883 126 317.409 126 319C126 320.591 125.368 322.117 124.243 323.243C123.117 324.368 121.591 325 120 325ZM156 325C154.409 325 152.883 324.368 151.757 323.243C150.632 322.117 150 320.591 150 319C150 317.409 150.632 315.883 151.757 314.757C152.883 313.632 154.409 313 156 313C157.591 313 159.117 313.632 160.243 314.757C161.368 315.883 162 317.409 162 319C162 320.591 161.368 322.117 160.243 323.243C159.117 324.368 157.591 325 156 325Z" fill="#EB4343"/>
<path d="M26.14 91.12V106H16.42V91L0.16 64H10.48L21.7 82.66L32.92 64H42.46L26.14 91.12ZM57.6527 106.48C54.2527 106.48 51.1927 105.78 48.4727 104.38C45.7927 102.94 43.6927 100.96 42.1727 98.44C40.6527 95.92 39.8927 93.06 39.8927 89.86C39.8927 86.66 40.6527 83.8 42.1727 81.28C43.6927 78.76 45.7927 76.8 48.4727 75.4C51.1927 73.96 54.2527 73.24 57.6527 73.24C61.0527 73.24 64.0927 73.96 66.7727 75.4C69.4527 76.8 71.5527 78.76 73.0727 81.28C74.5927 83.8 75.3527 86.66 75.3527 89.86C75.3527 93.06 74.5927 95.92 73.0727 98.44C71.5527 100.96 69.4527 102.94 66.7727 104.38C64.0927 105.78 61.0527 106.48 57.6527 106.48ZM57.6527 98.8C60.0527 98.8 62.0127 98 63.5327 96.4C65.0927 94.76 65.8727 92.58 65.8727 89.86C65.8727 87.14 65.0927 84.98 63.5327 83.38C62.0127 81.74 60.0527 80.92 57.6527 80.92C55.2527 80.92 53.2727 81.74 51.7127 83.38C50.1527 84.98 49.3727 87.14 49.3727 89.86C49.3727 92.58 50.1527 94.76 51.7127 96.4C53.2727 98 55.2527 98.8 57.6527 98.8ZM114.129 73.72V106H105.249V102.16C104.009 103.56 102.529 104.64 100.809 105.4C99.0891 106.12 97.2291 106.48 95.2291 106.48C90.9891 106.48 87.6291 105.26 85.1491 102.82C82.6691 100.38 81.4291 96.76 81.4291 91.96V73.72H90.7891V90.58C90.7891 95.78 92.9691 98.38 97.3291 98.38C99.5691 98.38 101.369 97.66 102.729 96.22C104.089 94.74 104.769 92.56 104.769 89.68V73.72H114.129ZM172.673 61.48V106H163.733V102.28C161.413 105.08 158.053 106.48 153.653 106.48C150.613 106.48 147.853 105.8 145.373 104.44C142.933 103.08 141.013 101.14 139.613 98.62C138.213 96.1 137.513 93.18 137.513 89.86C137.513 86.54 138.213 83.62 139.613 81.1C141.013 78.58 142.933 76.64 145.373 75.28C147.853 73.92 150.613 73.24 153.653 73.24C157.773 73.24 160.993 74.54 163.313 77.14V61.48H172.673ZM155.273 98.8C157.633 98.8 159.593 98 161.153 96.4C162.713 94.76 163.493 92.58 163.493 89.86C163.493 87.14 162.713 84.98 161.153 83.38C159.593 81.74 157.633 80.92 155.273 80.92C152.873 80.92 150.893 81.74 149.333 83.38C147.773 84.98 146.993 87.14 146.993 89.86C146.993 92.58 147.773 94.76 149.333 96.4C150.893 98 152.873 98.8 155.273 98.8ZM196.696 106.48C193.296 106.48 190.236 105.78 187.516 104.38C184.836 102.94 182.736 100.96 181.216 98.44C179.696 95.92 178.936 93.06 178.936 89.86C178.936 86.66 179.696 83.8 181.216 81.28C182.736 78.76 184.836 76.8 187.516 75.4C190.236 73.96 193.296 73.24 196.696 73.24C200.096 73.24 203.136 73.96 205.816 75.4C208.496 76.8 210.596 78.76 212.116 81.28C213.636 83.8 214.396 86.66 214.396 89.86C214.396 93.06 213.636 95.92 212.116 98.44C210.596 100.96 208.496 102.94 205.816 104.38C203.136 105.78 200.096 106.48 196.696 106.48ZM196.696 98.8C199.096 98.8 201.056 98 202.576 96.4C204.136 94.76 204.916 92.58 204.916 89.86C204.916 87.14 204.136 84.98 202.576 83.38C201.056 81.74 199.096 80.92 196.696 80.92C194.296 80.92 192.316 81.74 190.756 83.38C189.196 84.98 188.416 87.14 188.416 89.86C188.416 92.58 189.196 94.76 190.756 96.4C192.316 98 194.296 98.8 196.696 98.8ZM240.272 73.24C244.272 73.24 247.492 74.44 249.932 76.84C252.412 79.24 253.652 82.8 253.652 87.52V106H244.292V88.96C244.292 86.4 243.732 84.5 242.612 83.26C241.492 81.98 239.872 81.34 237.752 81.34C235.392 81.34 233.512 82.08 232.112 83.56C230.712 85 230.012 87.16 230.012 90.04V106H220.652V73.72H229.592V77.5C230.832 76.14 232.372 75.1 234.212 74.38C236.052 73.62 238.072 73.24 240.272 73.24ZM265.502 61C267.182 61 268.562 61.54 269.642 62.62C270.722 63.66 271.262 65.04 271.262 66.76C271.262 67.56 271.162 68.36 270.962 69.16C270.762 69.96 270.342 71.16 269.702 72.76L266.222 81.4H260.282L262.862 71.92C261.862 71.48 261.082 70.82 260.522 69.94C259.962 69.06 259.682 68 259.682 66.76C259.682 65.04 260.222 63.66 261.302 62.62C262.422 61.54 263.822 61 265.502 61ZM298.777 104.44C297.857 105.12 296.717 105.64 295.357 106C294.037 106.32 292.637 106.48 291.157 106.48C287.317 106.48 284.337 105.5 282.217 103.54C280.137 101.58 279.097 98.7 279.097 94.9V81.64H274.117V74.44H279.097V66.58H288.457V74.44H296.497V81.64H288.457V94.78C288.457 96.14 288.797 97.2 289.477 97.96C290.197 98.68 291.197 99.04 292.477 99.04C293.957 99.04 295.217 98.64 296.257 97.84L298.777 104.44ZM24.94 135.24C28.94 135.24 32.16 136.44 34.6 138.84C37.08 141.24 38.32 144.8 38.32 149.52V168H28.96V150.96C28.96 148.4 28.4 146.5 27.28 145.26C26.16 143.98 24.54 143.34 22.42 143.34C20.06 143.34 18.18 144.08 16.78 145.56C15.38 147 14.68 149.16 14.68 152.04V168H5.32V123.48H14.68V139.08C15.92 137.84 17.42 136.9 19.18 136.26C20.94 135.58 22.86 135.24 24.94 135.24ZM59.8244 135.24C64.8244 135.24 68.6644 136.44 71.3444 138.84C74.0244 141.2 75.3644 144.78 75.3644 149.58V168H66.6044V163.98C64.8444 166.98 61.5644 168.48 56.7644 168.48C54.2844 168.48 52.1244 168.06 50.2844 167.22C48.4844 166.38 47.1044 165.22 46.1444 163.74C45.1844 162.26 44.7044 160.58 44.7044 158.7C44.7044 155.7 45.8244 153.34 48.0644 151.62C50.3444 149.9 53.8444 149.04 58.5644 149.04H66.0044C66.0044 147 65.3844 145.44 64.1444 144.36C62.9044 143.24 61.0444 142.68 58.5644 142.68C56.8444 142.68 55.1444 142.96 53.4644 143.52C51.8244 144.04 50.4244 144.76 49.2644 145.68L45.9044 139.14C47.6644 137.9 49.7644 136.94 52.2044 136.26C54.6844 135.58 57.2244 135.24 59.8244 135.24ZM59.1044 162.18C60.7044 162.18 62.1244 161.82 63.3644 161.1C64.6044 160.34 65.4844 159.24 66.0044 157.8V154.5H59.5844C55.7444 154.5 53.8244 155.76 53.8244 158.28C53.8244 159.48 54.2844 160.44 55.2044 161.16C56.1644 161.84 57.4644 162.18 59.1044 162.18ZM115.29 135.72L101.67 168H92.0097L78.4497 135.72H88.1097L97.0497 157.68L106.29 135.72H115.29ZM149.85 151.98C149.85 152.1 149.79 152.94 149.67 154.5H125.25C125.69 156.5 126.73 158.08 128.37 159.24C130.01 160.4 132.05 160.98 134.49 160.98C136.17 160.98 137.65 160.74 138.93 160.26C140.25 159.74 141.47 158.94 142.59 157.86L147.57 163.26C144.53 166.74 140.09 168.48 134.25 168.48C130.61 168.48 127.39 167.78 124.59 166.38C121.79 164.94 119.63 162.96 118.11 160.44C116.59 157.92 115.83 155.06 115.83 151.86C115.83 148.7 116.57 145.86 118.05 143.34C119.57 140.78 121.63 138.8 124.23 137.4C126.87 135.96 129.81 135.24 133.05 135.24C136.21 135.24 139.07 135.92 141.63 137.28C144.19 138.64 146.19 140.6 147.63 143.16C149.11 145.68 149.85 148.62 149.85 151.98ZM133.11 142.32C130.99 142.32 129.21 142.92 127.77 144.12C126.33 145.32 125.45 146.96 125.13 149.04H141.03C140.71 147 139.83 145.38 138.39 144.18C136.95 142.94 135.19 142.32 133.11 142.32ZM192.154 135.24C195.154 135.24 197.874 135.94 200.314 137.34C202.794 138.7 204.734 140.64 206.134 143.16C207.534 145.64 208.234 148.54 208.234 151.86C208.234 155.18 207.534 158.1 206.134 160.62C204.734 163.1 202.794 165.04 200.314 166.44C197.874 167.8 195.154 168.48 192.154 168.48C188.034 168.48 184.794 167.18 182.434 164.58V179.64H173.074V135.72H182.014V139.44C184.334 136.64 187.714 135.24 192.154 135.24ZM190.534 160.8C192.934 160.8 194.894 160 196.414 158.4C197.974 156.76 198.754 154.58 198.754 151.86C198.754 149.14 197.974 146.98 196.414 145.38C194.894 143.74 192.934 142.92 190.534 142.92C188.134 142.92 186.154 143.74 184.594 145.38C183.074 146.98 182.314 149.14 182.314 151.86C182.314 154.58 183.074 156.76 184.594 158.4C186.154 160 188.134 160.8 190.534 160.8ZM223.44 139.98C224.56 138.42 226.06 137.24 227.94 136.44C229.86 135.64 232.06 135.24 234.54 135.24V143.88C233.5 143.8 232.8 143.76 232.44 143.76C229.76 143.76 227.66 144.52 226.14 146.04C224.62 147.52 223.86 149.76 223.86 152.76V168H214.5V135.72H223.44V139.98ZM255.172 168.48C251.772 168.48 248.712 167.78 245.992 166.38C243.312 164.94 241.212 162.96 239.692 160.44C238.172 157.92 237.412 155.06 237.412 151.86C237.412 148.66 238.172 145.8 239.692 143.28C241.212 140.76 243.312 138.8 245.992 137.4C248.712 135.96 251.772 135.24 255.172 135.24C258.572 135.24 261.612 135.96 264.292 137.4C266.972 138.8 269.072 140.76 270.592 143.28C272.112 145.8 272.872 148.66 272.872 151.86C272.872 155.06 272.112 157.92 270.592 160.44C269.072 162.96 266.972 164.94 264.292 166.38C261.612 167.78 258.572 168.48 255.172 168.48ZM255.172 160.8C257.572 160.8 259.532 160 261.052 158.4C262.612 156.76 263.392 154.58 263.392 151.86C263.392 149.14 262.612 146.98 261.052 145.38C259.532 143.74 257.572 142.92 255.172 142.92C252.772 142.92 250.792 143.74 249.232 145.38C247.672 146.98 246.892 149.14 246.892 151.86C246.892 154.58 247.672 156.76 249.232 158.4C250.792 160 252.772 160.8 255.172 160.8ZM312.009 123.48V168H303.069V164.28C300.749 167.08 297.389 168.48 292.989 168.48C289.949 168.48 287.189 167.8 284.709 166.44C282.269 165.08 280.349 163.14 278.949 160.62C277.549 158.1 276.849 155.18 276.849 151.86C276.849 148.54 277.549 145.62 278.949 143.1C280.349 140.58 282.269 138.64 284.709 137.28C287.189 135.92 289.949 135.24 292.989 135.24C297.109 135.24 300.329 136.54 302.649 139.14V123.48H312.009ZM294.609 160.8C296.969 160.8 298.929 160 300.489 158.4C302.049 156.76 302.829 154.58 302.829 151.86C302.829 149.14 302.049 146.98 300.489 145.38C298.929 143.74 296.969 142.92 294.609 142.92C292.209 142.92 290.229 143.74 288.669 145.38C287.109 146.98 286.329 149.14 286.329 151.86C286.329 154.58 287.109 156.76 288.669 158.4C290.229 160 292.209 160.8 294.609 160.8ZM353.192 135.72V168H344.312V164.16C343.072 165.56 341.592 166.64 339.872 167.4C338.152 168.12 336.292 168.48 334.292 168.48C330.052 168.48 326.692 167.26 324.212 164.82C321.732 162.38 320.492 158.76 320.492 153.96V135.72H329.852V152.58C329.852 157.78 332.032 160.38 336.392 160.38C338.632 160.38 340.432 159.66 341.792 158.22C343.152 156.74 343.832 154.56 343.832 151.68V135.72H353.192ZM377.463 168.48C374.023 168.48 370.923 167.78 368.163 166.38C365.443 164.94 363.303 162.96 361.743 160.44C360.223 157.92 359.463 155.06 359.463 151.86C359.463 148.66 360.223 145.8 361.743 143.28C363.303 140.76 365.443 138.8 368.163 137.4C370.923 135.96 374.023 135.24 377.463 135.24C380.863 135.24 383.823 135.96 386.343 137.4C388.903 138.8 390.763 140.82 391.923 143.46L384.663 147.36C382.983 144.4 380.563 142.92 377.403 142.92C374.963 142.92 372.943 143.72 371.343 145.32C369.743 146.92 368.943 149.1 368.943 151.86C368.943 154.62 369.743 156.8 371.343 158.4C372.943 160 374.963 160.8 377.403 160.8C380.603 160.8 383.023 159.32 384.663 156.36L391.923 160.32C390.763 162.88 388.903 164.88 386.343 166.32C383.823 167.76 380.863 168.48 377.463 168.48ZM418.601 166.44C417.681 167.12 416.541 167.64 415.181 168C413.861 168.32 412.461 168.48 410.981 168.48C407.141 168.48 404.161 167.5 402.041 165.54C399.961 163.58 398.921 160.7 398.921 156.9V143.64H393.941V136.44H398.921V128.58H408.281V136.44H416.321V143.64H408.281V156.78C408.281 158.14 408.621 159.2 409.301 159.96C410.021 160.68 411.021 161.04 412.301 161.04C413.781 161.04 415.041 160.64 416.081 159.84L418.601 166.44ZM434.715 168.48C432.035 168.48 429.415 168.16 426.855 167.52C424.295 166.84 422.255 166 420.735 165L423.855 158.28C425.295 159.2 427.035 159.96 429.075 160.56C431.115 161.12 433.115 161.4 435.075 161.4C439.035 161.4 441.015 160.42 441.015 158.46C441.015 157.54 440.475 156.88 439.395 156.48C438.315 156.08 436.655 155.74 434.415 155.46C431.775 155.06 429.595 154.6 427.875 154.08C426.155 153.56 424.655 152.64 423.375 151.32C422.135 150 421.515 148.12 421.515 145.68C421.515 143.64 422.095 141.84 423.255 140.28C424.455 138.68 426.175 137.44 428.415 136.56C430.695 135.68 433.375 135.24 436.455 135.24C438.735 135.24 440.995 135.5 443.235 136.02C445.515 136.5 447.395 137.18 448.875 138.06L445.755 144.72C442.915 143.12 439.815 142.32 436.455 142.32C434.455 142.32 432.955 142.6 431.955 143.16C430.955 143.72 430.455 144.44 430.455 145.32C430.455 146.32 430.995 147.02 432.075 147.42C433.155 147.82 434.875 148.2 437.235 148.56C439.875 149 442.035 149.48 443.715 150C445.395 150.48 446.855 151.38 448.095 152.7C449.335 154.02 449.955 155.86 449.955 158.22C449.955 160.22 449.355 162 448.155 163.56C446.955 165.12 445.195 166.34 442.875 167.22C440.595 168.06 437.875 168.48 434.715 168.48ZM5.32 197.72H14.68V230H5.32V197.72ZM10 193.22C8.28 193.22 6.88 192.72 5.8 191.72C4.72 190.72 4.18 189.48 4.18 188C4.18 186.52 4.72 185.28 5.8 184.28C6.88 183.28 8.28 182.78 10 182.78C11.72 182.78 13.12 183.26 14.2 184.22C15.28 185.18 15.82 186.38 15.82 187.82C15.82 189.38 15.28 190.68 14.2 191.72C13.12 192.72 11.72 193.22 10 193.22ZM42.9869 197.24C46.9869 197.24 50.2069 198.44 52.6469 200.84C55.1269 203.24 56.3669 206.8 56.3669 211.52V230H47.0069V212.96C47.0069 210.4 46.4469 208.5 45.3269 207.26C44.2069 205.98 42.5869 205.34 40.4669 205.34C38.1069 205.34 36.2269 206.08 34.8269 207.56C33.4269 209 32.7269 211.16 32.7269 214.04V230H23.3669V197.72H32.3069V201.5C33.5469 200.14 35.0869 199.1 36.9269 198.38C38.7669 197.62 40.7869 197.24 42.9869 197.24ZM113.883 197.72L99.3034 231.98C97.8234 235.7 95.9834 238.32 93.7834 239.84C91.6234 241.36 89.0034 242.12 85.9234 242.12C84.2434 242.12 82.5834 241.86 80.9434 241.34C79.3034 240.82 77.9634 240.1 76.9234 239.18L80.3434 232.52C81.0634 233.16 81.8834 233.66 82.8034 234.02C83.7634 234.38 84.7034 234.56 85.6234 234.56C86.9034 234.56 87.9434 234.24 88.7434 233.6C89.5434 233 90.2634 231.98 90.9034 230.54L91.0234 230.24L77.0434 197.72H86.7034L95.7634 219.62L104.883 197.72H113.883ZM132.184 230.48C128.784 230.48 125.724 229.78 123.004 228.38C120.324 226.94 118.224 224.96 116.704 222.44C115.184 219.92 114.424 217.06 114.424 213.86C114.424 210.66 115.184 207.8 116.704 205.28C118.224 202.76 120.324 200.8 123.004 199.4C125.724 197.96 128.784 197.24 132.184 197.24C135.584 197.24 138.624 197.96 141.304 199.4C143.984 200.8 146.084 202.76 147.604 205.28C149.124 207.8 149.884 210.66 149.884 213.86C149.884 217.06 149.124 219.92 147.604 222.44C146.084 224.96 143.984 226.94 141.304 228.38C138.624 229.78 135.584 230.48 132.184 230.48ZM132.184 222.8C134.584 222.8 136.544 222 138.064 220.4C139.624 218.76 140.404 216.58 140.404 213.86C140.404 211.14 139.624 208.98 138.064 207.38C136.544 205.74 134.584 204.92 132.184 204.92C129.784 204.92 127.804 205.74 126.244 207.38C124.684 208.98 123.904 211.14 123.904 213.86C123.904 216.58 124.684 218.76 126.244 220.4C127.804 222 129.784 222.8 132.184 222.8ZM188.66 197.72V230H179.78V226.16C178.54 227.56 177.06 228.64 175.34 229.4C173.62 230.12 171.76 230.48 169.76 230.48C165.52 230.48 162.16 229.26 159.68 226.82C157.2 224.38 155.96 220.76 155.96 215.96V197.72H165.32V214.58C165.32 219.78 167.5 222.38 171.86 222.38C174.1 222.38 175.9 221.66 177.26 220.22C178.62 218.74 179.3 216.56 179.3 213.68V197.72H188.66ZM206.272 201.98C207.392 200.42 208.892 199.24 210.772 198.44C212.692 197.64 214.892 197.24 217.372 197.24V205.88C216.332 205.8 215.632 205.76 215.272 205.76C212.592 205.76 210.492 206.52 208.972 208.04C207.452 209.52 206.692 211.76 206.692 214.76V230H197.332V197.72H206.272V201.98ZM260.924 230.72C256.644 230.72 252.764 229.8 249.284 227.96C245.844 226.08 243.124 223.5 241.124 220.22C239.164 216.9 238.184 213.16 238.184 209C238.184 204.84 239.164 201.12 241.124 197.84C243.124 194.52 245.844 191.94 249.284 190.1C252.764 188.22 256.664 187.28 260.984 187.28C264.624 187.28 267.904 187.92 270.824 189.2C273.784 190.48 276.264 192.32 278.264 194.72L272.024 200.48C269.184 197.2 265.664 195.56 261.464 195.56C258.864 195.56 256.544 196.14 254.504 197.3C252.464 198.42 250.864 200 249.704 202.04C248.584 204.08 248.024 206.4 248.024 209C248.024 211.6 248.584 213.92 249.704 215.96C250.864 218 252.464 219.6 254.504 220.76C256.544 221.88 258.864 222.44 261.464 222.44C265.664 222.44 269.184 220.78 272.024 217.46L278.264 223.22C276.264 225.66 273.784 227.52 270.824 228.8C267.864 230.08 264.564 230.72 260.924 230.72ZM296.953 197.24C301.953 197.24 305.793 198.44 308.473 200.84C311.153 203.2 312.493 206.78 312.493 211.58V230H303.733V225.98C301.973 228.98 298.693 230.48 293.893 230.48C291.413 230.48 289.253 230.06 287.413 229.22C285.613 228.38 284.233 227.22 283.273 225.74C282.313 224.26 281.833 222.58 281.833 220.7C281.833 217.7 282.953 215.34 285.193 213.62C287.473 211.9 290.973 211.04 295.693 211.04H303.133C303.133 209 302.513 207.44 301.273 206.36C300.033 205.24 298.173 204.68 295.693 204.68C293.973 204.68 292.273 204.96 290.593 205.52C288.953 206.04 287.553 206.76 286.393 207.68L283.033 201.14C284.793 199.9 286.893 198.94 289.333 198.26C291.813 197.58 294.353 197.24 296.953 197.24ZM296.233 224.18C297.833 224.18 299.253 223.82 300.493 223.1C301.733 222.34 302.613 221.24 303.133 219.8V216.5H296.713C292.873 216.5 290.953 217.76 290.953 220.28C290.953 221.48 291.413 222.44 292.333 223.16C293.293 223.84 294.593 224.18 296.233 224.18ZM329.905 201.98C331.025 200.42 332.525 199.24 334.405 198.44C336.325 197.64 338.525 197.24 341.005 197.24V205.88C339.965 205.8 339.265 205.76 338.905 205.76C336.225 205.76 334.125 206.52 332.605 208.04C331.085 209.52 330.325 211.76 330.325 214.76V230H320.965V197.72H329.905V201.98ZM368.503 228.44C367.583 229.12 366.443 229.64 365.083 230C363.763 230.32 362.363 230.48 360.883 230.48C357.043 230.48 354.063 229.5 351.943 227.54C349.863 225.58 348.823 222.7 348.823 218.9V205.64H343.843V198.44H348.823V190.58H358.183V198.44H366.223V205.64H358.183V218.78C358.183 220.14 358.523 221.2 359.203 221.96C359.923 222.68 360.923 223.04 362.203 223.04C363.683 223.04 364.943 222.64 365.983 221.84L368.503 228.44Z" fill="#EB4343"/>
<path d="M521.452 97.5141C521.35 99.0826 521.147 102.22 522.626 103.883C524.003 107.115 523.902 108.683 525.279 111.915L526.656 115.147L527.931 119.947C545.124 172.941 555.286 236.535 552.242 283.59C549.198 330.644 506.972 419.433 466.47 481.558C464.789 483.032 464.586 486.169 464.484 487.737C464.281 490.874 465.658 494.106 467.137 495.77C468.616 497.433 471.674 499.191 474.834 499.381C477.995 499.571 482.836 498.287 484.619 495.245C540.617 438.775 594.571 364.861 599.644 286.437C604.717 208.012 587.017 162.861 558.562 112.34C555.807 105.876 552.952 100.981 548.516 95.9906C545.559 92.6638 539.644 86.0102 536.484 85.8204C527.105 83.6825 521.858 91.2402 521.452 97.5141Z" fill="#FF8E2E"/>
<path d="M492.908 29.0474C488.163 28.8565 483.348 30.2358 480.114 31.6786C478.463 33.1851 476.741 36.2615 475.089 37.768C471.646 43.921 471.226 53.3414 470.737 64.3318C470.387 72.1821 469.968 81.6024 472.712 91.15L475.455 100.698L476.827 105.471C479.711 111.879 482.665 116.716 485.549 123.124C488.572 126.391 491.596 129.658 496.341 129.849C499.505 129.976 502.738 128.534 504.39 127.027C506.042 125.521 507.763 122.444 507.833 120.874L507.903 119.304C506.531 114.53 506.811 108.25 505.579 100.336C505.859 94.0559 504.627 86.142 504.836 81.4318C505.046 76.7216 505.186 73.5815 506.908 70.505C506.978 68.9349 506.978 68.935 508.629 67.4285C508.629 67.4285 510.211 67.4921 511.793 67.5558C516.538 67.7466 525.959 69.6983 535.309 73.2201C544.66 76.7419 554.011 80.2637 558.686 82.0246C560.268 82.0882 561.78 83.7218 563.362 83.7854C566.525 83.9127 568.177 82.4062 571.41 80.9634C574.644 79.5205 574.784 76.3804 574.854 74.8104C574.993 71.6703 573.551 68.4665 572.04 66.8329C552.526 42.455 519.658 33.2689 500.677 32.5056L492.908 29.0474Z" fill="#FF8E2E"/>
<path d="M501.333 809.667C512.011 809.667 520.667 801.011 520.667 790.333C520.667 779.656 512.011 771 501.333 771C490.656 771 482 779.656 482 790.333C482 801.011 490.656 809.667 501.333 809.667Z" stroke="#FF8E2E" stroke-width="10" stroke-linecap="round" stroke-linejoin="round"/>
<path d="M615.333 809.667C626.011 809.667 634.667 801.011 634.667 790.333C634.667 779.656 626.011 771 615.333 771C604.656 771 596 779.656 596 790.333C596 801.011 604.656 809.667 615.333 809.667Z" stroke="#FF8E2E" stroke-width="10" stroke-linecap="round" stroke-linejoin="round"/>
<path d="M644.333 657L628.093 738.103C627.209 742.554 624.788 746.552 621.254 749.397C617.719 752.242 613.296 753.754 608.76 753.667H506.583C501.863 753.707 497.291 752.018 493.729 748.92C490.168 745.822 487.863 741.527 487.25 736.847L472.557 625.487C471.947 620.839 469.67 616.572 466.149 613.477C462.629 610.383 458.104 608.674 453.417 608.667H431.667" stroke="#FF8E2E" stroke-width="10" stroke-linecap="round" stroke-linejoin="round"/>
<path d="M572.513 737.687H607.353C609.298 737.687 611.164 736.915 612.539 735.539C613.915 734.164 614.688 732.298 614.688 730.353V646.004H530.339V668.008" stroke="#FF8E2E" stroke-width="8" stroke-linejoin="round"/>
<path d="M594.517 664.341V631.335C594.517 629.389 593.745 627.524 592.369 626.148C590.994 624.773 589.128 624 587.183 624H557.844C555.899 624 554.033 624.773 552.658 626.148C551.282 627.524 550.509 629.389 550.509 631.335V664.341" stroke="#FF8E2E" stroke-width="8" stroke-linejoin="round"/>
<path d="M530.339 657.006H614.688" stroke="#FF8E2E" stroke-width="8" stroke-linejoin="round"/>
<path d="M546.842 668.008C546.842 667.035 547.228 666.103 547.916 665.415C548.604 664.727 549.536 664.341 550.509 664.341C551.482 664.341 552.415 664.727 553.102 665.415C553.79 666.103 554.176 667.035 554.176 668.008" stroke="#FF8E2E" stroke-width="8" stroke-linejoin="round"/>
<path d="M594.517 671.675C596.542 671.675 598.184 670.033 598.184 668.008C598.184 665.983 596.542 664.341 594.517 664.341C592.492 664.341 590.85 665.983 590.85 668.008C590.85 670.033 592.492 671.675 594.517 671.675Z" stroke="#FF8E2E" stroke-width="8" stroke-linejoin="round"/>
<path d="M574.347 686.345H501V697.347H574.347V686.345Z" stroke="#FF8E2E" stroke-width="8" stroke-linejoin="round"/>
<path d="M506.501 697.347V734.02C506.501 734.993 506.887 735.926 507.575 736.613C508.263 737.301 509.196 737.687 510.168 737.687H565.178C566.151 737.687 567.084 737.301 567.772 736.613C568.459 735.926 568.846 734.993 568.846 734.02V697.347" stroke="#FF8E2E" stroke-width="8" stroke-linejoin="round"/>
<path d="M526.671 686.345V697.347" stroke="#FF8E2E" stroke-width="8" stroke-linejoin="round"/>
<path d="M548.675 686.345V697.347" stroke="#FF8E2E" stroke-width="8" stroke-linejoin="round"/>
<path d="M545.008 697.347V737.687" stroke="#FF8E2E" stroke-width="8" stroke-linejoin="round"/>
<path d="M530.339 697.347V737.687" stroke="#FF8E2E" stroke-width="8" stroke-linejoin="round"/>
<path d="M506.501 704.681H524.838" stroke="#FF8E2E" stroke-width="8" stroke-linejoin="round"/>
<path d="M550.509 704.681H568.846" stroke="#FF8E2E" stroke-width="8" stroke-linejoin="round"/>
<path d="M537.674 686.345V679.01C537.689 678.283 537.557 677.561 537.286 676.887C537.015 676.212 536.611 675.6 536.097 675.086C535.583 674.572 534.97 674.167 534.296 673.896C533.622 673.625 532.899 673.494 532.173 673.509H519.337C519.337 673.509 521.171 686.345 537.674 686.345Z" stroke="#FF8E2E" stroke-width="8" stroke-linejoin="round"/>
<path d="M537.674 686.345V679.01C537.658 678.283 537.79 677.561 538.061 676.887C538.332 676.212 538.736 675.6 539.25 675.086C539.764 674.572 540.377 674.167 541.051 673.896C541.726 673.625 542.448 673.494 543.175 673.509H556.01C556.01 673.509 554.177 686.345 537.674 686.345Z" stroke="#FF8E2E" stroke-width="8" stroke-linejoin="round"/>
<path d="M607.353 721.184V726.685C607.363 727.17 607.275 727.651 607.095 728.101C606.914 728.551 606.644 728.959 606.302 729.302C605.959 729.644 605.551 729.914 605.101 730.095C604.651 730.275 604.17 730.363 603.686 730.353H598.185" stroke="#FF8E2E" stroke-width="8" stroke-linejoin="round"/>
<path d="M561.511 723.018V730.353H554.176" stroke="#FF8E2E" stroke-width="8" stroke-linejoin="round"/>
<path d="M286.98 522H296.7V556.08H317.76V564H286.98V522ZM353.917 547.98C353.917 548.1 353.857 548.94 353.737 550.5H329.317C329.757 552.5 330.797 554.08 332.437 555.24C334.077 556.4 336.117 556.98 338.557 556.98C340.237 556.98 341.717 556.74 342.997 556.26C344.317 555.74 345.537 554.94 346.657 553.86L351.637 559.26C348.597 562.74 344.157 564.48 338.317 564.48C334.677 564.48 331.457 563.78 328.657 562.38C325.857 560.94 323.697 558.96 322.177 556.44C320.657 553.92 319.897 551.06 319.897 547.86C319.897 544.7 320.637 541.86 322.117 539.34C323.637 536.78 325.697 534.8 328.297 533.4C330.937 531.96 333.877 531.24 337.117 531.24C340.277 531.24 343.137 531.92 345.697 533.28C348.257 534.64 350.257 536.6 351.697 539.16C353.177 541.68 353.917 544.62 353.917 547.98ZM337.177 538.32C335.057 538.32 333.277 538.92 331.837 540.12C330.397 541.32 329.517 542.96 329.197 545.04H345.097C344.777 543 343.897 541.38 342.457 540.18C341.017 538.94 339.257 538.32 337.177 538.32ZM380.968 562.44C380.048 563.12 378.908 563.64 377.548 564C376.228 564.32 374.828 564.48 373.348 564.48C369.508 564.48 366.528 563.5 364.408 561.54C362.328 559.58 361.288 556.7 361.288 552.9V539.64H356.308V532.44H361.288V524.58H370.648V532.44H378.688V539.64H370.648V552.78C370.648 554.14 370.988 555.2 371.668 555.96C372.388 556.68 373.388 557.04 374.668 557.04C376.148 557.04 377.408 556.64 378.448 555.84L380.968 562.44ZM389.822 519C391.502 519 392.882 519.54 393.962 520.62C395.042 521.66 395.582 523.04 395.582 524.76C395.582 525.56 395.482 526.36 395.282 527.16C395.082 527.96 394.662 529.16 394.022 530.76L390.542 539.4H384.602L387.182 529.92C386.182 529.48 385.402 528.82 384.842 527.94C384.282 527.06 384.002 526 384.002 524.76C384.002 523.04 384.542 521.66 385.622 520.62C386.742 519.54 388.142 519 389.822 519ZM411.731 564.48C409.051 564.48 406.431 564.16 403.871 563.52C401.311 562.84 399.271 562 397.751 561L400.871 554.28C402.311 555.2 404.051 555.96 406.091 556.56C408.131 557.12 410.131 557.4 412.091 557.4C416.051 557.4 418.031 556.42 418.031 554.46C418.031 553.54 417.491 552.88 416.411 552.48C415.331 552.08 413.671 551.74 411.431 551.46C408.791 551.06 406.611 550.6 404.891 550.08C403.171 549.56 401.671 548.64 400.391 547.32C399.151 546 398.531 544.12 398.531 541.68C398.531 539.64 399.111 537.84 400.271 536.28C401.471 534.68 403.191 533.44 405.431 532.56C407.711 531.68 410.391 531.24 413.471 531.24C415.751 531.24 418.011 531.5 420.251 532.02C422.531 532.5 424.411 533.18 425.891 534.06L422.771 540.72C419.931 539.12 416.831 538.32 413.471 538.32C411.471 538.32 409.971 538.6 408.971 539.16C407.971 539.72 407.471 540.44 407.471 541.32C407.471 542.32 408.011 543.02 409.091 543.42C410.171 543.82 411.891 544.2 414.251 544.56C416.891 545 419.051 545.48 420.731 546C422.411 546.48 423.871 547.38 425.111 548.7C426.351 550.02 426.971 551.86 426.971 554.22C426.971 556.22 426.371 558 425.171 559.56C423.971 561.12 422.211 562.34 419.891 563.22C417.611 564.06 414.891 564.48 411.731 564.48ZM465.338 564.48C461.898 564.48 458.798 563.78 456.038 562.38C453.318 560.94 451.178 558.96 449.618 556.44C448.098 553.92 447.338 551.06 447.338 547.86C447.338 544.66 448.098 541.8 449.618 539.28C451.178 536.76 453.318 534.8 456.038 533.4C458.798 531.96 461.898 531.24 465.338 531.24C468.738 531.24 471.698 531.96 474.218 533.4C476.778 534.8 478.638 536.82 479.798 539.46L472.538 543.36C470.858 540.4 468.438 538.92 465.278 538.92C462.838 538.92 460.818 539.72 459.218 541.32C457.618 542.92 456.818 545.1 456.818 547.86C456.818 550.62 457.618 552.8 459.218 554.4C460.818 556 462.838 556.8 465.278 556.8C468.478 556.8 470.898 555.32 472.538 552.36L479.798 556.32C478.638 558.88 476.778 560.88 474.218 562.32C471.698 563.76 468.738 564.48 465.338 564.48ZM504.573 531.24C508.573 531.24 511.793 532.44 514.233 534.84C516.713 537.24 517.953 540.8 517.953 545.52V564H508.593V546.96C508.593 544.4 508.033 542.5 506.913 541.26C505.793 539.98 504.173 539.34 502.053 539.34C499.693 539.34 497.813 540.08 496.413 541.56C495.013 543 494.313 545.16 494.313 548.04V564H484.953V519.48H494.313V535.08C495.553 533.84 497.053 532.9 498.813 532.26C500.573 531.58 502.493 531.24 504.573 531.24ZM539.457 531.24C544.457 531.24 548.297 532.44 550.977 534.84C553.657 537.2 554.997 540.78 554.997 545.58V564H546.237V559.98C544.477 562.98 541.197 564.48 536.397 564.48C533.917 564.48 531.757 564.06 529.917 563.22C528.117 562.38 526.737 561.22 525.777 559.74C524.817 558.26 524.337 556.58 524.337 554.7C524.337 551.7 525.457 549.34 527.697 547.62C529.977 545.9 533.477 545.04 538.197 545.04H545.637C545.637 543 545.017 541.44 543.777 540.36C542.537 539.24 540.677 538.68 538.197 538.68C536.477 538.68 534.777 538.96 533.097 539.52C531.457 540.04 530.057 540.76 528.897 541.68L525.537 535.14C527.297 533.9 529.397 532.94 531.837 532.26C534.317 531.58 536.857 531.24 539.457 531.24ZM538.737 558.18C540.337 558.18 541.757 557.82 542.997 557.1C544.237 556.34 545.117 555.24 545.637 553.8V550.5H539.217C535.377 550.5 533.457 551.76 533.457 554.28C533.457 555.48 533.917 556.44 534.837 557.16C535.797 557.84 537.097 558.18 538.737 558.18ZM583.088 531.24C587.088 531.24 590.308 532.44 592.748 534.84C595.228 537.24 596.468 540.8 596.468 545.52V564H587.108V546.96C587.108 544.4 586.548 542.5 585.428 541.26C584.308 539.98 582.688 539.34 580.568 539.34C578.208 539.34 576.328 540.08 574.928 541.56C573.528 543 572.828 545.16 572.828 548.04V564H563.468V531.72H572.408V535.5C573.648 534.14 575.188 533.1 577.028 532.38C578.868 531.62 580.888 531.24 583.088 531.24ZM638.604 531.72V558.6C638.604 564.52 637.064 568.92 633.984 571.8C630.904 574.68 626.404 576.12 620.484 576.12C617.364 576.12 614.404 575.74 611.604 574.98C608.804 574.22 606.484 573.12 604.644 571.68L608.364 564.96C609.724 566.08 611.444 566.96 613.524 567.6C615.604 568.28 617.684 568.62 619.764 568.62C623.004 568.62 625.384 567.88 626.904 566.4C628.464 564.96 629.244 562.76 629.244 559.8V558.42C626.804 561.1 623.404 562.44 619.044 562.44C616.084 562.44 613.364 561.8 610.884 560.52C608.444 559.2 606.504 557.36 605.064 555C603.624 552.64 602.904 549.92 602.904 546.84C602.904 543.76 603.624 541.04 605.064 538.68C606.504 536.32 608.444 534.5 610.884 533.22C613.364 531.9 616.084 531.24 619.044 531.24C623.724 531.24 627.284 532.78 629.724 535.86V531.72H638.604ZM620.904 554.76C623.384 554.76 625.404 554.04 626.964 552.6C628.564 551.12 629.364 549.2 629.364 546.84C629.364 544.48 628.564 542.58 626.964 541.14C625.404 539.66 623.384 538.92 620.904 538.92C618.424 538.92 616.384 539.66 614.784 541.14C613.184 542.58 612.384 544.48 612.384 546.84C612.384 549.2 613.184 551.12 614.784 552.6C616.384 554.04 618.424 554.76 620.904 554.76ZM678.936 547.98C678.936 548.1 678.876 548.94 678.756 550.5H654.336C654.776 552.5 655.816 554.08 657.456 555.24C659.096 556.4 661.136 556.98 663.576 556.98C665.256 556.98 666.736 556.74 668.016 556.26C669.336 555.74 670.556 554.94 671.676 553.86L676.656 559.26C673.616 562.74 669.176 564.48 663.336 564.48C659.696 564.48 656.476 563.78 653.676 562.38C650.876 560.94 648.716 558.96 647.196 556.44C645.676 553.92 644.916 551.06 644.916 547.86C644.916 544.7 645.656 541.86 647.136 539.34C648.656 536.78 650.716 534.8 653.316 533.4C655.956 531.96 658.896 531.24 662.136 531.24C665.296 531.24 668.156 531.92 670.716 533.28C673.276 534.64 675.276 536.6 676.716 539.16C678.196 541.68 678.936 544.62 678.936 547.98ZM662.196 538.32C660.076 538.32 658.296 538.92 656.856 540.12C655.416 541.32 654.536 542.96 654.216 545.04H670.116C669.796 543 668.916 541.38 667.476 540.18C666.036 538.94 664.276 538.32 662.196 538.32ZM307.14 624.44C306.22 625.12 305.08 625.64 303.72 626C302.4 626.32 301 626.48 299.52 626.48C295.68 626.48 292.7 625.5 290.58 623.54C288.5 621.58 287.46 618.7 287.46 614.9V601.64H282.48V594.44H287.46V586.58H296.82V594.44H304.86V601.64H296.82V614.78C296.82 616.14 297.16 617.2 297.84 617.96C298.56 618.68 299.56 619.04 300.84 619.04C302.32 619.04 303.58 618.64 304.62 617.84L307.14 624.44ZM332.014 593.24C336.014 593.24 339.234 594.44 341.674 596.84C344.154 599.24 345.394 602.8 345.394 607.52V626H336.034V608.96C336.034 606.4 335.474 604.5 334.354 603.26C333.234 601.98 331.614 601.34 329.494 601.34C327.134 601.34 325.254 602.08 323.854 603.56C322.454 605 321.754 607.16 321.754 610.04V626H312.394V581.48H321.754V597.08C322.994 595.84 324.494 594.9 326.254 594.26C328.014 593.58 329.934 593.24 332.014 593.24ZM366.899 593.24C371.899 593.24 375.739 594.44 378.419 596.84C381.099 599.2 382.439 602.78 382.439 607.58V626H373.679V621.98C371.919 624.98 368.639 626.48 363.839 626.48C361.359 626.48 359.199 626.06 357.359 625.22C355.559 624.38 354.179 623.22 353.219 621.74C352.259 620.26 351.779 618.58 351.779 616.7C351.779 613.7 352.899 611.34 355.139 609.62C357.419 607.9 360.919 607.04 365.639 607.04H373.079C373.079 605 372.459 603.44 371.219 602.36C369.979 601.24 368.119 600.68 365.639 600.68C363.919 600.68 362.219 600.96 360.539 601.52C358.899 602.04 357.499 602.76 356.339 603.68L352.979 597.14C354.739 595.9 356.839 594.94 359.279 594.26C361.759 593.58 364.299 593.24 366.899 593.24ZM366.179 620.18C367.779 620.18 369.199 619.82 370.439 619.1C371.679 618.34 372.559 617.24 373.079 615.8V612.5H366.659C362.819 612.5 360.899 613.76 360.899 616.28C360.899 617.48 361.359 618.44 362.279 619.16C363.239 619.84 364.539 620.18 366.179 620.18ZM411.73 624.44C410.81 625.12 409.67 625.64 408.31 626C406.99 626.32 405.59 626.48 404.11 626.48C400.27 626.48 397.29 625.5 395.17 623.54C393.09 621.58 392.05 618.7 392.05 614.9V601.64H387.07V594.44H392.05V586.58H401.41V594.44H409.45V601.64H401.41V614.78C401.41 616.14 401.75 617.2 402.43 617.96C403.15 618.68 404.15 619.04 405.43 619.04C406.91 619.04 408.17 618.64 409.21 617.84L411.73 624.44Z" fill="#333333"/>
</svg>
