<svg width="60" height="60" viewBox="0 0 60 60" fill="none" xmlns="http://www.w3.org/2000/svg">
<path d="M54 1.2H6.00001C3.36001 1.2 1.20001 3.36 1.20001 6V54C1.20001 56.64 3.36001 58.8 6.00001 58.8H54C56.64 58.8 58.8 56.64 58.8 54V6C58.8 3.36 56.64 1.2 54 1.2Z" fill="#FF8E2E"/>
<path d="M49.0986 47.1147C49.0514 46.9541 48.9571 46.6328 48.7493 46.5194C48.4943 46.2453 48.4471 46.0847 48.1922 45.8106L47.9372 45.5365L47.635 45.1018C43.9902 40.4144 40.6577 34.414 39.2425 29.5952C37.8273 24.7765 38.7857 14.3752 40.546 6.70462C40.6594 6.49682 40.5651 6.17557 40.5179 6.01495C40.4235 5.6937 40.1686 5.41962 39.9608 5.30617C39.753 5.19272 39.3846 5.12644 39.0633 5.22078C38.7421 5.31513 38.3074 5.61727 38.2411 5.98569C34.733 13.6461 32.0651 22.9791 34.4237 31.0104C36.7824 39.0416 40.1913 42.9259 44.8662 46.9618C45.3761 47.51 45.8389 47.8975 46.4623 48.2379C46.8779 48.4648 47.7091 48.9186 48.0303 48.8242C49.0413 48.7018 49.2873 47.7572 49.0986 47.1147Z" fill="white"/>
<path d="M52.7914 18.0264C52.6252 18.0471 52.293 18.0886 52.1476 18.2754C51.8361 18.483 51.6699 18.5037 51.3584 18.7112L51.0469 18.9188L50.5692 19.147C45.3565 21.9903 38.8981 24.314 33.9144 24.9354C28.9307 25.5569 18.8192 22.9376 11.5317 19.9661C11.3449 19.8207 11.0126 19.8622 10.8465 19.8829C10.5143 19.9243 10.2027 20.1319 10.0573 20.3187C9.91192 20.5055 9.78723 20.8585 9.82866 21.1907C9.8701 21.523 10.0984 22.0006 10.4513 22.1253C17.4476 26.8202 26.2297 30.9549 34.5359 29.9191C42.842 28.8833 47.2241 26.1437 51.9596 22.1791C52.5826 21.764 53.0395 21.3696 53.4758 20.8091C53.7666 20.4354 54.3482 19.688 54.3068 19.3558C54.3486 18.3383 53.4558 17.9436 52.7914 18.0264Z" fill="white"/>
<path d="M25.2976 45.9373C25.3454 45.7769 25.441 45.456 25.3284 45.2477C25.2636 44.8791 25.3114 44.7186 25.2466 44.3499L25.1818 43.9813L25.1647 43.4521C24.6567 37.5362 25.1251 30.6885 26.5593 25.8753C27.9935 21.0622 34.4564 12.8564 40.1066 7.37806C40.3148 7.26543 40.4104 6.94455 40.4582 6.78412C40.5538 6.46324 40.489 6.09456 40.3764 5.88632C40.2638 5.67807 39.9907 5.42202 39.6698 5.3264C39.3489 5.23079 38.8198 5.24781 38.5638 5.52087C31.4527 10.0398 24.1365 16.4192 21.7462 24.4411C19.3558 32.463 20.1029 37.5767 21.8296 43.5064C21.9592 44.2438 22.1367 44.8207 22.4746 45.4455C22.6998 45.8619 23.1503 46.6949 23.4712 46.7905C24.386 47.2378 25.1064 46.5791 25.2976 45.9373Z" fill="white"/>
<path d="M6.27904 14.7496C5.77696 14.7617 5.27892 14.9412 4.94824 15.1166C4.78492 15.288 4.62563 15.6268 4.46231 15.7982C4.14374 16.4757 4.16797 17.4798 4.19624 18.6514C4.21643 19.4882 4.24066 20.4923 4.59961 21.4884L4.95857 22.4845L5.13804 22.9825C5.48891 23.6439 5.83575 24.1379 6.18662 24.7993C6.52942 25.1259 6.87222 25.4525 7.3743 25.4404C7.70902 25.4324 8.0397 25.2569 8.20302 25.0855C8.36634 24.9141 8.52563 24.5754 8.52159 24.408L8.51755 24.2406C8.33807 23.7426 8.32192 23.0732 8.13437 22.2404C8.11821 21.571 7.93066 20.7382 7.91855 20.2361C7.90643 19.734 7.89835 19.3993 8.05764 19.0606C8.0536 18.8932 8.0536 18.8932 8.21692 18.7218C8.21692 18.7218 8.38428 18.7178 8.55164 18.7137C9.05372 18.7016 10.0619 18.8447 11.0742 19.1552C12.0864 19.4657 13.0986 19.7762 13.6047 19.9315C13.7721 19.9274 13.9435 20.0907 14.1109 20.0867C14.4456 20.0786 14.6089 19.9072 14.9396 19.7318C15.2703 19.5563 15.2622 19.2216 15.2582 19.0543C15.2501 18.7195 15.0746 18.3889 14.9032 18.2255C12.667 15.7676 9.13224 15.0156 7.12392 15.0641L6.27904 14.7496Z" fill="white"/>
<path d="M53.86 53.3687C54.3537 53.2762 54.8165 53.0191 55.1147 52.7929C55.2484 52.5975 55.3513 52.2376 55.485 52.0422C55.6907 51.3223 55.5056 50.3351 55.2897 49.1833C55.1355 48.3606 54.9505 47.3733 54.4363 46.4477L53.9222 45.5222L53.6651 45.0594C53.2127 44.4629 52.7911 44.0309 52.3386 43.4345C51.9478 43.167 51.5571 42.8996 51.0634 42.9922C50.7343 43.0539 50.4361 43.2801 50.3024 43.4755C50.1687 43.6709 50.0658 44.0308 50.0967 44.1953L50.1275 44.3599C50.3846 44.8227 50.508 45.4808 50.8267 46.2727C50.9501 46.9309 51.2688 47.7228 51.3614 48.2164C51.4539 48.71 51.5156 49.0391 51.4127 49.399C51.4436 49.5636 51.4436 49.5636 51.3099 49.7589C51.3099 49.7589 51.1453 49.7898 50.9808 49.8206C50.4871 49.9132 49.469 49.9337 48.4201 49.7896C47.3712 49.6456 46.3222 49.5016 45.7977 49.4296C45.6332 49.4604 45.4378 49.3267 45.2733 49.3575C44.9442 49.4192 44.8105 49.6146 44.5122 49.8408C44.214 50.0671 44.2757 50.3961 44.3065 50.5607C44.3682 50.8898 44.5944 51.188 44.7898 51.3217C47.3915 53.3889 51.0011 53.564 52.9756 53.1938L53.86 53.3687Z" fill="white"/>
<path d="M26.6061 53.7326C27.0902 53.8664 27.6189 53.8388 27.9862 53.7667C28.1921 53.6499 28.4427 53.3718 28.6486 53.255C29.1498 52.6988 29.4173 51.7307 29.7295 50.6011C29.9525 49.7943 30.2201 48.8262 30.165 47.7688L30.1099 46.7115L30.0823 46.1828C29.938 45.4482 29.7491 44.8749 29.6047 44.1403C29.3712 43.7284 29.1377 43.3165 28.6536 43.1827C28.3309 43.0935 27.9636 43.1656 27.7576 43.2824C27.5517 43.3991 27.3011 43.6773 27.2565 43.8386L27.2119 44C27.2395 44.5287 27.0611 45.1741 26.9995 46.0255C26.8211 46.6709 26.7594 47.5223 26.6256 48.0064C26.4918 48.4905 26.4026 48.8132 26.1521 49.0913C26.1075 49.2527 26.1075 49.2527 25.9015 49.3694C25.9015 49.3694 25.7402 49.3248 25.5788 49.2802C25.0947 49.1464 24.1712 48.7175 23.2922 48.1272C22.4133 47.5369 21.5343 46.9465 21.0948 46.6514C20.9335 46.6068 20.8167 46.4008 20.6554 46.3562C20.3326 46.267 20.1267 46.3838 19.7594 46.456C19.392 46.5281 19.3028 46.8508 19.2583 47.0122C19.1691 47.3349 19.2412 47.7022 19.358 47.9082C20.7867 50.9084 23.9522 52.6517 25.8885 53.1869L26.6061 53.7326Z" fill="white"/>
</svg>
