<svg width="161" height="38" viewBox="0 0 161 38" fill="none" xmlns="http://www.w3.org/2000/svg">
<g clip-path="url(#clip0)">
<path d="M29.1111 29.0814C29.0809 28.9793 29.0204 28.7751 28.8872 28.703C28.7237 28.5288 28.6934 28.4267 28.53 28.2525L28.3665 28.0783L28.1728 27.802C25.8359 24.8228 23.6993 21.0091 22.7919 17.9465C21.8846 14.8838 22.499 8.2731 23.6275 3.3979C23.7003 3.26583 23.6398 3.06165 23.6095 2.95956C23.549 2.75539 23.3856 2.58119 23.2523 2.50908C23.1191 2.43697 22.8829 2.39485 22.6769 2.45481C22.471 2.51477 22.1923 2.7068 22.1498 2.94096C19.9007 7.8097 18.1902 13.7415 19.7024 18.8459C21.2147 23.9503 23.4003 26.4191 26.3976 28.9842C26.7245 29.3326 27.0212 29.5789 27.4209 29.7952C27.6874 29.9394 28.2203 30.2279 28.4262 30.1679C29.0744 30.0901 29.2321 29.4897 29.1111 29.0814Z" fill="#FF8E2E"/>
<path d="M31.4786 10.5937C31.3721 10.6069 31.1591 10.6332 31.0659 10.752C30.8662 10.8839 30.7597 10.8971 30.5599 11.029L30.3602 11.1609L30.0539 11.306C26.7118 13.113 22.5711 14.5899 19.3758 14.9849C16.1806 15.3799 9.6976 13.715 5.02527 11.8264C4.90548 11.734 4.69246 11.7603 4.58595 11.7735C4.37294 11.7998 4.1732 11.9317 4.07998 12.0505C3.98675 12.1692 3.90681 12.3935 3.93337 12.6047C3.95994 12.8159 4.1063 13.1195 4.33259 13.1987C8.81823 16.1827 14.4489 18.8107 19.7743 18.1524C25.0997 17.4941 27.9093 15.7529 30.9454 13.2331C31.3448 12.9693 31.6378 12.7186 31.9175 12.3623C32.1039 12.1248 32.4768 11.6498 32.4503 11.4387C32.4771 10.792 31.9047 10.5411 31.4786 10.5937Z" fill="#FF8E2E"/>
<path d="M13.8513 28.333C13.882 28.231 13.9433 28.0271 13.871 27.8947C13.8295 27.6604 13.8601 27.5584 13.8186 27.3241L13.777 27.0898L13.7661 26.7535C13.4403 22.9935 13.7406 18.6413 14.6601 15.5822C15.5797 12.5232 19.7233 7.30783 23.3459 3.82598C23.4794 3.75439 23.5407 3.55045 23.5714 3.44849C23.6327 3.24455 23.5911 3.01022 23.5189 2.87787C23.4467 2.74551 23.2716 2.58277 23.0659 2.522C22.8601 2.46123 22.5209 2.47204 22.3567 2.6456C17.7974 5.51769 13.1067 9.5722 11.5742 14.6707C10.0416 19.7691 10.5206 23.0192 11.6277 26.788C11.7109 27.2566 11.8246 27.6233 12.0413 28.0204C12.1857 28.2851 12.4746 28.8145 12.6803 28.8753C13.2668 29.1596 13.7287 28.7409 13.8513 28.333Z" fill="#FF8E2E"/>
<path d="M1.65751 8.51099C1.33561 8.51869 1.0163 8.63276 0.804284 8.74426C0.699573 8.8532 0.59745 9.0685 0.492739 9.17744C0.288496 9.60805 0.304037 10.2463 0.322167 10.9909C0.335117 11.5227 0.350656 12.1609 0.580798 12.794L0.810941 13.4271L0.926013 13.7436C1.15098 14.164 1.37335 14.478 1.59831 14.8983C1.81809 15.1059 2.03788 15.3135 2.35978 15.3058C2.57438 15.3007 2.78639 15.1892 2.89111 15.0803C2.99582 14.9713 3.09794 14.756 3.09535 14.6497L3.09276 14.5433C2.97769 14.2267 2.96733 13.8013 2.84708 13.272C2.83672 12.8465 2.71647 12.3172 2.7087 11.9981C2.70093 11.679 2.69575 11.4663 2.79787 11.2509C2.79528 11.1446 2.79528 11.1446 2.89999 11.0356C2.89999 11.0356 3.00729 11.0331 3.11459 11.0305C3.43649 11.0228 4.08289 11.1138 4.73188 11.3111C5.38087 11.5085 6.02986 11.7058 6.35435 11.8045C6.46165 11.8019 6.57154 11.9057 6.67884 11.9032C6.89345 11.898 6.99816 11.7891 7.21017 11.6776C7.42218 11.5661 7.417 11.3534 7.41441 11.247C7.40923 11.0342 7.29675 10.8241 7.18686 10.7203C5.75309 9.15808 3.48682 8.68011 2.1992 8.71091L1.65751 8.51099Z" fill="#FF8E2E"/>
<path d="M32.1639 33.0562C32.4804 32.9974 32.7771 32.834 32.9683 32.6903C33.054 32.5661 33.12 32.3373 33.2057 32.2131C33.3376 31.7556 33.2189 31.1281 33.0805 30.3961C32.9816 29.8732 32.863 29.2457 32.5333 28.6574L32.2037 28.0692L32.0389 27.775C31.7488 27.3959 31.4785 27.1214 31.1884 26.7423C30.9378 26.5723 30.6873 26.4024 30.3708 26.4612C30.1598 26.5004 29.9686 26.6442 29.8829 26.7683C29.7972 26.8925 29.7312 27.1213 29.751 27.2259L29.7708 27.3304C29.9356 27.6246 30.0147 28.0429 30.2191 28.5462C30.2982 28.9645 30.5025 29.4678 30.5619 29.7815C30.6212 30.0953 30.6607 30.3044 30.5948 30.5332C30.6146 30.6378 30.6146 30.6378 30.5288 30.762C30.5288 30.762 30.4234 30.7816 30.3179 30.8012C30.0014 30.86 29.3486 30.873 28.6761 30.7814C28.0036 30.6899 27.3311 30.5983 26.9948 30.5526C26.8893 30.5722 26.764 30.4872 26.6585 30.5068C26.4475 30.546 26.3618 30.6702 26.1706 30.814C25.9794 30.9577 26.0189 31.1669 26.0387 31.2715C26.0783 31.4806 26.2233 31.6702 26.3486 31.7552C28.0166 33.069 30.3309 33.1803 31.5969 32.9451L32.1639 33.0562Z" fill="#FF8E2E"/>
<path d="M14.6902 33.2875C15.0005 33.3725 15.3395 33.355 15.575 33.3091C15.707 33.2349 15.8677 33.0582 15.9997 32.984C16.321 32.6304 16.4926 32.0151 16.6927 31.2972C16.8357 30.7845 17.0073 30.1691 16.9719 29.4971L16.9366 28.8251L16.9189 28.4891C16.8264 28.0222 16.7052 27.6578 16.6127 27.1909C16.463 26.9291 16.3132 26.6673 16.0029 26.5823C15.796 26.5256 15.5605 26.5715 15.4284 26.6457C15.2964 26.7199 15.1357 26.8966 15.1071 26.9992L15.0785 27.1017C15.0962 27.4377 14.9818 27.848 14.9423 28.3891C14.828 28.7993 14.7884 29.3404 14.7027 29.6481C14.6169 29.9557 14.5597 30.1608 14.399 30.3376C14.3705 30.4402 14.3705 30.4402 14.2384 30.5144C14.2384 30.5144 14.135 30.486 14.0315 30.4577C13.7211 30.3726 13.129 30.1 12.5655 29.7248C12.0019 29.3496 11.4384 28.9745 11.1566 28.7869C11.0531 28.7585 10.9783 28.6276 10.8748 28.5993C10.6679 28.5426 10.5359 28.6168 10.3004 28.6627C10.0649 28.7085 10.0077 28.9136 9.97908 29.0162C9.92189 29.2213 9.96816 29.4547 10.043 29.5856C10.959 31.4924 12.9886 32.6005 14.2301 32.9406L14.6902 33.2875Z" fill="#FF8E2E"/>
<path d="M55.9022 13.8133C57.9222 13.8133 59.5222 14.4033 60.7022 15.5833C61.8822 16.7433 62.4722 18.4933 62.4722 20.8333V30.0133H58.7222V21.3133C58.7222 19.9133 58.4122 18.8633 57.7922 18.1633C57.1722 17.4433 56.2822 17.0833 55.1222 17.0833C53.8622 17.0833 52.8522 17.5033 52.0922 18.3433C51.3322 19.1633 50.9522 20.3433 50.9522 21.8833V30.0133H47.2022V21.3133C47.2022 19.9133 46.8922 18.8633 46.2722 18.1633C45.6522 17.4433 44.7622 17.0833 43.6022 17.0833C42.3222 17.0833 41.3022 17.4933 40.5422 18.3133C39.8022 19.1333 39.4322 20.3233 39.4322 21.8833V30.0133H35.6822V13.9933H39.2522V16.0333C39.8522 15.3133 40.6022 14.7633 41.5022 14.3833C42.4022 14.0033 43.4022 13.8133 44.5022 13.8133C45.7022 13.8133 46.7622 14.0433 47.6822 14.5033C48.6222 14.9433 49.3622 15.6033 49.9022 16.4833C50.5622 15.6433 51.4122 14.9933 52.4522 14.5333C53.4922 14.0533 54.6422 13.8133 55.9022 13.8133ZM73.3843 13.8133C75.7443 13.8133 77.5443 14.3833 78.7843 15.5233C80.0443 16.6433 80.6743 18.3433 80.6743 20.6233V30.0133H77.1343V28.0633C76.6743 28.7633 76.0143 29.3033 75.1543 29.6833C74.3143 30.0433 73.2943 30.2233 72.0943 30.2233C70.8943 30.2233 69.8443 30.0233 68.9443 29.6233C68.0443 29.2033 67.3443 28.6333 66.8443 27.9133C66.3643 27.1733 66.1243 26.3433 66.1243 25.4233C66.1243 23.9833 66.6543 22.8333 67.7143 21.9733C68.7943 21.0933 70.4843 20.6533 72.7843 20.6533H76.9243V20.4133C76.9243 19.2933 76.5843 18.4333 75.9043 17.8333C75.2443 17.2333 74.2543 16.9333 72.9343 16.9333C72.0343 16.9333 71.1443 17.0733 70.2643 17.3533C69.4043 17.6333 68.6743 18.0233 68.0743 18.5233L66.6043 15.7933C67.4443 15.1533 68.4543 14.6633 69.6343 14.3233C70.8143 13.9833 72.0643 13.8133 73.3843 13.8133ZM72.8743 27.4933C73.8143 27.4933 74.6443 27.2833 75.3643 26.8633C76.1043 26.4233 76.6243 25.8033 76.9243 25.0033V23.1433H73.0543C70.8943 23.1433 69.8143 23.8533 69.8143 25.2733C69.8143 25.9533 70.0843 26.4933 70.6243 26.8933C71.1643 27.2933 71.9143 27.4933 72.8743 27.4933ZM85.4869 7.75333H89.2369V30.0133H85.4869V7.75333ZM94.1588 13.9933H97.9088V30.0133H94.1588V13.9933ZM96.0488 11.3533C95.3688 11.3533 94.7988 11.1433 94.3388 10.7233C93.8788 10.2833 93.6488 9.74334 93.6488 9.10334C93.6488 8.46334 93.8788 7.93333 94.3388 7.51333C94.7988 7.07334 95.3688 6.85334 96.0488 6.85334C96.7288 6.85334 97.2988 7.06334 97.7588 7.48333C98.2188 7.88334 98.4488 8.39334 98.4488 9.01333C98.4488 9.67333 98.2188 10.2333 97.7588 10.6933C97.3188 11.1333 96.7488 11.3533 96.0488 11.3533ZM115.341 27.0133V30.0133H101.511V27.6433L110.301 16.9933H101.691V13.9933H115.101V16.3633L106.281 27.0133H115.341ZM125.763 30.2233C124.143 30.2233 122.683 29.8733 121.383 29.1733C120.083 28.4733 119.063 27.5033 118.323 26.2633C117.603 25.0033 117.243 23.5833 117.243 22.0033C117.243 20.4233 117.603 19.0133 118.323 17.7733C119.063 16.5333 120.083 15.5633 121.383 14.8633C122.683 14.1633 124.143 13.8133 125.763 13.8133C127.403 13.8133 128.873 14.1633 130.173 14.8633C131.473 15.5633 132.483 16.5333 133.203 17.7733C133.943 19.0133 134.313 20.4233 134.313 22.0033C134.313 23.5833 133.943 25.0033 133.203 26.2633C132.483 27.5033 131.473 28.4733 130.173 29.1733C128.873 29.8733 127.403 30.2233 125.763 30.2233ZM125.763 27.0133C127.143 27.0133 128.283 26.5533 129.183 25.6333C130.083 24.7133 130.533 23.5033 130.533 22.0033C130.533 20.5033 130.083 19.2933 129.183 18.3733C128.283 17.4533 127.143 16.9933 125.763 16.9933C124.383 16.9933 123.243 17.4533 122.343 18.3733C121.463 19.2933 121.023 20.5033 121.023 22.0033C121.023 23.5033 121.463 24.7133 122.343 25.6333C123.243 26.5533 124.383 27.0133 125.763 27.0133ZM146.989 13.8133C149.009 13.8133 150.629 14.4033 151.849 15.5833C153.069 16.7633 153.679 18.5133 153.679 20.8333V30.0133H149.929V21.3133C149.929 19.9133 149.599 18.8633 148.939 18.1633C148.279 17.4433 147.339 17.0833 146.119 17.0833C144.739 17.0833 143.649 17.5033 142.849 18.3433C142.049 19.1633 141.649 20.3533 141.649 21.9133V30.0133H137.899V13.9933H141.469V16.0633C142.089 15.3233 142.869 14.7633 143.809 14.3833C144.749 14.0033 145.809 13.8133 146.989 13.8133Z" fill="white"/>
</g>
<defs>
<clipPath id="clip0">
<rect width="161" height="38" fill="white"/>
</clipPath>
</defs>
</svg>
