<svg width="646" height="850" viewBox="0 0 646 850" fill="none" xmlns="http://www.w3.org/2000/svg">
<path d="M130.35 372.411C128.348 372.408 126.391 371.812 124.727 370.698C123.063 369.584 121.767 368.003 121 366.153C120.234 364.304 120.033 362.268 120.422 360.304C120.811 358.34 121.773 356.535 123.187 355.118L178.601 299.703C180.512 297.857 183.073 296.835 185.731 296.858C188.389 296.881 190.931 297.947 192.81 299.827C194.69 301.706 195.756 304.249 195.779 306.907C195.802 309.564 194.78 312.125 192.934 314.037L137.52 369.451C135.617 371.349 133.038 372.414 130.35 372.411Z" fill="#EB4343"/>
<path d="M185.784 372.411C184.453 372.411 183.134 372.15 181.904 371.641C180.674 371.132 179.556 370.385 178.614 369.444L123.2 314.03C122.194 313.105 121.386 311.986 120.824 310.74C120.262 309.495 119.957 308.148 119.928 306.782C119.9 305.416 120.148 304.058 120.657 302.79C121.167 301.522 121.928 300.37 122.894 299.404C123.86 298.437 125.011 297.676 126.279 297.166C127.547 296.656 128.904 296.407 130.271 296.435C131.637 296.463 132.983 296.767 134.229 297.329C135.475 297.89 136.594 298.698 137.52 299.703L192.934 355.118C194.352 356.535 195.318 358.341 195.71 360.307C196.102 362.273 195.901 364.312 195.135 366.164C194.368 368.017 193.069 369.6 191.402 370.715C189.735 371.829 187.776 372.424 185.771 372.424L185.784 372.411Z" fill="#EB4343"/>
<path d="M252.997 436.211H63.1367C60.4483 436.211 57.87 435.143 55.969 433.242C54.068 431.341 53 428.763 53 426.075V243.046C53 240.358 54.068 237.779 55.969 235.878C57.87 233.977 60.4483 232.909 63.1367 232.909H253.031C255.72 232.909 258.298 233.977 260.199 235.878C262.1 237.779 263.168 240.358 263.168 243.046V426.075C263.168 427.409 262.905 428.729 262.393 429.962C261.882 431.194 261.132 432.313 260.187 433.254C259.242 434.196 258.121 434.942 256.887 435.449C255.653 435.957 254.331 436.216 252.997 436.211ZM73.2734 415.938H242.895V253.183H73.2734V415.938Z" fill="#EB4343"/>
<path d="M193.353 279.619C190.665 279.619 188.086 278.551 186.185 276.65C184.284 274.749 183.216 272.171 183.216 269.482V208.865C183.27 205.674 182.688 202.504 181.503 199.541C180.319 196.577 178.557 193.879 176.319 191.603C174.081 189.328 171.413 187.52 168.47 186.287C165.526 185.053 162.367 184.418 159.175 184.418C155.984 184.418 152.824 185.053 149.881 186.287C146.938 187.52 144.269 189.328 142.032 191.603C139.794 193.879 138.032 196.577 136.847 199.541C135.663 202.504 135.081 205.674 135.134 208.865V269.482C135.134 272.171 134.067 274.749 132.166 276.65C130.265 278.551 127.686 279.619 124.998 279.619C122.309 279.619 119.731 278.551 117.83 276.65C115.929 274.749 114.861 272.171 114.861 269.482V208.865C114.789 202.999 115.881 197.178 118.076 191.738C120.27 186.298 123.523 181.348 127.645 177.174C131.767 173.001 136.677 169.687 142.089 167.426C147.502 165.164 153.309 164 159.175 164C165.041 164 170.849 165.164 176.261 167.426C181.674 169.687 186.584 173.001 190.706 177.174C194.828 181.348 198.08 186.298 200.275 191.738C202.469 197.178 203.562 202.999 203.49 208.865V269.482C203.49 272.171 202.422 274.749 200.521 276.65C198.62 278.551 196.041 279.619 193.353 279.619V279.619Z" fill="#EB4343"/>
<path d="M23.16 33.9999C26.88 33.9999 30.1 34.6199 32.82 35.8599C35.58 37.0999 37.7 38.8599 39.18 41.1399C40.66 43.4199 41.4 46.1199 41.4 49.2399C41.4 52.3199 40.66 55.0199 39.18 57.3399C37.7 59.6199 35.58 61.3799 32.82 62.6199C30.1 63.8199 26.88 64.4199 23.16 64.4199H14.7V75.9999H4.98V33.9999H23.16ZM22.62 56.4999C25.54 56.4999 27.76 55.8799 29.28 54.6399C30.8 53.3599 31.56 51.5599 31.56 49.2399C31.56 46.8799 30.8 45.0799 29.28 43.8399C27.76 42.5599 25.54 41.9199 22.62 41.9199H14.7V56.4999H22.62ZM56.6194 47.9799C57.7394 46.4199 59.2394 45.2399 61.1194 44.4399C63.0394 43.6399 65.2394 43.2399 67.7194 43.2399V51.8799C66.6794 51.7999 65.9794 51.7599 65.6194 51.7599C62.9394 51.7599 60.8394 52.5199 59.3194 54.0399C57.7994 55.5199 57.0394 57.7599 57.0394 60.7599V75.9999H47.6794V43.7199H56.6194V47.9799ZM88.3519 76.4799C84.9519 76.4799 81.8919 75.7799 79.1719 74.3799C76.4919 72.9399 74.3919 70.9599 72.8719 68.4399C71.3519 65.9199 70.5919 63.0599 70.5919 59.8599C70.5919 56.6599 71.3519 53.7999 72.8719 51.2799C74.3919 48.7599 76.4919 46.7999 79.1719 45.3999C81.8919 43.9599 84.9519 43.2399 88.3519 43.2399C91.7519 43.2399 94.7919 43.9599 97.4719 45.3999C100.152 46.7999 102.252 48.7599 103.772 51.2799C105.292 53.7999 106.052 56.6599 106.052 59.8599C106.052 63.0599 105.292 65.9199 103.772 68.4399C102.252 70.9599 100.152 72.9399 97.4719 74.3799C94.7919 75.7799 91.7519 76.4799 88.3519 76.4799ZM88.3519 68.7999C90.7519 68.7999 92.7119 67.9999 94.2319 66.3999C95.7919 64.7599 96.5719 62.5799 96.5719 59.8599C96.5719 57.1399 95.7919 54.9799 94.2319 53.3799C92.7119 51.7399 90.7519 50.9199 88.3519 50.9199C85.9519 50.9199 83.9719 51.7399 82.4119 53.3799C80.8519 54.9799 80.0719 57.1399 80.0719 59.8599C80.0719 62.5799 80.8519 64.7599 82.4119 66.3999C83.9719 67.9999 85.9519 68.7999 88.3519 68.7999ZM145.188 31.4799V75.9999H136.248V72.2799C133.928 75.0799 130.568 76.4799 126.168 76.4799C123.128 76.4799 120.368 75.7999 117.888 74.4399C115.448 73.0799 113.528 71.1399 112.128 68.6199C110.728 66.0999 110.028 63.1799 110.028 59.8599C110.028 56.5399 110.728 53.6199 112.128 51.0999C113.528 48.5799 115.448 46.6399 117.888 45.2799C120.368 43.9199 123.128 43.2399 126.168 43.2399C130.288 43.2399 133.508 44.5399 135.828 47.1399V31.4799H145.188ZM127.788 68.7999C130.148 68.7999 132.108 67.9999 133.668 66.3999C135.228 64.7599 136.008 62.5799 136.008 59.8599C136.008 57.1399 135.228 54.9799 133.668 53.3799C132.108 51.7399 130.148 50.9199 127.788 50.9199C125.388 50.9199 123.408 51.7399 121.848 53.3799C120.288 54.9799 119.508 57.1399 119.508 59.8599C119.508 62.5799 120.288 64.7599 121.848 66.3999C123.408 67.9999 125.388 68.7999 127.788 68.7999ZM186.371 43.7199V75.9999H177.491V72.1599C176.251 73.5599 174.771 74.6399 173.051 75.3999C171.331 76.1199 169.471 76.4799 167.471 76.4799C163.231 76.4799 159.871 75.2599 157.391 72.8199C154.911 70.3799 153.671 66.7599 153.671 61.9599V43.7199H163.031V60.5799C163.031 65.7799 165.211 68.3799 169.571 68.3799C171.811 68.3799 173.611 67.6599 174.971 66.2199C176.331 64.7399 177.011 62.5599 177.011 59.6799V43.7199H186.371ZM210.643 76.4799C207.203 76.4799 204.103 75.7799 201.343 74.3799C198.623 72.9399 196.483 70.9599 194.923 68.4399C193.403 65.9199 192.643 63.0599 192.643 59.8599C192.643 56.6599 193.403 53.7999 194.923 51.2799C196.483 48.7599 198.623 46.7999 201.343 45.3999C204.103 43.9599 207.203 43.2399 210.643 43.2399C214.043 43.2399 217.003 43.9599 219.523 45.3999C222.083 46.7999 223.943 48.8199 225.103 51.4599L217.843 55.3599C216.163 52.3999 213.743 50.9199 210.583 50.9199C208.143 50.9199 206.123 51.7199 204.523 53.3199C202.923 54.9199 202.123 57.0999 202.123 59.8599C202.123 62.6199 202.923 64.7999 204.523 66.3999C206.123 67.9999 208.143 68.7999 210.583 68.7999C213.783 68.7999 216.203 67.3199 217.843 64.3599L225.103 68.3199C223.943 70.8799 222.083 72.8799 219.523 74.3199C217.003 75.7599 214.043 76.4799 210.643 76.4799ZM251.781 74.4399C250.861 75.1199 249.721 75.6399 248.361 75.9999C247.041 76.3199 245.641 76.4799 244.161 76.4799C240.321 76.4799 237.341 75.4999 235.221 73.5399C233.141 71.5799 232.101 68.6999 232.101 64.8999V51.6399H227.121V44.4399H232.101V36.5799H241.461V44.4399H249.501V51.6399H241.461V64.7799C241.461 66.1399 241.801 67.1999 242.481 67.9599C243.201 68.6799 244.201 69.0399 245.481 69.0399C246.961 69.0399 248.221 68.6399 249.261 67.8399L251.781 74.4399ZM267.895 76.4799C265.215 76.4799 262.595 76.1599 260.035 75.5199C257.475 74.8399 255.435 73.9999 253.915 72.9999L257.035 66.2799C258.475 67.1999 260.215 67.9599 262.255 68.5599C264.295 69.1199 266.295 69.3999 268.255 69.3999C272.215 69.3999 274.195 68.4199 274.195 66.4599C274.195 65.5399 273.655 64.8799 272.575 64.4799C271.495 64.0799 269.835 63.7399 267.595 63.4599C264.955 63.0599 262.775 62.5999 261.055 62.0799C259.335 61.5599 257.835 60.6399 256.555 59.3199C255.315 57.9999 254.695 56.1199 254.695 53.6799C254.695 51.6399 255.275 49.8399 256.435 48.2799C257.635 46.6799 259.355 45.4399 261.595 44.5599C263.875 43.6799 266.555 43.2399 269.635 43.2399C271.915 43.2399 274.175 43.4999 276.415 44.0199C278.695 44.4999 280.575 45.1799 282.055 46.0599L278.935 52.7199C276.095 51.1199 272.995 50.3199 269.635 50.3199C267.635 50.3199 266.135 50.5999 265.135 51.1599C264.135 51.7199 263.635 52.4399 263.635 53.3199C263.635 54.3199 264.175 55.0199 265.255 55.4199C266.335 55.8199 268.055 56.1999 270.415 56.5599C273.055 56.9999 275.215 57.4799 276.895 57.9999C278.575 58.4799 280.035 59.3799 281.275 60.6999C282.515 62.0199 283.135 63.8599 283.135 66.2199C283.135 68.2199 282.535 69.9999 281.335 71.5599C280.135 73.1199 278.375 74.3399 276.055 75.2199C273.775 76.0599 271.055 76.4799 267.895 76.4799ZM23.94 105.24C27.94 105.24 31.16 106.44 33.6 108.84C36.08 111.24 37.32 114.8 37.32 119.52V138H27.96V120.96C27.96 118.4 27.4 116.5 26.28 115.26C25.16 113.98 23.54 113.34 21.42 113.34C19.06 113.34 17.18 114.08 15.78 115.56C14.38 117 13.68 119.16 13.68 122.04V138H4.32V105.72H13.26V109.5C14.5 108.14 16.04 107.1 17.88 106.38C19.72 105.62 21.74 105.24 23.94 105.24ZM61.5159 138.48C58.1159 138.48 55.0559 137.78 52.3359 136.38C49.6559 134.94 47.5559 132.96 46.0359 130.44C44.5159 127.92 43.7559 125.06 43.7559 121.86C43.7559 118.66 44.5159 115.8 46.0359 113.28C47.5559 110.76 49.6559 108.8 52.3359 107.4C55.0559 105.96 58.1159 105.24 61.5159 105.24C64.9159 105.24 67.9559 105.96 70.6359 107.4C73.3159 108.8 75.4159 110.76 76.9359 113.28C78.4559 115.8 79.2159 118.66 79.2159 121.86C79.2159 125.06 78.4559 127.92 76.9359 130.44C75.4159 132.96 73.3159 134.94 70.6359 136.38C67.9559 137.78 64.9159 138.48 61.5159 138.48ZM61.5159 130.8C63.9159 130.8 65.8759 130 67.3959 128.4C68.9559 126.76 69.7359 124.58 69.7359 121.86C69.7359 119.14 68.9559 116.98 67.3959 115.38C65.8759 113.74 63.9159 112.92 61.5159 112.92C59.1159 112.92 57.1359 113.74 55.5759 115.38C54.0159 116.98 53.2359 119.14 53.2359 121.86C53.2359 124.58 54.0159 126.76 55.5759 128.4C57.1359 130 59.1159 130.8 61.5159 130.8ZM106.292 136.44C105.372 137.12 104.232 137.64 102.872 138C101.552 138.32 100.152 138.48 98.6723 138.48C94.8323 138.48 91.8523 137.5 89.7323 135.54C87.6523 133.58 86.6123 130.7 86.6123 126.9V113.64H81.6323V106.44H86.6123V98.5799H95.9723V106.44H104.012V113.64H95.9723V126.78C95.9723 128.14 96.3123 129.2 96.9923 129.96C97.7123 130.68 98.7123 131.04 99.9923 131.04C101.472 131.04 102.732 130.64 103.772 129.84L106.292 136.44ZM138.799 106.44H147.079V113.64H139.039V138H129.679V113.64H124.699V106.44H129.679V105C129.679 101.32 130.759 98.3999 132.919 96.2399C135.119 94.0799 138.199 92.9999 142.159 92.9999C143.559 92.9999 144.879 93.1599 146.119 93.4799C147.399 93.7599 148.459 94.1799 149.299 94.7399L146.839 101.52C145.759 100.76 144.499 100.38 143.059 100.38C140.219 100.38 138.799 101.94 138.799 105.06V106.44ZM166.692 138.48C163.292 138.48 160.232 137.78 157.512 136.38C154.832 134.94 152.732 132.96 151.212 130.44C149.692 127.92 148.932 125.06 148.932 121.86C148.932 118.66 149.692 115.8 151.212 113.28C152.732 110.76 154.832 108.8 157.512 107.4C160.232 105.96 163.292 105.24 166.692 105.24C170.092 105.24 173.132 105.96 175.812 107.4C178.492 108.8 180.592 110.76 182.112 113.28C183.632 115.8 184.392 118.66 184.392 121.86C184.392 125.06 183.632 127.92 182.112 130.44C180.592 132.96 178.492 134.94 175.812 136.38C173.132 137.78 170.092 138.48 166.692 138.48ZM166.692 130.8C169.092 130.8 171.052 130 172.572 128.4C174.132 126.76 174.912 124.58 174.912 121.86C174.912 119.14 174.132 116.98 172.572 115.38C171.052 113.74 169.092 112.92 166.692 112.92C164.292 112.92 162.312 113.74 160.752 115.38C159.192 116.98 158.412 119.14 158.412 121.86C158.412 124.58 159.192 126.76 160.752 128.4C162.312 130 164.292 130.8 166.692 130.8ZM223.168 105.72V138H214.288V134.16C213.048 135.56 211.568 136.64 209.848 137.4C208.128 138.12 206.268 138.48 204.268 138.48C200.028 138.48 196.668 137.26 194.188 134.82C191.708 132.38 190.468 128.76 190.468 123.96V105.72H199.828V122.58C199.828 127.78 202.008 130.38 206.368 130.38C208.608 130.38 210.408 129.66 211.768 128.22C213.128 126.74 213.808 124.56 213.808 121.68V105.72H223.168ZM251.46 105.24C255.46 105.24 258.68 106.44 261.12 108.84C263.6 111.24 264.84 114.8 264.84 119.52V138H255.48V120.96C255.48 118.4 254.92 116.5 253.8 115.26C252.68 113.98 251.06 113.34 248.94 113.34C246.58 113.34 244.7 114.08 243.3 115.56C241.9 117 241.2 119.16 241.2 122.04V138H231.84V105.72H240.78V109.5C242.02 108.14 243.56 107.1 245.4 106.38C247.24 105.62 249.26 105.24 251.46 105.24ZM306.555 93.4799V138H297.615V134.28C295.295 137.08 291.935 138.48 287.535 138.48C284.495 138.48 281.735 137.8 279.255 136.44C276.815 135.08 274.895 133.14 273.495 130.62C272.095 128.1 271.395 125.18 271.395 121.86C271.395 118.54 272.095 115.62 273.495 113.1C274.895 110.58 276.815 108.64 279.255 107.28C281.735 105.92 284.495 105.24 287.535 105.24C291.655 105.24 294.875 106.54 297.195 109.14V93.4799H306.555ZM289.155 130.8C291.515 130.8 293.475 130 295.035 128.4C296.595 126.76 297.375 124.58 297.375 121.86C297.375 119.14 296.595 116.98 295.035 115.38C293.475 113.74 291.515 112.92 289.155 112.92C286.755 112.92 284.775 113.74 283.215 115.38C281.655 116.98 280.875 119.14 280.875 121.86C280.875 124.58 281.655 126.76 283.215 128.4C284.775 130 286.755 130.8 289.155 130.8Z" fill="#EB4343"/>
<path d="M464.452 96.8853C464.35 98.4538 464.147 101.591 465.626 103.254C467.003 106.486 466.902 108.055 468.279 111.286L469.656 114.518L470.931 119.319C488.124 172.312 498.286 235.906 495.242 282.961C492.198 330.015 449.972 418.805 409.47 480.93C407.789 482.403 407.586 485.54 407.484 487.109C407.281 490.246 408.658 493.478 410.137 495.141C411.616 496.804 414.674 498.563 417.834 498.752C420.995 498.942 425.836 497.658 427.619 494.616C483.617 438.146 537.571 364.232 542.644 285.808C547.717 207.384 530.017 162.232 501.562 111.711C498.807 105.247 495.952 100.352 491.516 95.3617C488.559 92.0349 482.644 85.3814 479.484 85.1916C470.105 83.0536 464.858 90.6113 464.452 96.8853Z" fill="#FF8E2E"/>
<path d="M435.908 28.4185C431.163 28.2277 426.348 29.6069 423.114 31.0498C421.463 32.5562 419.741 35.6327 418.089 37.1391C414.646 43.2921 414.226 52.7125 413.737 63.7029C413.387 71.5532 412.968 80.9736 415.712 90.5212L418.455 100.069L419.827 104.843C422.711 111.25 425.665 116.087 428.549 122.495C431.572 125.762 434.596 129.03 439.341 129.22C442.505 129.348 445.738 127.905 447.39 126.398C449.042 124.892 450.763 121.815 450.833 120.245L450.903 118.675C449.531 113.901 449.811 107.621 448.579 99.7073C448.859 93.4271 447.627 85.5131 447.836 80.803C448.046 76.0928 448.186 72.9527 449.908 69.8762C449.978 68.3061 449.978 68.3061 451.629 66.7997C451.629 66.7997 453.211 66.8633 454.793 66.9269C459.538 67.1178 468.959 69.0695 478.309 72.5913C487.66 76.113 497.011 79.6348 501.686 81.3957C503.268 81.4593 504.78 83.093 506.362 83.1566C509.525 83.2838 511.177 81.7774 514.41 80.3345C517.644 78.8917 517.784 75.7516 517.854 74.1815C517.993 71.0414 516.551 67.8377 515.04 66.204C495.526 41.8262 462.658 32.6401 443.677 31.8767L435.908 28.4185Z" fill="#FF8E2E"/>
<path d="M238.68 535.92H225.24V528H261.84V535.92H248.4V570H238.68V535.92ZM274.647 541.98C275.767 540.42 277.267 539.24 279.147 538.44C281.067 537.64 283.267 537.24 285.747 537.24V545.88C284.707 545.8 284.007 545.76 283.647 545.76C280.967 545.76 278.867 546.52 277.347 548.04C275.827 549.52 275.067 551.76 275.067 554.76V570H265.707V537.72H274.647V541.98ZM324.465 537.72L309.885 571.98C308.405 575.7 306.565 578.32 304.365 579.84C302.205 581.36 299.585 582.12 296.505 582.12C294.825 582.12 293.165 581.86 291.525 581.34C289.885 580.82 288.545 580.1 287.505 579.18L290.925 572.52C291.645 573.16 292.465 573.66 293.385 574.02C294.345 574.38 295.285 574.56 296.205 574.56C297.485 574.56 298.525 574.24 299.325 573.6C300.125 573 300.845 571.98 301.485 570.54L301.605 570.24L287.625 537.72H297.285L306.345 559.62L315.465 537.72H324.465ZM360.877 570.48C357.437 570.48 354.337 569.78 351.577 568.38C348.857 566.94 346.717 564.96 345.157 562.44C343.637 559.92 342.877 557.06 342.877 553.86C342.877 550.66 343.637 547.8 345.157 545.28C346.717 542.76 348.857 540.8 351.577 539.4C354.337 537.96 357.437 537.24 360.877 537.24C364.277 537.24 367.237 537.96 369.757 539.4C372.317 540.8 374.177 542.82 375.337 545.46L368.077 549.36C366.397 546.4 363.977 544.92 360.817 544.92C358.377 544.92 356.357 545.72 354.757 547.32C353.157 548.92 352.357 551.1 352.357 553.86C352.357 556.62 353.157 558.8 354.757 560.4C356.357 562 358.377 562.8 360.817 562.8C364.017 562.8 366.437 561.32 368.077 558.36L375.337 562.32C374.177 564.88 372.317 566.88 369.757 568.32C367.237 569.76 364.277 570.48 360.877 570.48ZM400.112 537.24C404.112 537.24 407.332 538.44 409.772 540.84C412.252 543.24 413.492 546.8 413.492 551.52V570H404.132V552.96C404.132 550.4 403.572 548.5 402.452 547.26C401.332 545.98 399.712 545.34 397.592 545.34C395.232 545.34 393.352 546.08 391.952 547.56C390.552 549 389.852 551.16 389.852 554.04V570H380.492V525.48H389.852V541.08C391.092 539.84 392.592 538.9 394.352 538.26C396.112 537.58 398.032 537.24 400.112 537.24ZM434.996 537.24C439.996 537.24 443.836 538.44 446.516 540.84C449.196 543.2 450.536 546.78 450.536 551.58V570H441.776V565.98C440.016 568.98 436.736 570.48 431.936 570.48C429.456 570.48 427.296 570.06 425.456 569.22C423.656 568.38 422.276 567.22 421.316 565.74C420.356 564.26 419.876 562.58 419.876 560.7C419.876 557.7 420.996 555.34 423.236 553.62C425.516 551.9 429.016 551.04 433.736 551.04H441.176C441.176 549 440.556 547.44 439.316 546.36C438.076 545.24 436.216 544.68 433.736 544.68C432.016 544.68 430.316 544.96 428.636 545.52C426.996 546.04 425.596 546.76 424.436 547.68L421.076 541.14C422.836 539.9 424.936 538.94 427.376 538.26C429.856 537.58 432.396 537.24 434.996 537.24ZM434.276 564.18C435.876 564.18 437.296 563.82 438.536 563.1C439.776 562.34 440.656 561.24 441.176 559.8V556.5H434.756C430.916 556.5 428.996 557.76 428.996 560.28C428.996 561.48 429.456 562.44 430.376 563.16C431.336 563.84 432.636 564.18 434.276 564.18ZM478.628 537.24C482.628 537.24 485.848 538.44 488.288 540.84C490.768 543.24 492.008 546.8 492.008 551.52V570H482.648V552.96C482.648 550.4 482.088 548.5 480.968 547.26C479.848 545.98 478.228 545.34 476.108 545.34C473.748 545.34 471.868 546.08 470.468 547.56C469.068 549 468.368 551.16 468.368 554.04V570H459.008V537.72H467.948V541.5C469.188 540.14 470.728 539.1 472.568 538.38C474.408 537.62 476.428 537.24 478.628 537.24ZM534.143 537.72V564.6C534.143 570.52 532.603 574.92 529.523 577.8C526.443 580.68 521.943 582.12 516.023 582.12C512.903 582.12 509.943 581.74 507.143 580.98C504.343 580.22 502.023 579.12 500.183 577.68L503.903 570.96C505.263 572.08 506.983 572.96 509.063 573.6C511.143 574.28 513.223 574.62 515.303 574.62C518.543 574.62 520.923 573.88 522.443 572.4C524.003 570.96 524.783 568.76 524.783 565.8V564.42C522.343 567.1 518.943 568.44 514.583 568.44C511.623 568.44 508.903 567.8 506.423 566.52C503.983 565.2 502.043 563.36 500.603 561C499.163 558.64 498.443 555.92 498.443 552.84C498.443 549.76 499.163 547.04 500.603 544.68C502.043 542.32 503.983 540.5 506.423 539.22C508.903 537.9 511.623 537.24 514.583 537.24C519.263 537.24 522.823 538.78 525.263 541.86V537.72H534.143ZM516.443 560.76C518.923 560.76 520.943 560.04 522.503 558.6C524.103 557.12 524.903 555.2 524.903 552.84C524.903 550.48 524.103 548.58 522.503 547.14C520.943 545.66 518.923 544.92 516.443 544.92C513.963 544.92 511.923 545.66 510.323 547.14C508.723 548.58 507.923 550.48 507.923 552.84C507.923 555.2 508.723 557.12 510.323 558.6C511.923 560.04 513.963 560.76 516.443 560.76ZM542.855 537.72H552.215V570H542.855V537.72ZM547.535 533.22C545.815 533.22 544.415 532.72 543.335 531.72C542.255 530.72 541.715 529.48 541.715 528C541.715 526.52 542.255 525.28 543.335 524.28C544.415 523.28 545.815 522.78 547.535 522.78C549.255 522.78 550.655 523.26 551.735 524.22C552.815 525.18 553.355 526.38 553.355 527.82C553.355 529.38 552.815 530.68 551.735 531.72C550.655 532.72 549.255 533.22 547.535 533.22ZM580.522 537.24C584.522 537.24 587.742 538.44 590.182 540.84C592.662 543.24 593.902 546.8 593.902 551.52V570H584.542V552.96C584.542 550.4 583.982 548.5 582.862 547.26C581.742 545.98 580.122 545.34 578.002 545.34C575.642 545.34 573.762 546.08 572.362 547.56C570.962 549 570.262 551.16 570.262 554.04V570H560.902V537.72H569.842V541.5C571.082 540.14 572.622 539.1 574.462 538.38C576.302 537.62 578.322 537.24 580.522 537.24ZM636.038 537.72V564.6C636.038 570.52 634.498 574.92 631.418 577.8C628.338 580.68 623.838 582.12 617.918 582.12C614.798 582.12 611.838 581.74 609.038 580.98C606.238 580.22 603.918 579.12 602.078 577.68L605.798 570.96C607.158 572.08 608.878 572.96 610.958 573.6C613.038 574.28 615.118 574.62 617.198 574.62C620.438 574.62 622.818 573.88 624.338 572.4C625.898 570.96 626.678 568.76 626.678 565.8V564.42C624.238 567.1 620.838 568.44 616.478 568.44C613.518 568.44 610.798 567.8 608.318 566.52C605.878 565.2 603.938 563.36 602.498 561C601.058 558.64 600.338 555.92 600.338 552.84C600.338 549.76 601.058 547.04 602.498 544.68C603.938 542.32 605.878 540.5 608.318 539.22C610.798 537.9 613.518 537.24 616.478 537.24C621.158 537.24 624.718 538.78 627.158 541.86V537.72H636.038ZM618.338 560.76C620.818 560.76 622.838 560.04 624.398 558.6C625.998 557.12 626.798 555.2 626.798 552.84C626.798 550.48 625.998 548.58 624.398 547.14C622.838 545.66 620.818 544.92 618.338 544.92C615.858 544.92 613.818 545.66 612.218 547.14C610.618 548.58 609.818 550.48 609.818 552.84C609.818 555.2 610.618 557.12 612.218 558.6C613.818 560.04 615.858 560.76 618.338 560.76ZM250.14 630.44C249.22 631.12 248.08 631.64 246.72 632C245.4 632.32 244 632.48 242.52 632.48C238.68 632.48 235.7 631.5 233.58 629.54C231.5 627.58 230.46 624.7 230.46 620.9V607.64H225.48V600.44H230.46V592.58H239.82V600.44H247.86V607.64H239.82V620.78C239.82 622.14 240.16 623.2 240.84 623.96C241.56 624.68 242.56 625.04 243.84 625.04C245.32 625.04 246.58 624.64 247.62 623.84L250.14 630.44ZM275.014 599.24C279.014 599.24 282.234 600.44 284.674 602.84C287.154 605.24 288.394 608.8 288.394 613.52V632H279.034V614.96C279.034 612.4 278.474 610.5 277.354 609.26C276.234 607.98 274.614 607.34 272.494 607.34C270.134 607.34 268.254 608.08 266.854 609.56C265.454 611 264.754 613.16 264.754 616.04V632H255.394V587.48H264.754V603.08C265.994 601.84 267.494 600.9 269.254 600.26C271.014 599.58 272.934 599.24 275.014 599.24ZM328.85 615.98C328.85 616.1 328.79 616.94 328.67 618.5H304.25C304.69 620.5 305.73 622.08 307.37 623.24C309.01 624.4 311.05 624.98 313.49 624.98C315.17 624.98 316.65 624.74 317.93 624.26C319.25 623.74 320.47 622.94 321.59 621.86L326.57 627.26C323.53 630.74 319.09 632.48 313.25 632.48C309.61 632.48 306.39 631.78 303.59 630.38C300.79 628.94 298.63 626.96 297.11 624.44C295.59 621.92 294.83 619.06 294.83 615.86C294.83 612.7 295.57 609.86 297.05 607.34C298.57 604.78 300.63 602.8 303.23 601.4C305.87 599.96 308.81 599.24 312.05 599.24C315.21 599.24 318.07 599.92 320.63 601.28C323.19 602.64 325.19 604.6 326.63 607.16C328.11 609.68 328.85 612.62 328.85 615.98ZM312.11 606.32C309.99 606.32 308.21 606.92 306.77 608.12C305.33 609.32 304.45 610.96 304.13 613.04H320.03C319.71 611 318.83 609.38 317.39 608.18C315.95 606.94 314.19 606.32 312.11 606.32ZM367.674 632.48C364.234 632.48 361.134 631.78 358.374 630.38C355.654 628.94 353.514 626.96 351.954 624.44C350.434 621.92 349.674 619.06 349.674 615.86C349.674 612.66 350.434 609.8 351.954 607.28C353.514 604.76 355.654 602.8 358.374 601.4C361.134 599.96 364.234 599.24 367.674 599.24C371.074 599.24 374.034 599.96 376.554 601.4C379.114 602.8 380.974 604.82 382.134 607.46L374.874 611.36C373.194 608.4 370.774 606.92 367.614 606.92C365.174 606.92 363.154 607.72 361.554 609.32C359.954 610.92 359.154 613.1 359.154 615.86C359.154 618.62 359.954 620.8 361.554 622.4C363.154 624 365.174 624.8 367.614 624.8C370.814 624.8 373.234 623.32 374.874 620.36L382.134 624.32C380.974 626.88 379.114 628.88 376.554 630.32C374.034 631.76 371.074 632.48 367.674 632.48ZM396.463 603.98C397.583 602.42 399.083 601.24 400.963 600.44C402.883 599.64 405.083 599.24 407.563 599.24V607.88C406.523 607.8 405.823 607.76 405.463 607.76C402.783 607.76 400.683 608.52 399.163 610.04C397.643 611.52 396.883 613.76 396.883 616.76V632H387.523V599.72H396.463V603.98ZM413.129 599.72H422.489V632H413.129V599.72ZM417.809 595.22C416.089 595.22 414.689 594.72 413.609 593.72C412.529 592.72 411.989 591.48 411.989 590C411.989 588.52 412.529 587.28 413.609 586.28C414.689 585.28 416.089 584.78 417.809 584.78C419.529 584.78 420.929 585.26 422.009 586.22C423.089 587.18 423.629 588.38 423.629 589.82C423.629 591.38 423.089 592.68 422.009 593.72C420.929 594.72 419.529 595.22 417.809 595.22ZM451.995 630.44C451.075 631.12 449.935 631.64 448.575 632C447.255 632.32 445.855 632.48 444.375 632.48C440.535 632.48 437.555 631.5 435.435 629.54C433.355 627.58 432.315 624.7 432.315 620.9V607.64H427.335V600.44H432.315V592.58H441.675V600.44H449.715V607.64H441.675V620.78C441.675 622.14 442.015 623.2 442.695 623.96C443.415 624.68 444.415 625.04 445.695 625.04C447.175 625.04 448.435 624.64 449.475 623.84L451.995 630.44ZM487.874 615.98C487.874 616.1 487.814 616.94 487.694 618.5H463.274C463.714 620.5 464.754 622.08 466.394 623.24C468.034 624.4 470.074 624.98 472.514 624.98C474.194 624.98 475.674 624.74 476.954 624.26C478.274 623.74 479.494 622.94 480.614 621.86L485.594 627.26C482.554 630.74 478.114 632.48 472.274 632.48C468.634 632.48 465.414 631.78 462.614 630.38C459.814 628.94 457.654 626.96 456.134 624.44C454.614 621.92 453.854 619.06 453.854 615.86C453.854 612.7 454.594 609.86 456.074 607.34C457.594 604.78 459.654 602.8 462.254 601.4C464.894 599.96 467.834 599.24 471.074 599.24C474.234 599.24 477.094 599.92 479.654 601.28C482.214 602.64 484.214 604.6 485.654 607.16C487.134 609.68 487.874 612.62 487.874 615.98ZM471.134 606.32C469.014 606.32 467.234 606.92 465.794 608.12C464.354 609.32 463.474 610.96 463.154 613.04H479.054C478.734 611 477.854 609.38 476.414 608.18C474.974 606.94 473.214 606.32 471.134 606.32ZM503.045 603.98C504.165 602.42 505.665 601.24 507.545 600.44C509.465 599.64 511.665 599.24 514.145 599.24V607.88C513.105 607.8 512.405 607.76 512.045 607.76C509.365 607.76 507.265 608.52 505.745 610.04C504.225 611.52 503.465 613.76 503.465 616.76V632H494.105V599.72H503.045V603.98ZM519.711 599.72H529.071V632H519.711V599.72ZM524.391 595.22C522.671 595.22 521.271 594.72 520.191 593.72C519.111 592.72 518.571 591.48 518.571 590C518.571 588.52 519.111 587.28 520.191 586.28C521.271 585.28 522.671 584.78 524.391 584.78C526.111 584.78 527.511 585.26 528.591 586.22C529.671 587.18 530.211 588.38 530.211 589.82C530.211 591.38 529.671 592.68 528.591 593.72C527.511 594.72 526.111 595.22 524.391 595.22ZM550.778 599.24C555.778 599.24 559.618 600.44 562.298 602.84C564.978 605.2 566.318 608.78 566.318 613.58V632H557.558V627.98C555.798 630.98 552.518 632.48 547.718 632.48C545.238 632.48 543.078 632.06 541.238 631.22C539.438 630.38 538.058 629.22 537.098 627.74C536.138 626.26 535.658 624.58 535.658 622.7C535.658 619.7 536.778 617.34 539.018 615.62C541.298 613.9 544.798 613.04 549.518 613.04H556.958C556.958 611 556.338 609.44 555.098 608.36C553.858 607.24 551.998 606.68 549.518 606.68C547.798 606.68 546.098 606.96 544.418 607.52C542.778 608.04 541.378 608.76 540.218 609.68L536.858 603.14C538.618 601.9 540.718 600.94 543.158 600.26C545.638 599.58 548.178 599.24 550.778 599.24ZM550.058 626.18C551.658 626.18 553.078 625.82 554.318 625.1C555.558 624.34 556.438 623.24 556.958 621.8V618.5H550.538C546.698 618.5 544.778 619.76 544.778 622.28C544.778 623.48 545.238 624.44 546.158 625.16C547.118 625.84 548.418 626.18 550.058 626.18ZM248.4 661.24C251.4 661.24 254.12 661.94 256.56 663.34C259.04 664.7 260.98 666.64 262.38 669.16C263.78 671.64 264.48 674.54 264.48 677.86C264.48 681.18 263.78 684.1 262.38 686.62C260.98 689.1 259.04 691.04 256.56 692.44C254.12 693.8 251.4 694.48 248.4 694.48C244.28 694.48 241.04 693.18 238.68 690.58V705.64H229.32V661.72H238.26V665.44C240.58 662.64 243.96 661.24 248.4 661.24ZM246.78 686.8C249.18 686.8 251.14 686 252.66 684.4C254.22 682.76 255 680.58 255 677.86C255 675.14 254.22 672.98 252.66 671.38C251.14 669.74 249.18 668.92 246.78 668.92C244.38 668.92 242.4 669.74 240.84 671.38C239.32 672.98 238.56 675.14 238.56 677.86C238.56 680.58 239.32 682.76 240.84 684.4C242.4 686 244.38 686.8 246.78 686.8ZM270.746 649.48H280.106V694H270.746V649.48ZM320.413 677.98C320.413 678.1 320.353 678.94 320.233 680.5H295.813C296.253 682.5 297.293 684.08 298.933 685.24C300.573 686.4 302.613 686.98 305.053 686.98C306.733 686.98 308.213 686.74 309.493 686.26C310.813 685.74 312.033 684.94 313.153 683.86L318.133 689.26C315.093 692.74 310.653 694.48 304.813 694.48C301.173 694.48 297.953 693.78 295.153 692.38C292.353 690.94 290.193 688.96 288.673 686.44C287.153 683.92 286.393 681.06 286.393 677.86C286.393 674.7 287.133 671.86 288.613 669.34C290.133 666.78 292.193 664.8 294.793 663.4C297.433 661.96 300.373 661.24 303.613 661.24C306.773 661.24 309.633 661.92 312.193 663.28C314.753 664.64 316.753 666.6 318.193 669.16C319.673 671.68 320.413 674.62 320.413 677.98ZM303.673 668.32C301.553 668.32 299.773 668.92 298.333 670.12C296.893 671.32 296.013 672.96 295.693 675.04H311.593C311.273 673 310.393 671.38 308.953 670.18C307.513 668.94 305.753 668.32 303.673 668.32ZM338.785 661.24C343.785 661.24 347.625 662.44 350.305 664.84C352.985 667.2 354.325 670.78 354.325 675.58V694H345.565V689.98C343.805 692.98 340.525 694.48 335.725 694.48C333.245 694.48 331.085 694.06 329.245 693.22C327.445 692.38 326.065 691.22 325.105 689.74C324.145 688.26 323.665 686.58 323.665 684.7C323.665 681.7 324.785 679.34 327.025 677.62C329.305 675.9 332.805 675.04 337.525 675.04H344.965C344.965 673 344.345 671.44 343.105 670.36C341.865 669.24 340.005 668.68 337.525 668.68C335.805 668.68 334.105 668.96 332.425 669.52C330.785 670.04 329.385 670.76 328.225 671.68L324.865 665.14C326.625 663.9 328.725 662.94 331.165 662.26C333.645 661.58 336.185 661.24 338.785 661.24ZM338.065 688.18C339.665 688.18 341.085 687.82 342.325 687.1C343.565 686.34 344.445 685.24 344.965 683.8V680.5H338.545C334.705 680.5 332.785 681.76 332.785 684.28C332.785 685.48 333.245 686.44 334.165 687.16C335.125 687.84 336.425 688.18 338.065 688.18ZM373.657 694.48C370.977 694.48 368.357 694.16 365.797 693.52C363.237 692.84 361.197 692 359.677 691L362.797 684.28C364.237 685.2 365.977 685.96 368.017 686.56C370.057 687.12 372.057 687.4 374.017 687.4C377.977 687.4 379.957 686.42 379.957 684.46C379.957 683.54 379.417 682.88 378.337 682.48C377.257 682.08 375.597 681.74 373.357 681.46C370.717 681.06 368.537 680.6 366.817 680.08C365.097 679.56 363.597 678.64 362.317 677.32C361.077 676 360.457 674.12 360.457 671.68C360.457 669.64 361.037 667.84 362.197 666.28C363.397 664.68 365.117 663.44 367.357 662.56C369.637 661.68 372.317 661.24 375.397 661.24C377.677 661.24 379.937 661.5 382.177 662.02C384.457 662.5 386.337 663.18 387.817 664.06L384.697 670.72C381.857 669.12 378.757 668.32 375.397 668.32C373.397 668.32 371.897 668.6 370.897 669.16C369.897 669.72 369.397 670.44 369.397 671.32C369.397 672.32 369.937 673.02 371.017 673.42C372.097 673.82 373.817 674.2 376.177 674.56C378.817 675 380.977 675.48 382.657 676C384.337 676.48 385.797 677.38 387.037 678.7C388.277 680.02 388.897 681.86 388.897 684.22C388.897 686.22 388.297 688 387.097 689.56C385.897 691.12 384.137 692.34 381.817 693.22C379.537 694.06 376.817 694.48 373.657 694.48ZM426.292 677.98C426.292 678.1 426.232 678.94 426.112 680.5H401.692C402.132 682.5 403.172 684.08 404.812 685.24C406.452 686.4 408.492 686.98 410.932 686.98C412.612 686.98 414.092 686.74 415.372 686.26C416.692 685.74 417.912 684.94 419.032 683.86L424.012 689.26C420.972 692.74 416.532 694.48 410.692 694.48C407.052 694.48 403.832 693.78 401.032 692.38C398.232 690.94 396.072 688.96 394.552 686.44C393.032 683.92 392.272 681.06 392.272 677.86C392.272 674.7 393.012 671.86 394.492 669.34C396.012 666.78 398.072 664.8 400.672 663.4C403.312 661.96 406.252 661.24 409.492 661.24C412.652 661.24 415.512 661.92 418.072 663.28C420.632 664.64 422.632 666.6 424.072 669.16C425.552 671.68 426.292 674.62 426.292 677.98ZM409.552 668.32C407.432 668.32 405.652 668.92 404.212 670.12C402.772 671.32 401.892 672.96 401.572 675.04H417.472C417.152 673 416.272 671.38 414.832 670.18C413.392 668.94 411.632 668.32 409.552 668.32Z" fill="#333333"/>
<g clip-path="url(#clip0)">
<path d="M515.433 785.905C514.205 785.905 513.081 785.218 512.507 784.134C503.832 767.565 491.868 763.806 475.26 772.031C474.15 772.56 472.842 772.461 471.851 771.741C470.86 771.021 470.344 769.805 470.523 768.583C473.245 750.105 465.931 740.043 447.513 736.905C446.304 736.7 445.306 735.841 444.923 734.672C444.54 733.503 444.844 732.221 445.702 731.342C458.757 717.977 458.757 705.531 445.702 692.173C444.844 691.294 444.54 690.012 444.923 688.843C445.306 687.674 446.297 686.808 447.513 686.61C465.938 683.472 473.245 673.397 470.523 654.912C470.344 653.697 470.853 652.481 471.851 651.761C472.848 651.041 474.163 650.929 475.26 651.477C480.875 654.258 486.048 655.672 490.639 655.672C499.611 655.672 506.759 650.341 512.507 639.381C513.656 637.2 517.224 637.2 518.36 639.381C527.041 655.943 539.012 659.702 555.627 651.477C556.73 650.935 558.038 651.041 559.036 651.761C560.027 652.481 560.542 653.697 560.364 654.912C557.642 673.404 564.955 683.472 583.374 686.61C584.59 686.815 585.581 687.674 585.964 688.843C586.347 690.012 586.043 691.294 585.184 692.173C572.117 705.531 572.117 717.977 585.184 731.342C586.043 732.221 586.347 733.503 585.964 734.672C585.581 735.841 584.59 736.707 583.374 736.905C564.955 740.043 557.635 750.111 560.364 768.589C560.536 769.805 560.027 771.014 559.036 771.741C558.052 772.461 556.73 772.567 555.627 772.031C538.999 763.813 527.048 767.565 518.36 784.134C517.785 785.218 516.656 785.905 515.433 785.905ZM490.633 761.23C500.582 761.23 508.906 766.224 515.433 776.088C524.649 762.188 537.459 757.9 553.268 763.813C552.562 747.125 560.542 736.132 576.635 731.64C566.25 718.546 566.25 704.956 576.635 691.869C560.536 687.383 552.555 676.39 553.268 659.695C537.492 665.588 524.649 661.327 515.433 647.421C508.906 657.284 500.589 662.279 490.639 662.279C486.563 662.279 482.203 661.413 477.618 659.702C478.332 676.397 470.344 687.39 454.251 691.882C464.63 704.969 464.63 718.559 454.251 731.653C470.351 736.145 478.332 747.132 477.618 763.82C482.203 762.095 486.563 761.23 490.633 761.23V761.23Z" fill="#FF8E2E"/>
<path d="M515.447 745.698C496.737 745.698 481.51 730.477 481.51 711.761C481.51 693.045 496.737 677.817 515.447 677.817C534.156 677.817 549.384 693.045 549.384 711.761C549.384 730.477 534.156 745.698 515.447 745.698ZM515.447 684.423C500.378 684.423 488.116 696.685 488.116 711.761C488.116 726.83 500.371 739.092 515.447 739.092C530.523 739.092 542.778 726.83 542.778 711.761C542.778 696.685 530.516 684.423 515.447 684.423V684.423Z" fill="#FF8E2E"/>
<path d="M515.446 730.385C505.179 730.385 496.829 722.027 496.829 711.761C496.829 701.495 505.186 693.137 515.446 693.137C525.719 693.137 534.076 701.495 534.076 711.761C534.076 722.027 525.712 730.385 515.446 730.385V730.385ZM515.446 699.744C508.82 699.744 503.435 705.135 503.435 711.761C503.435 718.387 508.82 723.778 515.446 723.778C522.079 723.778 527.47 718.387 527.47 711.761C527.47 705.135 522.079 699.744 515.446 699.744Z" fill="#FF8E2E"/>
<path d="M431.062 849.803C429.833 849.803 428.71 849.115 428.136 848.032C421.608 835.572 412.696 832.672 400.078 838.922C398.975 839.45 397.667 839.351 396.669 838.631C395.672 837.911 395.163 836.695 395.341 835.473C397.396 821.567 391.893 813.982 378.026 811.624C376.817 811.419 375.819 810.554 375.436 809.384C375.053 808.215 375.357 806.94 376.216 806.055C386.039 795.993 386.039 786.619 376.216 776.557C375.357 775.672 375.059 774.397 375.436 773.227C375.813 772.058 376.81 771.192 378.026 770.988C391.893 768.629 397.396 761.045 395.341 747.138C395.163 745.923 395.672 744.707 396.669 743.981C397.667 743.26 398.981 743.155 400.078 743.69C412.696 749.933 421.602 747.039 428.136 734.586C429.278 732.406 432.846 732.406 433.989 734.586C440.523 747.046 449.435 749.933 462.046 743.69C463.685 742.877 465.654 743.551 466.473 745.19C467.285 746.828 466.612 748.803 464.973 749.616C450.882 756.599 439.248 754.115 431.062 742.481C423.907 752.642 414.13 755.832 402.364 751.803C402.562 764.229 396.524 772.553 384.639 776.213C392.091 786.156 392.091 796.442 384.639 806.392C396.524 810.058 402.562 818.376 402.364 830.802C414.143 826.779 423.921 829.957 431.062 840.124C438.21 829.957 447.995 826.772 459.761 830.802C459.562 818.376 465.607 810.052 477.499 806.392C468.963 795.009 470.192 783.183 481.185 771.932C482.46 770.638 484.555 770.604 485.856 771.88C487.158 773.148 487.184 775.249 485.909 776.55C476.079 786.605 476.079 795.98 485.909 806.048C486.768 806.927 487.065 808.208 486.689 809.378C486.312 810.547 485.314 811.413 484.099 811.617C470.225 813.976 464.715 821.56 466.77 835.467C466.948 836.689 466.44 837.898 465.442 838.624C464.458 839.351 463.143 839.45 462.033 838.915C449.408 832.672 440.503 835.566 433.976 848.025C433.421 849.115 432.291 849.803 431.062 849.803Z" fill="#FF8E2E"/>
<path d="M431.069 818.481C416.086 818.481 403.903 806.292 403.903 791.309C403.903 776.332 416.092 764.15 431.069 764.15C446.046 764.15 458.235 776.339 458.235 791.309C458.241 806.299 446.052 818.481 431.069 818.481ZM431.069 770.756C419.732 770.756 410.51 779.979 410.51 791.309C410.51 802.652 419.732 811.875 431.069 811.875C442.406 811.875 451.628 802.652 451.628 791.309C451.635 779.972 442.412 770.756 431.069 770.756Z" fill="#FF8E2E"/>
<path d="M431.068 806.55C422.665 806.55 415.827 799.712 415.827 791.309C415.827 782.906 422.665 776.068 431.068 776.068C439.472 776.068 446.31 782.906 446.31 791.309C446.31 799.712 439.472 806.55 431.068 806.55ZM431.068 782.674C426.305 782.674 422.434 786.546 422.434 791.309C422.434 796.072 426.305 799.944 431.068 799.944C435.832 799.944 439.703 796.072 439.703 791.309C439.703 786.546 435.832 782.674 431.068 782.674Z" fill="#FF8E2E"/>
</g>
<defs>
<clipPath id="clip0">
<rect width="211.406" height="211.406" fill="white" transform="translate(375 638)"/>
</clipPath>
</defs>
</svg>
