<svg width="825" height="864" viewBox="0 0 825 864" fill="none" xmlns="http://www.w3.org/2000/svg">
<path d="M130.35 447.411C128.348 447.408 126.391 446.812 124.727 445.698C123.063 444.585 121.767 443.003 121 441.153C120.234 439.304 120.033 437.268 120.422 435.304C120.811 433.34 121.773 431.536 123.187 430.118L178.601 374.704C180.512 372.857 183.073 371.835 185.731 371.858C188.389 371.881 190.931 372.948 192.81 374.827C194.69 376.706 195.756 379.249 195.779 381.907C195.802 384.564 194.78 387.125 192.934 389.037L137.52 444.451C135.617 446.349 133.038 447.414 130.35 447.411Z" fill="#EB4343"/>
<path d="M185.784 447.411C184.453 447.411 183.134 447.15 181.904 446.641C180.674 446.132 179.556 445.385 178.614 444.444L123.2 389.03C122.194 388.105 121.386 386.986 120.824 385.74C120.262 384.495 119.957 383.149 119.928 381.782C119.9 380.416 120.148 379.058 120.657 377.79C121.167 376.522 121.928 375.37 122.894 374.404C123.86 373.437 125.011 372.676 126.279 372.166C127.547 371.656 128.904 371.407 130.271 371.435C131.637 371.463 132.983 371.767 134.229 372.329C135.475 372.891 136.594 373.698 137.52 374.704L192.934 430.118C194.352 431.535 195.318 433.341 195.71 435.307C196.102 437.273 195.901 439.312 195.135 441.164C194.368 443.017 193.069 444.6 191.402 445.715C189.735 446.829 187.776 447.424 185.771 447.424L185.784 447.411Z" fill="#EB4343"/>
<path d="M252.997 511.211H63.1367C60.4483 511.211 57.87 510.143 55.969 508.242C54.068 506.341 53 503.763 53 501.075V318.046C53 315.358 54.068 312.779 55.969 310.878C57.87 308.977 60.4483 307.909 63.1367 307.909H253.031C255.72 307.909 258.298 308.977 260.199 310.878C262.1 312.779 263.168 315.358 263.168 318.046V501.075C263.168 502.409 262.905 503.73 262.393 504.962C261.882 506.194 261.132 507.313 260.187 508.254C259.242 509.196 258.121 509.942 256.887 510.449C255.653 510.957 254.331 511.216 252.997 511.211ZM73.2734 490.938H242.895V328.183H73.2734V490.938Z" fill="#EB4343"/>
<path d="M193.353 354.619C190.665 354.619 188.086 353.551 186.185 351.65C184.284 349.749 183.216 347.171 183.216 344.483V283.865C183.27 280.674 182.688 277.504 181.503 274.541C180.319 271.577 178.557 268.879 176.319 266.603C174.081 264.328 171.413 262.52 168.47 261.287C165.526 260.053 162.367 259.418 159.175 259.418C155.984 259.418 152.824 260.053 149.881 261.287C146.938 262.52 144.269 264.328 142.032 266.603C139.794 268.879 138.032 271.577 136.847 274.541C135.663 277.504 135.081 280.674 135.134 283.865V344.483C135.134 347.171 134.067 349.749 132.166 351.65C130.265 353.551 127.686 354.619 124.998 354.619C122.309 354.619 119.731 353.551 117.83 351.65C115.929 349.749 114.861 347.171 114.861 344.483V283.865C114.789 277.999 115.881 272.178 118.076 266.738C120.27 261.298 123.523 256.348 127.645 252.174C131.767 248.001 136.677 244.688 142.089 242.426C147.502 240.165 153.309 239 159.175 239C165.041 239 170.849 240.165 176.261 242.426C181.674 244.688 186.584 248.001 190.706 252.174C194.828 256.348 198.08 261.298 200.275 266.738C202.469 272.178 203.562 277.999 203.49 283.865V344.483C203.49 347.171 202.422 349.749 200.521 351.65C198.62 353.551 196.041 354.619 193.353 354.619V354.619Z" fill="#EB4343"/>
<path d="M23.16 109C26.88 109 30.1 109.62 32.82 110.86C35.58 112.1 37.7 113.86 39.18 116.14C40.66 118.42 41.4 121.12 41.4 124.24C41.4 127.32 40.66 130.02 39.18 132.34C37.7 134.62 35.58 136.38 32.82 137.62C30.1 138.82 26.88 139.42 23.16 139.42H14.7V151H4.98V109H23.16ZM22.62 131.5C25.54 131.5 27.76 130.88 29.28 129.64C30.8 128.36 31.56 126.56 31.56 124.24C31.56 121.88 30.8 120.08 29.28 118.84C27.76 117.56 25.54 116.92 22.62 116.92H14.7V131.5H22.62ZM56.6194 122.98C57.7394 121.42 59.2394 120.24 61.1194 119.44C63.0394 118.64 65.2394 118.24 67.7194 118.24V126.88C66.6794 126.8 65.9794 126.76 65.6194 126.76C62.9394 126.76 60.8394 127.52 59.3194 129.04C57.7994 130.52 57.0394 132.76 57.0394 135.76V151H47.6794V118.72H56.6194V122.98ZM88.3519 151.48C84.9519 151.48 81.8919 150.78 79.1719 149.38C76.4919 147.94 74.3919 145.96 72.8719 143.44C71.3519 140.92 70.5919 138.06 70.5919 134.86C70.5919 131.66 71.3519 128.8 72.8719 126.28C74.3919 123.76 76.4919 121.8 79.1719 120.4C81.8919 118.96 84.9519 118.24 88.3519 118.24C91.7519 118.24 94.7919 118.96 97.4719 120.4C100.152 121.8 102.252 123.76 103.772 126.28C105.292 128.8 106.052 131.66 106.052 134.86C106.052 138.06 105.292 140.92 103.772 143.44C102.252 145.96 100.152 147.94 97.4719 149.38C94.7919 150.78 91.7519 151.48 88.3519 151.48ZM88.3519 143.8C90.7519 143.8 92.7119 143 94.2319 141.4C95.7919 139.76 96.5719 137.58 96.5719 134.86C96.5719 132.14 95.7919 129.98 94.2319 128.38C92.7119 126.74 90.7519 125.92 88.3519 125.92C85.9519 125.92 83.9719 126.74 82.4119 128.38C80.8519 129.98 80.0719 132.14 80.0719 134.86C80.0719 137.58 80.8519 139.76 82.4119 141.4C83.9719 143 85.9519 143.8 88.3519 143.8ZM145.188 106.48V151H136.248V147.28C133.928 150.08 130.568 151.48 126.168 151.48C123.128 151.48 120.368 150.8 117.888 149.44C115.448 148.08 113.528 146.14 112.128 143.62C110.728 141.1 110.028 138.18 110.028 134.86C110.028 131.54 110.728 128.62 112.128 126.1C113.528 123.58 115.448 121.64 117.888 120.28C120.368 118.92 123.128 118.24 126.168 118.24C130.288 118.24 133.508 119.54 135.828 122.14V106.48H145.188ZM127.788 143.8C130.148 143.8 132.108 143 133.668 141.4C135.228 139.76 136.008 137.58 136.008 134.86C136.008 132.14 135.228 129.98 133.668 128.38C132.108 126.74 130.148 125.92 127.788 125.92C125.388 125.92 123.408 126.74 121.848 128.38C120.288 129.98 119.508 132.14 119.508 134.86C119.508 137.58 120.288 139.76 121.848 141.4C123.408 143 125.388 143.8 127.788 143.8ZM186.371 118.72V151H177.491V147.16C176.251 148.56 174.771 149.64 173.051 150.4C171.331 151.12 169.471 151.48 167.471 151.48C163.231 151.48 159.871 150.26 157.391 147.82C154.911 145.38 153.671 141.76 153.671 136.96V118.72H163.031V135.58C163.031 140.78 165.211 143.38 169.571 143.38C171.811 143.38 173.611 142.66 174.971 141.22C176.331 139.74 177.011 137.56 177.011 134.68V118.72H186.371ZM210.643 151.48C207.203 151.48 204.103 150.78 201.343 149.38C198.623 147.94 196.483 145.96 194.923 143.44C193.403 140.92 192.643 138.06 192.643 134.86C192.643 131.66 193.403 128.8 194.923 126.28C196.483 123.76 198.623 121.8 201.343 120.4C204.103 118.96 207.203 118.24 210.643 118.24C214.043 118.24 217.003 118.96 219.523 120.4C222.083 121.8 223.943 123.82 225.103 126.46L217.843 130.36C216.163 127.4 213.743 125.92 210.583 125.92C208.143 125.92 206.123 126.72 204.523 128.32C202.923 129.92 202.123 132.1 202.123 134.86C202.123 137.62 202.923 139.8 204.523 141.4C206.123 143 208.143 143.8 210.583 143.8C213.783 143.8 216.203 142.32 217.843 139.36L225.103 143.32C223.943 145.88 222.083 147.88 219.523 149.32C217.003 150.76 214.043 151.48 210.643 151.48ZM251.781 149.44C250.861 150.12 249.721 150.64 248.361 151C247.041 151.32 245.641 151.48 244.161 151.48C240.321 151.48 237.341 150.5 235.221 148.54C233.141 146.58 232.101 143.7 232.101 139.9V126.64H227.121V119.44H232.101V111.58H241.461V119.44H249.501V126.64H241.461V139.78C241.461 141.14 241.801 142.2 242.481 142.96C243.201 143.68 244.201 144.04 245.481 144.04C246.961 144.04 248.221 143.64 249.261 142.84L251.781 149.44ZM267.895 151.48C265.215 151.48 262.595 151.16 260.035 150.52C257.475 149.84 255.435 149 253.915 148L257.035 141.28C258.475 142.2 260.215 142.96 262.255 143.56C264.295 144.12 266.295 144.4 268.255 144.4C272.215 144.4 274.195 143.42 274.195 141.46C274.195 140.54 273.655 139.88 272.575 139.48C271.495 139.08 269.835 138.74 267.595 138.46C264.955 138.06 262.775 137.6 261.055 137.08C259.335 136.56 257.835 135.64 256.555 134.32C255.315 133 254.695 131.12 254.695 128.68C254.695 126.64 255.275 124.84 256.435 123.28C257.635 121.68 259.355 120.44 261.595 119.56C263.875 118.68 266.555 118.24 269.635 118.24C271.915 118.24 274.175 118.5 276.415 119.02C278.695 119.5 280.575 120.18 282.055 121.06L278.935 127.72C276.095 126.12 272.995 125.32 269.635 125.32C267.635 125.32 266.135 125.6 265.135 126.16C264.135 126.72 263.635 127.44 263.635 128.32C263.635 129.32 264.175 130.02 265.255 130.42C266.335 130.82 268.055 131.2 270.415 131.56C273.055 132 275.215 132.48 276.895 133C278.575 133.48 280.035 134.38 281.275 135.7C282.515 137.02 283.135 138.86 283.135 141.22C283.135 143.22 282.535 145 281.335 146.56C280.135 148.12 278.375 149.34 276.055 150.22C273.775 151.06 271.055 151.48 267.895 151.48ZM23.94 180.24C27.94 180.24 31.16 181.44 33.6 183.84C36.08 186.24 37.32 189.8 37.32 194.52V213H27.96V195.96C27.96 193.4 27.4 191.5 26.28 190.26C25.16 188.98 23.54 188.34 21.42 188.34C19.06 188.34 17.18 189.08 15.78 190.56C14.38 192 13.68 194.16 13.68 197.04V213H4.32V180.72H13.26V184.5C14.5 183.14 16.04 182.1 17.88 181.38C19.72 180.62 21.74 180.24 23.94 180.24ZM61.5159 213.48C58.1159 213.48 55.0559 212.78 52.3359 211.38C49.6559 209.94 47.5559 207.96 46.0359 205.44C44.5159 202.92 43.7559 200.06 43.7559 196.86C43.7559 193.66 44.5159 190.8 46.0359 188.28C47.5559 185.76 49.6559 183.8 52.3359 182.4C55.0559 180.96 58.1159 180.24 61.5159 180.24C64.9159 180.24 67.9559 180.96 70.6359 182.4C73.3159 183.8 75.4159 185.76 76.9359 188.28C78.4559 190.8 79.2159 193.66 79.2159 196.86C79.2159 200.06 78.4559 202.92 76.9359 205.44C75.4159 207.96 73.3159 209.94 70.6359 211.38C67.9559 212.78 64.9159 213.48 61.5159 213.48ZM61.5159 205.8C63.9159 205.8 65.8759 205 67.3959 203.4C68.9559 201.76 69.7359 199.58 69.7359 196.86C69.7359 194.14 68.9559 191.98 67.3959 190.38C65.8759 188.74 63.9159 187.92 61.5159 187.92C59.1159 187.92 57.1359 188.74 55.5759 190.38C54.0159 191.98 53.2359 194.14 53.2359 196.86C53.2359 199.58 54.0159 201.76 55.5759 203.4C57.1359 205 59.1159 205.8 61.5159 205.8ZM106.292 211.44C105.372 212.12 104.232 212.64 102.872 213C101.552 213.32 100.152 213.48 98.6723 213.48C94.8323 213.48 91.8523 212.5 89.7323 210.54C87.6523 208.58 86.6123 205.7 86.6123 201.9V188.64H81.6323V181.44H86.6123V173.58H95.9723V181.44H104.012V188.64H95.9723V201.78C95.9723 203.14 96.3123 204.2 96.9923 204.96C97.7123 205.68 98.7123 206.04 99.9923 206.04C101.472 206.04 102.732 205.64 103.772 204.84L106.292 211.44ZM138.799 181.44H147.079V188.64H139.039V213H129.679V188.64H124.699V181.44H129.679V180C129.679 176.32 130.759 173.4 132.919 171.24C135.119 169.08 138.199 168 142.159 168C143.559 168 144.879 168.16 146.119 168.48C147.399 168.76 148.459 169.18 149.299 169.74L146.839 176.52C145.759 175.76 144.499 175.38 143.059 175.38C140.219 175.38 138.799 176.94 138.799 180.06V181.44ZM166.692 213.48C163.292 213.48 160.232 212.78 157.512 211.38C154.832 209.94 152.732 207.96 151.212 205.44C149.692 202.92 148.932 200.06 148.932 196.86C148.932 193.66 149.692 190.8 151.212 188.28C152.732 185.76 154.832 183.8 157.512 182.4C160.232 180.96 163.292 180.24 166.692 180.24C170.092 180.24 173.132 180.96 175.812 182.4C178.492 183.8 180.592 185.76 182.112 188.28C183.632 190.8 184.392 193.66 184.392 196.86C184.392 200.06 183.632 202.92 182.112 205.44C180.592 207.96 178.492 209.94 175.812 211.38C173.132 212.78 170.092 213.48 166.692 213.48ZM166.692 205.8C169.092 205.8 171.052 205 172.572 203.4C174.132 201.76 174.912 199.58 174.912 196.86C174.912 194.14 174.132 191.98 172.572 190.38C171.052 188.74 169.092 187.92 166.692 187.92C164.292 187.92 162.312 188.74 160.752 190.38C159.192 191.98 158.412 194.14 158.412 196.86C158.412 199.58 159.192 201.76 160.752 203.4C162.312 205 164.292 205.8 166.692 205.8ZM223.168 180.72V213H214.288V209.16C213.048 210.56 211.568 211.64 209.848 212.4C208.128 213.12 206.268 213.48 204.268 213.48C200.028 213.48 196.668 212.26 194.188 209.82C191.708 207.38 190.468 203.76 190.468 198.96V180.72H199.828V197.58C199.828 202.78 202.008 205.38 206.368 205.38C208.608 205.38 210.408 204.66 211.768 203.22C213.128 201.74 213.808 199.56 213.808 196.68V180.72H223.168ZM251.46 180.24C255.46 180.24 258.68 181.44 261.12 183.84C263.6 186.24 264.84 189.8 264.84 194.52V213H255.48V195.96C255.48 193.4 254.92 191.5 253.8 190.26C252.68 188.98 251.06 188.34 248.94 188.34C246.58 188.34 244.7 189.08 243.3 190.56C241.9 192 241.2 194.16 241.2 197.04V213H231.84V180.72H240.78V184.5C242.02 183.14 243.56 182.1 245.4 181.38C247.24 180.62 249.26 180.24 251.46 180.24ZM306.555 168.48V213H297.615V209.28C295.295 212.08 291.935 213.48 287.535 213.48C284.495 213.48 281.735 212.8 279.255 211.44C276.815 210.08 274.895 208.14 273.495 205.62C272.095 203.1 271.395 200.18 271.395 196.86C271.395 193.54 272.095 190.62 273.495 188.1C274.895 185.58 276.815 183.64 279.255 182.28C281.735 180.92 284.495 180.24 287.535 180.24C291.655 180.24 294.875 181.54 297.195 184.14V168.48H306.555ZM289.155 205.8C291.515 205.8 293.475 205 295.035 203.4C296.595 201.76 297.375 199.58 297.375 196.86C297.375 194.14 296.595 191.98 295.035 190.38C293.475 188.74 291.515 187.92 289.155 187.92C286.755 187.92 284.775 188.74 283.215 190.38C281.655 191.98 280.875 194.14 280.875 196.86C280.875 199.58 281.655 201.76 283.215 203.4C284.775 205 286.755 205.8 289.155 205.8Z" fill="#EB4343"/>
<path d="M552.452 97.5157C552.35 99.0842 552.147 102.221 553.626 103.885C555.003 107.116 554.902 108.685 556.279 111.917L557.656 115.149L558.931 119.949C576.124 172.943 586.286 236.537 583.242 283.591C580.198 330.646 537.972 419.435 497.47 481.56C495.789 483.034 495.586 486.171 495.484 487.739C495.281 490.876 496.658 494.108 498.137 495.771C499.616 497.435 502.674 499.193 505.834 499.383C508.995 499.573 513.836 498.289 515.619 495.247C571.617 438.776 625.571 364.863 630.644 286.438C635.717 208.014 618.017 162.863 589.562 112.341C586.807 105.878 583.952 100.982 579.516 95.9922C576.559 92.6654 570.644 86.0118 567.484 85.822C558.105 83.6841 552.858 91.2418 552.452 97.5157Z" fill="#FF8E2E"/>
<path d="M523.908 29.049C519.163 28.8581 514.348 30.2374 511.114 31.6802C509.463 33.1866 507.741 36.2631 506.089 37.7696C502.646 43.9226 502.226 53.3429 501.737 64.3334C501.387 72.1837 500.968 81.604 503.712 91.1516L506.455 100.699L507.827 105.473C510.711 111.88 513.665 116.718 516.549 123.125C519.572 126.393 522.596 129.66 527.341 129.851C530.505 129.978 533.738 128.535 535.39 127.029C537.042 125.522 538.763 122.446 538.833 120.876L538.903 119.306C537.531 114.532 537.811 108.252 536.579 100.338C536.859 94.0575 535.627 86.1436 535.836 81.4334C536.046 76.7232 536.186 73.5831 537.908 70.5066C537.978 68.9365 537.978 68.9366 539.629 67.4301C539.629 67.4301 541.211 67.4937 542.793 67.5574C547.538 67.7482 556.959 69.6999 566.309 73.2217C575.66 76.7435 585.011 80.2653 589.686 82.0262C591.268 82.0898 592.78 83.7234 594.362 83.787C597.525 83.9142 599.177 82.4078 602.41 80.9649C605.644 79.5221 605.784 76.382 605.854 74.812C605.993 71.6719 604.551 68.4681 603.04 66.8345C583.526 42.4566 550.658 33.2705 531.677 32.5072L523.908 29.049Z" fill="#FF8E2E"/>
<path d="M326.68 529.92H313.24V522H349.84V529.92H336.4V564H326.68V529.92ZM362.647 535.98C363.767 534.42 365.267 533.24 367.147 532.44C369.067 531.64 371.267 531.24 373.747 531.24V539.88C372.707 539.8 372.007 539.76 371.647 539.76C368.967 539.76 366.867 540.52 365.347 542.04C363.827 543.52 363.067 545.76 363.067 548.76V564H353.707V531.72H362.647V535.98ZM412.465 531.72L397.885 565.98C396.405 569.7 394.565 572.32 392.365 573.84C390.205 575.36 387.585 576.12 384.505 576.12C382.825 576.12 381.165 575.86 379.525 575.34C377.885 574.82 376.545 574.1 375.505 573.18L378.925 566.52C379.645 567.16 380.465 567.66 381.385 568.02C382.345 568.38 383.285 568.56 384.205 568.56C385.485 568.56 386.525 568.24 387.325 567.6C388.125 567 388.845 565.98 389.485 564.54L389.605 564.24L375.625 531.72H385.285L394.345 553.62L403.465 531.72H412.465ZM448.877 564.48C445.437 564.48 442.337 563.78 439.577 562.38C436.857 560.94 434.717 558.96 433.157 556.44C431.637 553.92 430.877 551.06 430.877 547.86C430.877 544.66 431.637 541.8 433.157 539.28C434.717 536.76 436.857 534.8 439.577 533.4C442.337 531.96 445.437 531.24 448.877 531.24C452.277 531.24 455.237 531.96 457.757 533.4C460.317 534.8 462.177 536.82 463.337 539.46L456.077 543.36C454.397 540.4 451.977 538.92 448.817 538.92C446.377 538.92 444.357 539.72 442.757 541.32C441.157 542.92 440.357 545.1 440.357 547.86C440.357 550.62 441.157 552.8 442.757 554.4C444.357 556 446.377 556.8 448.817 556.8C452.017 556.8 454.437 555.32 456.077 552.36L463.337 556.32C462.177 558.88 460.317 560.88 457.757 562.32C455.237 563.76 452.277 564.48 448.877 564.48ZM488.112 531.24C492.112 531.24 495.332 532.44 497.772 534.84C500.252 537.24 501.492 540.8 501.492 545.52V564H492.132V546.96C492.132 544.4 491.572 542.5 490.452 541.26C489.332 539.98 487.712 539.34 485.592 539.34C483.232 539.34 481.352 540.08 479.952 541.56C478.552 543 477.852 545.16 477.852 548.04V564H468.492V519.48H477.852V535.08C479.092 533.84 480.592 532.9 482.352 532.26C484.112 531.58 486.032 531.24 488.112 531.24ZM522.996 531.24C527.996 531.24 531.836 532.44 534.516 534.84C537.196 537.2 538.536 540.78 538.536 545.58V564H529.776V559.98C528.016 562.98 524.736 564.48 519.936 564.48C517.456 564.48 515.296 564.06 513.456 563.22C511.656 562.38 510.276 561.22 509.316 559.74C508.356 558.26 507.876 556.58 507.876 554.7C507.876 551.7 508.996 549.34 511.236 547.62C513.516 545.9 517.016 545.04 521.736 545.04H529.176C529.176 543 528.556 541.44 527.316 540.36C526.076 539.24 524.216 538.68 521.736 538.68C520.016 538.68 518.316 538.96 516.636 539.52C514.996 540.04 513.596 540.76 512.436 541.68L509.076 535.14C510.836 533.9 512.936 532.94 515.376 532.26C517.856 531.58 520.396 531.24 522.996 531.24ZM522.276 558.18C523.876 558.18 525.296 557.82 526.536 557.1C527.776 556.34 528.656 555.24 529.176 553.8V550.5H522.756C518.916 550.5 516.996 551.76 516.996 554.28C516.996 555.48 517.456 556.44 518.376 557.16C519.336 557.84 520.636 558.18 522.276 558.18ZM566.628 531.24C570.628 531.24 573.848 532.44 576.288 534.84C578.768 537.24 580.008 540.8 580.008 545.52V564H570.648V546.96C570.648 544.4 570.088 542.5 568.968 541.26C567.848 539.98 566.228 539.34 564.108 539.34C561.748 539.34 559.868 540.08 558.468 541.56C557.068 543 556.368 545.16 556.368 548.04V564H547.008V531.72H555.948V535.5C557.188 534.14 558.728 533.1 560.568 532.38C562.408 531.62 564.428 531.24 566.628 531.24ZM622.143 531.72V558.6C622.143 564.52 620.603 568.92 617.523 571.8C614.443 574.68 609.943 576.12 604.023 576.12C600.903 576.12 597.943 575.74 595.143 574.98C592.343 574.22 590.023 573.12 588.183 571.68L591.903 564.96C593.263 566.08 594.983 566.96 597.063 567.6C599.143 568.28 601.223 568.62 603.303 568.62C606.543 568.62 608.923 567.88 610.443 566.4C612.003 564.96 612.783 562.76 612.783 559.8V558.42C610.343 561.1 606.943 562.44 602.583 562.44C599.623 562.44 596.903 561.8 594.423 560.52C591.983 559.2 590.043 557.36 588.603 555C587.163 552.64 586.443 549.92 586.443 546.84C586.443 543.76 587.163 541.04 588.603 538.68C590.043 536.32 591.983 534.5 594.423 533.22C596.903 531.9 599.623 531.24 602.583 531.24C607.263 531.24 610.823 532.78 613.263 535.86V531.72H622.143ZM604.443 554.76C606.923 554.76 608.943 554.04 610.503 552.6C612.103 551.12 612.903 549.2 612.903 546.84C612.903 544.48 612.103 542.58 610.503 541.14C608.943 539.66 606.923 538.92 604.443 538.92C601.963 538.92 599.923 539.66 598.323 541.14C596.723 542.58 595.923 544.48 595.923 546.84C595.923 549.2 596.723 551.12 598.323 552.6C599.923 554.04 601.963 554.76 604.443 554.76ZM630.855 531.72H640.215V564H630.855V531.72ZM635.535 527.22C633.815 527.22 632.415 526.72 631.335 525.72C630.255 524.72 629.715 523.48 629.715 522C629.715 520.52 630.255 519.28 631.335 518.28C632.415 517.28 633.815 516.78 635.535 516.78C637.255 516.78 638.655 517.26 639.735 518.22C640.815 519.18 641.355 520.38 641.355 521.82C641.355 523.38 640.815 524.68 639.735 525.72C638.655 526.72 637.255 527.22 635.535 527.22ZM668.522 531.24C672.522 531.24 675.742 532.44 678.182 534.84C680.662 537.24 681.902 540.8 681.902 545.52V564H672.542V546.96C672.542 544.4 671.982 542.5 670.862 541.26C669.742 539.98 668.122 539.34 666.002 539.34C663.642 539.34 661.762 540.08 660.362 541.56C658.962 543 658.262 545.16 658.262 548.04V564H648.902V531.72H657.842V535.5C659.082 534.14 660.622 533.1 662.462 532.38C664.302 531.62 666.322 531.24 668.522 531.24ZM724.038 531.72V558.6C724.038 564.52 722.498 568.92 719.418 571.8C716.338 574.68 711.838 576.12 705.918 576.12C702.798 576.12 699.838 575.74 697.038 574.98C694.238 574.22 691.918 573.12 690.078 571.68L693.798 564.96C695.158 566.08 696.878 566.96 698.958 567.6C701.038 568.28 703.118 568.62 705.198 568.62C708.438 568.62 710.818 567.88 712.338 566.4C713.898 564.96 714.678 562.76 714.678 559.8V558.42C712.238 561.1 708.838 562.44 704.478 562.44C701.518 562.44 698.798 561.8 696.318 560.52C693.878 559.2 691.938 557.36 690.498 555C689.058 552.64 688.338 549.92 688.338 546.84C688.338 543.76 689.058 541.04 690.498 538.68C691.938 536.32 693.878 534.5 696.318 533.22C698.798 531.9 701.518 531.24 704.478 531.24C709.158 531.24 712.718 532.78 715.158 535.86V531.72H724.038ZM706.338 554.76C708.818 554.76 710.838 554.04 712.398 552.6C713.998 551.12 714.798 549.2 714.798 546.84C714.798 544.48 713.998 542.58 712.398 541.14C710.838 539.66 708.818 538.92 706.338 538.92C703.858 538.92 701.818 539.66 700.218 541.14C698.618 542.58 697.818 544.48 697.818 546.84C697.818 549.2 698.618 551.12 700.218 552.6C701.818 554.04 703.858 554.76 706.338 554.76ZM338.14 624.44C337.22 625.12 336.08 625.64 334.72 626C333.4 626.32 332 626.48 330.52 626.48C326.68 626.48 323.7 625.5 321.58 623.54C319.5 621.58 318.46 618.7 318.46 614.9V601.64H313.48V594.44H318.46V586.58H327.82V594.44H335.86V601.64H327.82V614.78C327.82 616.14 328.16 617.2 328.84 617.96C329.56 618.68 330.56 619.04 331.84 619.04C333.32 619.04 334.58 618.64 335.62 617.84L338.14 624.44ZM363.014 593.24C367.014 593.24 370.234 594.44 372.674 596.84C375.154 599.24 376.394 602.8 376.394 607.52V626H367.034V608.96C367.034 606.4 366.474 604.5 365.354 603.26C364.234 601.98 362.614 601.34 360.494 601.34C358.134 601.34 356.254 602.08 354.854 603.56C353.454 605 352.754 607.16 352.754 610.04V626H343.394V581.48H352.754V597.08C353.994 595.84 355.494 594.9 357.254 594.26C359.014 593.58 360.934 593.24 363.014 593.24ZM416.85 609.98C416.85 610.1 416.79 610.94 416.67 612.5H392.25C392.69 614.5 393.73 616.08 395.37 617.24C397.01 618.4 399.05 618.98 401.49 618.98C403.17 618.98 404.65 618.74 405.93 618.26C407.25 617.74 408.47 616.94 409.59 615.86L414.57 621.26C411.53 624.74 407.09 626.48 401.25 626.48C397.61 626.48 394.39 625.78 391.59 624.38C388.79 622.94 386.63 620.96 385.11 618.44C383.59 615.92 382.83 613.06 382.83 609.86C382.83 606.7 383.57 603.86 385.05 601.34C386.57 598.78 388.63 596.8 391.23 595.4C393.87 593.96 396.81 593.24 400.05 593.24C403.21 593.24 406.07 593.92 408.63 595.28C411.19 596.64 413.19 598.6 414.63 601.16C416.11 603.68 416.85 606.62 416.85 609.98ZM400.11 600.32C397.99 600.32 396.21 600.92 394.77 602.12C393.33 603.32 392.45 604.96 392.13 607.04H408.03C407.71 605 406.83 603.38 405.39 602.18C403.95 600.94 402.19 600.32 400.11 600.32ZM455.674 626.48C452.234 626.48 449.134 625.78 446.374 624.38C443.654 622.94 441.514 620.96 439.954 618.44C438.434 615.92 437.674 613.06 437.674 609.86C437.674 606.66 438.434 603.8 439.954 601.28C441.514 598.76 443.654 596.8 446.374 595.4C449.134 593.96 452.234 593.24 455.674 593.24C459.074 593.24 462.034 593.96 464.554 595.4C467.114 596.8 468.974 598.82 470.134 601.46L462.874 605.36C461.194 602.4 458.774 600.92 455.614 600.92C453.174 600.92 451.154 601.72 449.554 603.32C447.954 604.92 447.154 607.1 447.154 609.86C447.154 612.62 447.954 614.8 449.554 616.4C451.154 618 453.174 618.8 455.614 618.8C458.814 618.8 461.234 617.32 462.874 614.36L470.134 618.32C468.974 620.88 467.114 622.88 464.554 624.32C462.034 625.76 459.074 626.48 455.674 626.48ZM484.463 597.98C485.583 596.42 487.083 595.24 488.963 594.44C490.883 593.64 493.083 593.24 495.563 593.24V601.88C494.523 601.8 493.823 601.76 493.463 601.76C490.783 601.76 488.683 602.52 487.163 604.04C485.643 605.52 484.883 607.76 484.883 610.76V626H475.523V593.72H484.463V597.98ZM501.129 593.72H510.489V626H501.129V593.72ZM505.809 589.22C504.089 589.22 502.689 588.72 501.609 587.72C500.529 586.72 499.989 585.48 499.989 584C499.989 582.52 500.529 581.28 501.609 580.28C502.689 579.28 504.089 578.78 505.809 578.78C507.529 578.78 508.929 579.26 510.009 580.22C511.089 581.18 511.629 582.38 511.629 583.82C511.629 585.38 511.089 586.68 510.009 587.72C508.929 588.72 507.529 589.22 505.809 589.22ZM539.995 624.44C539.075 625.12 537.935 625.64 536.575 626C535.255 626.32 533.855 626.48 532.375 626.48C528.535 626.48 525.555 625.5 523.435 623.54C521.355 621.58 520.315 618.7 520.315 614.9V601.64H515.335V594.44H520.315V586.58H529.675V594.44H537.715V601.64H529.675V614.78C529.675 616.14 530.015 617.2 530.695 617.96C531.415 618.68 532.415 619.04 533.695 619.04C535.175 619.04 536.435 618.64 537.475 617.84L539.995 624.44ZM575.874 609.98C575.874 610.1 575.814 610.94 575.694 612.5H551.274C551.714 614.5 552.754 616.08 554.394 617.24C556.034 618.4 558.074 618.98 560.514 618.98C562.194 618.98 563.674 618.74 564.954 618.26C566.274 617.74 567.494 616.94 568.614 615.86L573.594 621.26C570.554 624.74 566.114 626.48 560.274 626.48C556.634 626.48 553.414 625.78 550.614 624.38C547.814 622.94 545.654 620.96 544.134 618.44C542.614 615.92 541.854 613.06 541.854 609.86C541.854 606.7 542.594 603.86 544.074 601.34C545.594 598.78 547.654 596.8 550.254 595.4C552.894 593.96 555.834 593.24 559.074 593.24C562.234 593.24 565.094 593.92 567.654 595.28C570.214 596.64 572.214 598.6 573.654 601.16C575.134 603.68 575.874 606.62 575.874 609.98ZM559.134 600.32C557.014 600.32 555.234 600.92 553.794 602.12C552.354 603.32 551.474 604.96 551.154 607.04H567.054C566.734 605 565.854 603.38 564.414 602.18C562.974 600.94 561.214 600.32 559.134 600.32ZM591.045 597.98C592.165 596.42 593.665 595.24 595.545 594.44C597.465 593.64 599.665 593.24 602.145 593.24V601.88C601.105 601.8 600.405 601.76 600.045 601.76C597.365 601.76 595.265 602.52 593.745 604.04C592.225 605.52 591.465 607.76 591.465 610.76V626H582.105V593.72H591.045V597.98ZM607.711 593.72H617.071V626H607.711V593.72ZM612.391 589.22C610.671 589.22 609.271 588.72 608.191 587.72C607.111 586.72 606.571 585.48 606.571 584C606.571 582.52 607.111 581.28 608.191 580.28C609.271 579.28 610.671 578.78 612.391 578.78C614.111 578.78 615.511 579.26 616.591 580.22C617.671 581.18 618.211 582.38 618.211 583.82C618.211 585.38 617.671 586.68 616.591 587.72C615.511 588.72 614.111 589.22 612.391 589.22ZM638.778 593.24C643.778 593.24 647.618 594.44 650.298 596.84C652.978 599.2 654.318 602.78 654.318 607.58V626H645.558V621.98C643.798 624.98 640.518 626.48 635.718 626.48C633.238 626.48 631.078 626.06 629.238 625.22C627.438 624.38 626.058 623.22 625.098 621.74C624.138 620.26 623.658 618.58 623.658 616.7C623.658 613.7 624.778 611.34 627.018 609.62C629.298 607.9 632.798 607.04 637.518 607.04H644.958C644.958 605 644.338 603.44 643.098 602.36C641.858 601.24 639.998 600.68 637.518 600.68C635.798 600.68 634.098 600.96 632.418 601.52C630.778 602.04 629.378 602.76 628.218 603.68L624.858 597.14C626.618 595.9 628.718 594.94 631.158 594.26C633.638 593.58 636.178 593.24 638.778 593.24ZM638.058 620.18C639.658 620.18 641.078 619.82 642.318 619.1C643.558 618.34 644.438 617.24 644.958 615.8V612.5H638.538C634.698 612.5 632.778 613.76 632.778 616.28C632.778 617.48 633.238 618.44 634.158 619.16C635.118 619.84 636.418 620.18 638.058 620.18ZM336.4 655.24C339.4 655.24 342.12 655.94 344.56 657.34C347.04 658.7 348.98 660.64 350.38 663.16C351.78 665.64 352.48 668.54 352.48 671.86C352.48 675.18 351.78 678.1 350.38 680.62C348.98 683.1 347.04 685.04 344.56 686.44C342.12 687.8 339.4 688.48 336.4 688.48C332.28 688.48 329.04 687.18 326.68 684.58V699.64H317.32V655.72H326.26V659.44C328.58 656.64 331.96 655.24 336.4 655.24ZM334.78 680.8C337.18 680.8 339.14 680 340.66 678.4C342.22 676.76 343 674.58 343 671.86C343 669.14 342.22 666.98 340.66 665.38C339.14 663.74 337.18 662.92 334.78 662.92C332.38 662.92 330.4 663.74 328.84 665.38C327.32 666.98 326.56 669.14 326.56 671.86C326.56 674.58 327.32 676.76 328.84 678.4C330.4 680 332.38 680.8 334.78 680.8ZM358.746 643.48H368.106V688H358.746V643.48ZM408.413 671.98C408.413 672.1 408.353 672.94 408.233 674.5H383.813C384.253 676.5 385.293 678.08 386.933 679.24C388.573 680.4 390.613 680.98 393.053 680.98C394.733 680.98 396.213 680.74 397.493 680.26C398.813 679.74 400.033 678.94 401.153 677.86L406.133 683.26C403.093 686.74 398.653 688.48 392.813 688.48C389.173 688.48 385.953 687.78 383.153 686.38C380.353 684.94 378.193 682.96 376.673 680.44C375.153 677.92 374.393 675.06 374.393 671.86C374.393 668.7 375.133 665.86 376.613 663.34C378.133 660.78 380.193 658.8 382.793 657.4C385.433 655.96 388.373 655.24 391.613 655.24C394.773 655.24 397.633 655.92 400.193 657.28C402.753 658.64 404.753 660.6 406.193 663.16C407.673 665.68 408.413 668.62 408.413 671.98ZM391.673 662.32C389.553 662.32 387.773 662.92 386.333 664.12C384.893 665.32 384.013 666.96 383.693 669.04H399.593C399.273 667 398.393 665.38 396.953 664.18C395.513 662.94 393.753 662.32 391.673 662.32ZM426.785 655.24C431.785 655.24 435.625 656.44 438.305 658.84C440.985 661.2 442.325 664.78 442.325 669.58V688H433.565V683.98C431.805 686.98 428.525 688.48 423.725 688.48C421.245 688.48 419.085 688.06 417.245 687.22C415.445 686.38 414.065 685.22 413.105 683.74C412.145 682.26 411.665 680.58 411.665 678.7C411.665 675.7 412.785 673.34 415.025 671.62C417.305 669.9 420.805 669.04 425.525 669.04H432.965C432.965 667 432.345 665.44 431.105 664.36C429.865 663.24 428.005 662.68 425.525 662.68C423.805 662.68 422.105 662.96 420.425 663.52C418.785 664.04 417.385 664.76 416.225 665.68L412.865 659.14C414.625 657.9 416.725 656.94 419.165 656.26C421.645 655.58 424.185 655.24 426.785 655.24ZM426.065 682.18C427.665 682.18 429.085 681.82 430.325 681.1C431.565 680.34 432.445 679.24 432.965 677.8V674.5H426.545C422.705 674.5 420.785 675.76 420.785 678.28C420.785 679.48 421.245 680.44 422.165 681.16C423.125 681.84 424.425 682.18 426.065 682.18ZM461.657 688.48C458.977 688.48 456.357 688.16 453.797 687.52C451.237 686.84 449.197 686 447.677 685L450.797 678.28C452.237 679.2 453.977 679.96 456.017 680.56C458.057 681.12 460.057 681.4 462.017 681.4C465.977 681.4 467.957 680.42 467.957 678.46C467.957 677.54 467.417 676.88 466.337 676.48C465.257 676.08 463.597 675.74 461.357 675.46C458.717 675.06 456.537 674.6 454.817 674.08C453.097 673.56 451.597 672.64 450.317 671.32C449.077 670 448.457 668.12 448.457 665.68C448.457 663.64 449.037 661.84 450.197 660.28C451.397 658.68 453.117 657.44 455.357 656.56C457.637 655.68 460.317 655.24 463.397 655.24C465.677 655.24 467.937 655.5 470.177 656.02C472.457 656.5 474.337 657.18 475.817 658.06L472.697 664.72C469.857 663.12 466.757 662.32 463.397 662.32C461.397 662.32 459.897 662.6 458.897 663.16C457.897 663.72 457.397 664.44 457.397 665.32C457.397 666.32 457.937 667.02 459.017 667.42C460.097 667.82 461.817 668.2 464.177 668.56C466.817 669 468.977 669.48 470.657 670C472.337 670.48 473.797 671.38 475.037 672.7C476.277 674.02 476.897 675.86 476.897 678.22C476.897 680.22 476.297 682 475.097 683.56C473.897 685.12 472.137 686.34 469.817 687.22C467.537 688.06 464.817 688.48 461.657 688.48ZM514.292 671.98C514.292 672.1 514.232 672.94 514.112 674.5H489.692C490.132 676.5 491.172 678.08 492.812 679.24C494.452 680.4 496.492 680.98 498.932 680.98C500.612 680.98 502.092 680.74 503.372 680.26C504.692 679.74 505.912 678.94 507.032 677.86L512.012 683.26C508.972 686.74 504.532 688.48 498.692 688.48C495.052 688.48 491.832 687.78 489.032 686.38C486.232 684.94 484.072 682.96 482.552 680.44C481.032 677.92 480.272 675.06 480.272 671.86C480.272 668.7 481.012 665.86 482.492 663.34C484.012 660.78 486.072 658.8 488.672 657.4C491.312 655.96 494.252 655.24 497.492 655.24C500.652 655.24 503.512 655.92 506.072 657.28C508.632 658.64 510.632 660.6 512.072 663.16C513.552 665.68 514.292 668.62 514.292 671.98ZM497.552 662.32C495.432 662.32 493.652 662.92 492.212 664.12C490.772 665.32 489.892 666.96 489.572 669.04H505.472C505.152 667 504.272 665.38 502.832 664.18C501.392 662.94 499.632 662.32 497.552 662.32Z" fill="#333333"/>
<g clip-path="url(#clip0)">
<path d="M621.142 797.917C619.863 797.917 618.694 797.202 618.096 796.075C609.069 778.832 596.619 774.921 579.335 783.48C578.18 784.03 576.819 783.927 575.788 783.177C574.756 782.428 574.22 781.163 574.406 779.891C577.238 760.662 569.628 750.191 550.46 746.926C549.202 746.712 548.164 745.819 547.765 744.602C547.366 743.385 547.683 742.051 548.576 741.137C562.161 727.229 562.161 714.276 548.576 700.375C547.683 699.461 547.366 698.127 547.765 696.91C548.164 695.693 549.195 694.792 550.46 694.586C569.634 691.321 577.238 680.836 574.406 661.6C574.22 660.335 574.749 659.07 575.788 658.321C576.826 657.571 578.194 657.454 579.335 658.025C585.179 660.919 590.562 662.391 595.34 662.391C604.676 662.391 612.115 656.842 618.096 645.437C619.293 643.168 623.005 643.168 624.188 645.437C633.221 662.672 645.679 666.584 662.969 658.025C664.118 657.461 665.479 657.571 666.517 658.321C667.548 659.07 668.084 660.335 667.899 661.6C665.066 680.843 672.677 691.321 691.844 694.586C693.109 694.799 694.141 695.693 694.539 696.91C694.938 698.127 694.622 699.461 693.728 700.375C680.129 714.276 680.129 727.229 693.728 741.137C694.622 742.051 694.938 743.385 694.539 744.602C694.141 745.819 693.109 746.719 691.844 746.926C672.677 750.191 665.059 760.669 667.899 779.898C668.078 781.163 667.548 782.421 666.517 783.177C665.493 783.927 664.118 784.037 662.969 783.48C645.665 774.927 633.228 778.832 624.188 796.075C623.589 797.202 622.414 797.917 621.142 797.917ZM595.333 772.239C605.687 772.239 614.349 777.437 621.142 787.701C630.733 773.236 644.063 768.774 660.515 774.927C659.779 757.561 668.084 746.121 684.832 741.446C674.024 727.82 674.024 713.678 684.832 700.059C668.078 695.391 659.773 683.951 660.515 666.577C644.098 672.71 630.733 668.276 621.142 653.804C614.349 664.068 605.694 669.266 595.34 669.266C591.098 669.266 586.561 668.365 581.789 666.584C582.532 683.957 574.22 695.397 557.473 700.072C568.273 713.692 568.273 727.834 557.473 741.46C574.227 746.135 582.532 757.568 581.789 774.934C586.561 773.14 591.098 772.239 595.333 772.239V772.239Z" fill="#FF8E2E"/>
<path d="M621.156 756.076C601.686 756.076 585.839 740.236 585.839 720.759C585.839 701.282 601.686 685.435 621.156 685.435C640.626 685.435 656.473 701.282 656.473 720.759C656.473 740.236 640.626 756.076 621.156 756.076ZM621.156 692.31C605.474 692.31 592.714 705.07 592.714 720.759C592.714 736.441 605.467 749.201 621.156 749.201C636.845 749.201 649.598 736.441 649.598 720.759C649.598 705.07 636.838 692.31 621.156 692.31V692.31Z" fill="#FF8E2E"/>
<path d="M621.155 740.14C610.471 740.14 601.781 731.443 601.781 720.759C601.781 710.076 610.478 701.379 621.155 701.379C631.846 701.379 640.542 710.076 640.542 720.759C640.542 731.443 631.839 740.14 621.155 740.14V740.14ZM621.155 708.254C614.259 708.254 608.656 713.864 608.656 720.759C608.656 727.655 614.259 733.265 621.155 733.265C628.057 733.265 633.667 727.655 633.667 720.759C633.667 713.864 628.057 708.254 621.155 708.254Z" fill="#FF8E2E"/>
<path d="M533.341 864.412C532.062 864.412 530.894 863.697 530.295 862.57C523.503 849.604 514.229 846.586 501.097 853.089C499.949 853.639 498.588 853.536 497.55 852.787C496.512 852.037 495.982 850.772 496.168 849.501C498.306 835.029 492.579 827.136 478.149 824.682C476.89 824.469 475.852 823.568 475.454 822.351C475.055 821.134 475.371 819.807 476.265 818.886C486.488 808.416 486.488 798.66 476.265 788.189C475.371 787.268 475.062 785.941 475.454 784.724C475.845 783.507 476.884 782.607 478.149 782.394C492.579 779.939 498.306 772.047 496.168 757.575C495.982 756.31 496.512 755.045 497.55 754.289C498.588 753.539 499.956 753.429 501.097 753.986C514.229 760.483 523.496 757.472 530.295 744.512C531.485 742.244 535.197 742.244 536.387 744.512C543.186 757.479 552.46 760.483 565.585 753.986C567.29 753.141 569.339 753.842 570.191 755.547C571.037 757.252 570.335 759.307 568.63 760.153C553.966 767.42 541.859 764.835 533.341 752.728C525.895 763.302 515.72 766.622 503.476 762.429C503.682 775.361 497.399 784.023 485.03 787.832C492.785 798.179 492.785 808.883 485.03 819.237C497.399 823.052 503.682 831.708 503.476 844.64C515.734 840.453 525.909 843.76 533.341 854.341C540.78 843.76 550.962 840.446 563.206 844.64C563 831.708 569.29 823.046 581.665 819.237C572.783 807.391 574.062 795.085 585.502 783.377C586.829 782.029 589.008 781.995 590.362 783.322C591.717 784.642 591.744 786.828 590.417 788.182C580.187 798.646 580.187 808.402 590.417 818.879C591.311 819.794 591.62 821.127 591.229 822.344C590.837 823.561 589.799 824.462 588.534 824.675C574.096 827.129 568.362 835.022 570.5 849.494C570.686 850.766 570.157 852.024 569.119 852.78C568.094 853.536 566.726 853.639 565.571 853.082C552.433 846.586 543.165 849.597 536.373 862.563C535.795 863.697 534.62 864.412 533.341 864.412Z" fill="#FF8E2E"/>
<path d="M533.348 831.818C517.756 831.818 505.078 819.134 505.078 803.541C505.078 787.955 517.763 775.278 533.348 775.278C548.934 775.278 561.618 787.962 561.618 803.541C561.625 819.14 548.941 831.818 533.348 831.818ZM533.348 782.153C521.551 782.153 511.953 791.75 511.953 803.541C511.953 815.345 521.551 824.943 533.348 824.943C545.146 824.943 554.743 815.345 554.743 803.541C554.75 791.744 545.153 782.153 533.348 782.153Z" fill="#FF8E2E"/>
<path d="M533.348 819.402C524.603 819.402 517.487 812.286 517.487 803.541C517.487 794.796 524.603 787.681 533.348 787.681C542.093 787.681 549.208 794.796 549.208 803.541C549.208 812.286 542.093 819.402 533.348 819.402ZM533.348 794.556C528.391 794.556 524.362 798.584 524.362 803.541C524.362 808.498 528.391 812.527 533.348 812.527C538.305 812.527 542.333 808.498 542.333 803.541C542.333 798.584 538.305 794.556 533.348 794.556Z" fill="#FF8E2E"/>
</g>
<defs>
<clipPath id="clip0">
<rect width="220" height="220" fill="white" transform="translate(475 644)"/>
</clipPath>
</defs>
</svg>
