<svg width="405" height="405" viewBox="0 0 405 405" fill="none" xmlns="http://www.w3.org/2000/svg">
<path d="M189.844 25.3125L0 75.9375V303.75L189.844 354.375L379.688 303.75V75.9375L189.844 25.3125ZM25.2631 285.135L25.1147 113.906L177.187 154.459L177.187 325.648L25.2631 285.135ZM25.1147 88.5938L88.4965 71.6921L253.125 115.593V115.646L189.844 132.522L25.1147 88.5938ZM354.424 285.135L202.5 325.648L202.501 154.459L253.125 140.959V202.658L303.75 189.158V127.459L354.573 113.906L354.424 285.135ZM303.75 102.147V102.097L139.114 58.1942L189.844 44.6663L354.573 88.5938L303.75 102.147Z" fill="#607D8B"/>
</svg>
