<svg width="26" height="26" viewBox="0 0 26 26" fill="none" xmlns="http://www.w3.org/2000/svg">
<path d="M25.6263 22.2094L18.9761 15.5593C19.9254 14.0094 20.501 12.2033 20.501 10.2505C20.501 4.59055 15.9096 0 10.2505 0C4.59055 0 0 4.59055 0 10.2505C0 15.9097 4.59055 20.501 10.2505 20.501C12.2033 20.501 14.0094 19.9255 15.5593 18.9795L22.2094 25.6263C22.6766 26.0934 23.4507 26.0901 23.9179 25.6263L25.6263 23.9179C26.0934 23.4507 26.0934 22.6766 25.6263 22.2094ZM10.2505 17.0842C6.47664 17.0842 3.41684 14.0244 3.41684 10.2505C3.41684 6.47664 6.47664 3.41684 10.2505 3.41684C14.0244 3.41684 17.0842 6.47664 17.0842 10.2505C17.0842 14.0244 14.0244 17.0842 10.2505 17.0842Z" fill="white"/>
</svg>
