<svg width="734" height="867" viewBox="0 0 734 867" fill="none" xmlns="http://www.w3.org/2000/svg">
<path d="M68.46 60.9998L54.72 103H44.28L35.04 74.5598L25.5 103H15.12L1.32 60.9998H11.4L20.88 90.5198L30.78 60.9998H39.78L49.38 90.7598L59.16 60.9998H68.46ZM102.444 86.9798C102.444 87.0998 102.384 87.9398 102.264 89.4998H77.8439C78.2839 91.4998 79.3239 93.0798 80.9639 94.2398C82.6039 95.3998 84.6439 95.9798 87.0839 95.9798C88.7639 95.9798 90.2439 95.7398 91.5239 95.2598C92.8439 94.7398 94.0639 93.9398 95.1839 92.8598L100.164 98.2598C97.1239 101.74 92.6839 103.48 86.8439 103.48C83.2039 103.48 79.9839 102.78 77.1839 101.38C74.3839 99.9398 72.2239 97.9598 70.7039 95.4398C69.1839 92.9198 68.4239 90.0598 68.4239 86.8598C68.4239 83.6998 69.1639 80.8598 70.6439 78.3398C72.1639 75.7798 74.2239 73.7998 76.8239 72.3998C79.4639 70.9598 82.4039 70.2398 85.6439 70.2398C88.8039 70.2398 91.6639 70.9198 94.2239 72.2798C96.7839 73.6398 98.7839 75.5998 100.224 78.1598C101.704 80.6798 102.444 83.6198 102.444 86.9798ZM85.7039 77.3198C83.5839 77.3198 81.8039 77.9198 80.3639 79.1198C78.9239 80.3198 78.0439 81.9598 77.7239 84.0398H93.6239C93.3039 81.9998 92.4239 80.3798 90.9839 79.1798C89.5439 77.9398 87.7839 77.3198 85.7039 77.3198ZM108.675 58.4798H118.035V103H108.675V58.4798ZM142.322 103.48C138.882 103.48 135.782 102.78 133.022 101.38C130.302 99.9398 128.162 97.9598 126.602 95.4398C125.082 92.9198 124.322 90.0598 124.322 86.8598C124.322 83.6598 125.082 80.7998 126.602 78.2798C128.162 75.7598 130.302 73.7998 133.022 72.3998C135.782 70.9598 138.882 70.2398 142.322 70.2398C145.722 70.2398 148.682 70.9598 151.202 72.3998C153.762 73.7998 155.622 75.8198 156.782 78.4598L149.522 82.3598C147.842 79.3998 145.422 77.9198 142.262 77.9198C139.822 77.9198 137.802 78.7198 136.202 80.3198C134.602 81.9198 133.802 84.0998 133.802 86.8598C133.802 89.6198 134.602 91.7998 136.202 93.3998C137.802 94.9998 139.822 95.7998 142.262 95.7998C145.462 95.7998 147.882 94.3198 149.522 91.3598L156.782 95.3198C155.622 97.8798 153.762 99.8798 151.202 101.32C148.682 102.76 145.722 103.48 142.322 103.48ZM177.121 103.48C173.721 103.48 170.661 102.78 167.941 101.38C165.261 99.9398 163.161 97.9598 161.641 95.4398C160.121 92.9198 159.361 90.0598 159.361 86.8598C159.361 83.6598 160.121 80.7998 161.641 78.2798C163.161 75.7598 165.261 73.7998 167.941 72.3998C170.661 70.9598 173.721 70.2398 177.121 70.2398C180.521 70.2398 183.561 70.9598 186.241 72.3998C188.921 73.7998 191.021 75.7598 192.541 78.2798C194.061 80.7998 194.821 83.6598 194.821 86.8598C194.821 90.0598 194.061 92.9198 192.541 95.4398C191.021 97.9598 188.921 99.9398 186.241 101.38C183.561 102.78 180.521 103.48 177.121 103.48ZM177.121 95.7998C179.521 95.7998 181.481 94.9998 183.001 93.3998C184.561 91.7598 185.341 89.5798 185.341 86.8598C185.341 84.1398 184.561 81.9798 183.001 80.3798C181.481 78.7398 179.521 77.9198 177.121 77.9198C174.721 77.9198 172.741 78.7398 171.181 80.3798C169.621 81.9798 168.841 84.1398 168.841 86.8598C168.841 89.5798 169.621 91.7598 171.181 93.3998C172.741 94.9998 174.721 95.7998 177.121 95.7998ZM242.418 70.2398C246.458 70.2398 249.658 71.4398 252.018 73.8398C254.418 76.1998 255.618 79.7598 255.618 84.5198V103H246.258V85.9598C246.258 83.3998 245.718 81.4998 244.638 80.2598C243.598 78.9798 242.098 78.3398 240.138 78.3398C237.938 78.3398 236.198 79.0598 234.918 80.4998C233.638 81.8998 232.998 83.9998 232.998 86.7998V103H223.638V85.9598C223.638 80.8798 221.598 78.3398 217.518 78.3398C215.358 78.3398 213.638 79.0598 212.358 80.4998C211.078 81.8998 210.438 83.9998 210.438 86.7998V103H201.078V70.7198H210.018V74.4398C211.218 73.0798 212.678 72.0398 214.398 71.3198C216.158 70.5998 218.078 70.2398 220.158 70.2398C222.438 70.2398 224.498 70.6998 226.338 71.6198C228.178 72.4998 229.658 73.7998 230.778 75.5198C232.098 73.8398 233.758 72.5398 235.758 71.6198C237.798 70.6998 240.018 70.2398 242.418 70.2398ZM295.979 86.9798C295.979 87.0998 295.919 87.9398 295.799 89.4998H271.379C271.819 91.4998 272.859 93.0798 274.499 94.2398C276.139 95.3998 278.179 95.9798 280.619 95.9798C282.299 95.9798 283.779 95.7398 285.059 95.2598C286.379 94.7398 287.599 93.9398 288.719 92.8598L293.699 98.2598C290.659 101.74 286.219 103.48 280.379 103.48C276.739 103.48 273.519 102.78 270.719 101.38C267.919 99.9398 265.759 97.9598 264.239 95.4398C262.719 92.9198 261.959 90.0598 261.959 86.8598C261.959 83.6998 262.699 80.8598 264.179 78.3398C265.699 75.7798 267.759 73.7998 270.359 72.3998C272.999 70.9598 275.939 70.2398 279.179 70.2398C282.339 70.2398 285.199 70.9198 287.759 72.2798C290.319 73.6398 292.319 75.5998 293.759 78.1598C295.239 80.6798 295.979 83.6198 295.979 86.9798ZM279.239 77.3198C277.119 77.3198 275.339 77.9198 273.899 79.1198C272.459 80.3198 271.579 81.9598 271.259 84.0398H287.159C286.839 81.9998 285.959 80.3798 284.519 79.1798C283.079 77.9398 281.319 77.3198 279.239 77.3198ZM340.023 101.44C339.103 102.12 337.963 102.64 336.603 103C335.283 103.32 333.883 103.48 332.403 103.48C328.563 103.48 325.583 102.5 323.463 100.54C321.383 98.5798 320.343 95.6998 320.343 91.8998V78.6398H315.363V71.4398H320.343V63.5798H329.703V71.4398H337.743V78.6398H329.703V91.7798C329.703 93.1398 330.043 94.1998 330.723 94.9598C331.443 95.6798 332.443 96.0398 333.723 96.0398C335.203 96.0398 336.463 95.6398 337.503 94.8398L340.023 101.44ZM359.641 103.48C356.241 103.48 353.181 102.78 350.461 101.38C347.781 99.9398 345.681 97.9598 344.161 95.4398C342.641 92.9198 341.881 90.0598 341.881 86.8598C341.881 83.6598 342.641 80.7998 344.161 78.2798C345.681 75.7598 347.781 73.7998 350.461 72.3998C353.181 70.9598 356.241 70.2398 359.641 70.2398C363.041 70.2398 366.081 70.9598 368.761 72.3998C371.441 73.7998 373.541 75.7598 375.061 78.2798C376.581 80.7998 377.341 83.6598 377.341 86.8598C377.341 90.0598 376.581 92.9198 375.061 95.4398C373.541 97.9598 371.441 99.9398 368.761 101.38C366.081 102.78 363.041 103.48 359.641 103.48ZM359.641 95.7998C362.041 95.7998 364.001 94.9998 365.521 93.3998C367.081 91.7598 367.861 89.5798 367.861 86.8598C367.861 84.1398 367.081 81.9798 365.521 80.3798C364.001 78.7398 362.041 77.9198 359.641 77.9198C357.241 77.9198 355.261 78.7398 353.701 80.3798C352.141 81.9798 351.361 84.1398 351.361 86.8598C351.361 89.5798 352.141 91.7598 353.701 93.3998C355.261 94.9998 357.241 95.7998 359.641 95.7998Z" fill="#FF8E2E"/>
<g clip-path="url(#clip0)">
<path d="M74.4438 179.346C74.3737 179.11 74.2336 178.637 73.9249 178.47C73.5462 178.066 73.4761 177.83 73.0974 177.427L72.7187 177.023L72.2699 176.383C66.8559 169.484 61.9058 160.653 59.8037 153.56C57.7015 146.468 59.1249 131.159 61.7395 119.869C61.908 119.563 61.7679 119.09 61.6978 118.854C61.5577 118.381 61.179 117.977 60.8703 117.81C60.5616 117.643 60.0144 117.546 59.5372 117.685C59.0601 117.823 58.4144 118.268 58.3159 118.81C53.1052 130.085 49.1425 143.822 52.6461 155.643C56.1496 167.464 61.2132 173.181 68.1571 179.121C68.9146 179.928 69.602 180.498 70.528 180.999C71.1453 181.333 72.3799 182.001 72.8571 181.862C74.3587 181.682 74.7241 180.292 74.4438 179.346Z" fill="#FF8E2E"/>
<path d="M79.9288 136.533C79.6821 136.563 79.1885 136.624 78.9726 136.899C78.5098 137.205 78.2631 137.235 77.8003 137.541L77.3376 137.846L76.6281 138.182C68.8852 142.367 59.292 145.787 51.8893 146.702C44.4867 147.616 29.4671 143.761 18.6424 139.387C18.3649 139.173 17.8714 139.234 17.6246 139.265C17.1311 139.326 16.6684 139.631 16.4524 139.906C16.2364 140.181 16.0512 140.701 16.1127 141.19C16.1743 141.679 16.5134 142.382 17.0376 142.565C27.4298 149.476 40.4748 155.561 52.8125 154.037C65.1503 152.513 71.6594 148.48 78.6933 142.645C79.6188 142.034 80.2975 141.453 80.9455 140.628C81.3774 140.078 82.2413 138.978 82.1798 138.489C82.2419 136.992 80.9158 136.411 79.9288 136.533Z" fill="#FF8E2E"/>
<path d="M39.0903 177.613C39.1613 177.377 39.3033 176.905 39.136 176.598C39.0397 176.056 39.1107 175.819 39.0145 175.277L38.9182 174.734L38.8929 173.955C38.1382 165.248 38.8338 155.169 40.9641 148.085C43.0945 141.001 52.6944 128.923 61.0871 120.86C61.3964 120.694 61.5385 120.222 61.6095 119.986C61.7515 119.514 61.6552 118.971 61.4879 118.664C61.3206 118.358 60.915 117.981 60.4383 117.84C59.9617 117.7 59.1758 117.725 58.7954 118.126C48.2326 124.778 37.3653 134.167 33.8147 145.974C30.2641 157.781 31.3739 165.308 33.9388 174.035C34.1314 175.12 34.395 175.97 34.8969 176.889C35.2315 177.502 35.9007 178.728 36.3774 178.869C37.7362 179.527 38.8062 178.558 39.0903 177.613Z" fill="#FF8E2E"/>
<path d="M10.8401 131.71C10.0943 131.727 9.35455 131.991 8.86336 132.25C8.62077 132.502 8.38418 133.001 8.14159 133.253C7.6684 134.25 7.70441 135.728 7.74641 137.452C7.77641 138.684 7.81241 140.162 8.3456 141.628L8.87879 143.094L9.14539 143.827C9.66657 144.801 10.1818 145.528 10.7029 146.501C11.2121 146.982 11.7213 147.463 12.4671 147.445C12.9643 147.433 13.4555 147.175 13.6981 146.923C13.9406 146.67 14.1772 146.172 14.1712 145.925L14.1652 145.679C13.8986 144.946 13.8746 143.961 13.596 142.735C13.572 141.75 13.2935 140.524 13.2755 139.785C13.2575 139.046 13.2454 138.553 13.482 138.055C13.476 137.808 13.476 137.808 13.7186 137.556C13.7186 137.556 13.9672 137.55 14.2158 137.544C14.9616 137.526 16.4591 137.737 17.9627 138.194C19.4663 138.651 20.9698 139.108 21.7216 139.337C21.9702 139.331 22.2248 139.571 22.4734 139.565C22.9705 139.553 23.2131 139.301 23.7043 139.043C24.1955 138.784 24.1835 138.292 24.1775 138.045C24.1655 137.553 23.9049 137.066 23.6503 136.826C20.3286 133.208 15.0782 132.101 12.0951 132.172L10.8401 131.71Z" fill="#FF8E2E"/>
<path d="M81.5164 188.551C82.2496 188.415 82.937 188.037 83.38 187.704C83.5786 187.416 83.7314 186.886 83.93 186.599C84.2355 185.539 83.9606 184.086 83.64 182.391C83.4109 181.18 83.136 179.727 82.3723 178.364L81.6086 177.002L81.2267 176.321C80.5547 175.443 79.9284 174.807 79.2563 173.929C78.6759 173.536 78.0954 173.142 77.3622 173.278C76.8734 173.369 76.4304 173.702 76.2318 173.99C76.0332 174.277 75.8804 174.807 75.9262 175.049L75.9721 175.291C76.3539 175.973 76.5372 176.941 77.0106 178.107C77.1939 179.076 77.6674 180.241 77.8048 180.968C77.9423 181.694 78.0339 182.179 77.8811 182.708C77.9269 182.95 77.9269 182.95 77.7283 183.238C77.7283 183.238 77.4839 183.283 77.2395 183.329C76.5063 183.465 74.994 183.495 73.4359 183.283C71.8779 183.071 70.3198 182.859 69.5408 182.753C69.2963 182.799 69.0061 182.602 68.7617 182.647C68.2729 182.738 68.0743 183.026 67.6313 183.358C67.1883 183.691 67.2799 184.176 67.3257 184.418C67.4174 184.902 67.7534 185.341 68.0436 185.538C71.9082 188.581 77.2698 188.838 80.2027 188.294L81.5164 188.551Z" fill="#FF8E2E"/>
<path d="M41.0338 189.087C41.7528 189.284 42.5381 189.243 43.0837 189.137C43.3896 188.965 43.7618 188.556 44.0677 188.384C44.8121 187.565 45.2095 186.14 45.6732 184.478C46.0045 183.29 46.4019 181.865 46.32 180.309L46.2381 178.753L46.1972 177.975C45.9828 176.893 45.7022 176.05 45.4878 174.968C45.1409 174.362 44.794 173.756 44.075 173.559C43.5956 173.428 43.05 173.534 42.7441 173.706C42.4382 173.877 42.066 174.287 41.9998 174.524L41.9335 174.762C41.9745 175.54 41.7095 176.49 41.6179 177.743C41.353 178.693 41.2614 179.946 41.0627 180.659C40.864 181.371 40.7315 181.846 40.3593 182.255C40.2931 182.493 40.2931 182.493 39.9871 182.665C39.9871 182.665 39.7475 182.599 39.5078 182.533C38.7887 182.336 37.4169 181.705 36.1113 180.836C34.8057 179.967 33.5001 179.099 32.8473 178.664C32.6076 178.598 32.4342 178.295 32.1945 178.23C31.7151 178.098 31.4092 178.27 30.8636 178.376C30.318 178.483 30.1855 178.958 30.1192 179.195C29.9867 179.67 30.0939 180.211 30.2674 180.514C32.3896 184.93 37.0917 187.496 39.9678 188.283L41.0338 189.087Z" fill="#FF8E2E"/>
<path d="M129.628 134.586C133.668 134.586 136.868 135.786 139.228 138.186C141.628 140.546 142.828 144.106 142.828 148.866V167.346H133.468V150.306C133.468 147.746 132.928 145.846 131.848 144.606C130.808 143.326 129.308 142.686 127.348 142.686C125.148 142.686 123.408 143.406 122.128 144.846C120.848 146.246 120.208 148.346 120.208 151.146V167.346H110.848V150.306C110.848 145.226 108.808 142.686 104.728 142.686C102.568 142.686 100.848 143.406 99.5682 144.846C98.2882 146.246 97.6482 148.346 97.6482 151.146V167.346H88.2882V135.066H97.2282V138.786C98.4282 137.426 99.8882 136.386 101.608 135.666C103.368 134.946 105.288 134.586 107.368 134.586C109.648 134.586 111.708 135.046 113.548 135.966C115.388 136.846 116.868 138.146 117.988 139.866C119.308 138.186 120.968 136.886 122.968 135.966C125.008 135.046 127.228 134.586 129.628 134.586ZM164.238 134.586C169.238 134.586 173.078 135.786 175.758 138.186C178.438 140.546 179.778 144.126 179.778 148.926V167.346H171.018V163.326C169.258 166.326 165.978 167.826 161.178 167.826C158.698 167.826 156.538 167.406 154.698 166.566C152.898 165.726 151.518 164.566 150.558 163.086C149.598 161.606 149.118 159.926 149.118 158.046C149.118 155.046 150.238 152.686 152.478 150.966C154.758 149.246 158.258 148.386 162.978 148.386H170.418C170.418 146.346 169.798 144.786 168.558 143.706C167.318 142.586 165.458 142.026 162.978 142.026C161.258 142.026 159.558 142.306 157.878 142.866C156.238 143.386 154.838 144.106 153.678 145.026L150.318 138.486C152.078 137.246 154.178 136.286 156.618 135.606C159.098 134.926 161.638 134.586 164.238 134.586ZM163.518 161.526C165.118 161.526 166.538 161.166 167.778 160.446C169.018 159.686 169.898 158.586 170.418 157.146V153.846H163.998C160.158 153.846 158.238 155.106 158.238 157.626C158.238 158.826 158.698 159.786 159.618 160.506C160.578 161.186 161.878 161.526 163.518 161.526ZM188.249 122.826H197.609V167.346H188.249V122.826ZM206.296 135.066H215.656V167.346H206.296V135.066ZM210.976 130.566C209.256 130.566 207.856 130.066 206.776 129.066C205.696 128.066 205.156 126.826 205.156 125.346C205.156 123.866 205.696 122.626 206.776 121.626C207.856 120.626 209.256 120.126 210.976 120.126C212.696 120.126 214.096 120.606 215.176 121.566C216.256 122.526 216.796 123.726 216.796 125.166C216.796 126.726 216.256 128.026 215.176 129.066C214.096 130.066 212.696 130.566 210.976 130.566ZM250.923 160.146V167.346H222.123V161.706L238.563 142.266H222.543V135.066H250.383V140.706L233.943 160.146H250.923ZM271.871 167.826C268.471 167.826 265.411 167.126 262.691 165.726C260.011 164.286 257.911 162.306 256.391 159.786C254.871 157.266 254.111 154.406 254.111 151.206C254.111 148.006 254.871 145.146 256.391 142.626C257.911 140.106 260.011 138.146 262.691 136.746C265.411 135.306 268.471 134.586 271.871 134.586C275.271 134.586 278.311 135.306 280.991 136.746C283.671 138.146 285.771 140.106 287.291 142.626C288.811 145.146 289.571 148.006 289.571 151.206C289.571 154.406 288.811 157.266 287.291 159.786C285.771 162.306 283.671 164.286 280.991 165.726C278.311 167.126 275.271 167.826 271.871 167.826ZM271.871 160.146C274.271 160.146 276.231 159.346 277.751 157.746C279.311 156.106 280.091 153.926 280.091 151.206C280.091 148.486 279.311 146.326 277.751 144.726C276.231 143.086 274.271 142.266 271.871 142.266C269.471 142.266 267.491 143.086 265.931 144.726C264.371 146.326 263.591 148.486 263.591 151.206C263.591 153.926 264.371 156.106 265.931 157.746C267.491 159.346 269.471 160.146 271.871 160.146ZM315.447 134.586C319.447 134.586 322.667 135.786 325.107 138.186C327.587 140.586 328.827 144.146 328.827 148.866V167.346H319.467V150.306C319.467 147.746 318.907 145.846 317.787 144.606C316.667 143.326 315.047 142.686 312.927 142.686C310.567 142.686 308.687 143.426 307.287 144.906C305.887 146.346 305.187 148.506 305.187 151.386V167.346H295.827V135.066H304.767V138.846C306.007 137.486 307.547 136.446 309.387 135.726C311.227 134.966 313.247 134.586 315.447 134.586Z" fill="#607D8B"/>
</g>
<path d="M179.513 336.47H112.737C97.7867 336.47 85.8267 348.43 85.8267 363.38V382.317C85.8267 397.267 97.7867 409.227 112.737 409.227H179.513C194.463 409.227 206.423 397.267 206.423 382.317V363.38C206.423 348.43 194.463 336.47 179.513 336.47ZM191.473 382.317C191.473 389.293 186.49 394.277 179.513 394.277H112.737C105.76 394.277 100.777 389.293 100.777 382.317V363.38C100.777 356.403 105.76 351.42 112.737 351.42H179.513C186.49 351.42 191.473 356.403 191.473 363.38V382.317ZM329.013 286.637L315.06 212.883C314.063 208.897 311.073 206.903 308.083 206.903H58.9167C54.93 206.903 51.94 209.893 51.94 212.883L39.98 273.68C37.9867 278.663 36.99 283.647 36.99 288.63C36.99 303.58 44.9634 317.533 57.92 324.51V427.167C57.92 439.127 67.8867 449.093 79.8467 449.093H219.38C223.367 449.093 227.353 446.103 227.353 441.12C227.353 441.12 227.353 441.12 227.353 440.123C227.353 440.123 227.353 440.123 227.353 439.127V349.427H267.22V439.127C267.22 439.127 267.22 439.127 267.22 440.123C267.22 440.123 267.22 440.123 267.22 441.12C267.22 445.107 270.21 449.093 275.193 449.093H289.147C301.107 449.093 311.073 439.127 311.073 427.167V322.517C322.037 315.54 329.013 303.58 330.01 290.623C330.01 289.627 330.01 287.633 329.013 286.637ZM295.127 426.17C295.127 430.157 292.137 433.147 288.15 433.147H281.173V342.45C281.173 338.463 278.183 334.477 273.2 334.477H218.383C214.397 334.477 210.41 337.467 210.41 342.45V433.147H79.8467C75.86 433.147 72.87 430.157 72.87 426.17V329.493C74.8634 329.493 76.8567 330.49 78.85 330.49C92.8034 330.49 105.76 323.513 113.733 312.55C121.707 323.513 133.667 330.49 148.617 330.49C163.567 330.49 175.527 323.513 183.5 312.55C191.473 323.513 203.433 330.49 218.383 330.49C233.333 330.49 245.293 323.513 253.267 312.55C261.24 323.513 273.2 330.49 288.15 330.49C291.14 330.49 294.13 330.49 296.123 329.493V426.17H295.127ZM314.063 287.633C314.063 302.583 302.103 314.543 287.153 314.543C272.203 314.543 260.243 302.583 260.243 287.633C260.243 283.647 257.253 279.66 252.27 279.66C247.287 279.66 244.297 282.65 244.297 287.633C244.297 302.583 232.337 314.543 217.387 314.543C202.437 314.543 190.477 302.583 190.477 287.633C190.477 283.647 187.487 279.66 182.503 279.66C177.52 279.66 174.53 282.65 174.53 287.633C174.53 302.583 162.57 314.543 147.62 314.543C132.67 314.543 120.71 302.583 120.71 287.633C120.71 283.647 117.72 279.66 112.737 279.66C107.753 279.66 106.757 283.647 106.757 287.633C106.757 302.583 94.7967 314.543 79.8467 314.543C64.8967 314.543 52.9367 302.583 52.9367 287.633C52.9367 284.643 53.9334 280.657 54.93 277.667V276.67L65.8934 221.853H303.1L315.06 286.637C314.063 287.633 314.063 287.633 314.063 287.633Z" fill="#FF8E2E"/>
<path d="M552.452 97.5162C552.35 99.0847 552.147 102.222 553.626 103.885C555.003 107.117 554.901 108.685 556.279 111.917L557.656 115.149L558.931 119.95C576.124 172.943 586.286 236.537 583.242 283.592C580.198 330.646 537.972 419.435 497.47 481.561C495.788 483.034 495.586 486.171 495.484 487.74C495.281 490.877 496.658 494.108 498.137 495.772C499.615 497.435 502.674 499.194 505.834 499.383C508.994 499.573 513.836 498.289 515.619 495.247C571.617 438.777 625.571 364.863 630.644 286.439C635.717 208.015 618.017 162.863 589.561 112.342C586.807 105.878 583.951 100.983 579.516 95.9926C576.558 92.6659 570.644 86.0123 567.484 85.8225C558.105 83.6846 552.857 91.2422 552.452 97.5162Z" fill="#FF8E2E"/>
<path d="M523.908 29.0494C519.163 28.8586 514.348 30.2379 511.114 31.6807C509.462 33.1871 507.741 36.2636 506.089 37.7701C502.646 43.9231 502.226 53.3434 501.737 64.3338C501.387 72.1841 500.967 81.6045 503.711 91.1521L506.455 100.7L507.827 105.473C510.711 111.881 513.665 116.718 516.549 123.126C519.572 126.393 522.596 129.66 527.341 129.851C530.505 129.979 533.738 128.536 535.39 127.029C537.042 125.523 538.763 122.446 538.833 120.876L538.903 119.306C537.531 114.532 537.811 108.252 536.579 100.338C536.858 94.058 535.626 86.1441 535.836 81.4339C536.046 76.7237 536.186 73.5836 537.907 70.5071C537.977 68.937 537.977 68.9371 539.629 67.4306C539.629 67.4306 541.211 67.4942 542.793 67.5578C547.538 67.7487 556.958 69.7004 566.309 73.2222C575.66 76.744 585.011 80.2657 589.686 82.0266C591.268 82.0903 592.78 83.7239 594.361 83.7875C597.525 83.9147 599.177 82.4083 602.41 80.9654C605.643 79.5226 605.783 76.3825 605.853 74.8125C605.993 71.6723 604.551 68.4686 603.039 66.8349C583.525 42.4571 550.658 33.271 531.677 32.5076L523.908 29.0494Z" fill="#FF8E2E"/>
<g clip-path="url(#clip1)">
<path d="M629.25 863.719H691.594C695.075 863.719 698.413 862.336 700.875 859.875C703.336 857.413 704.719 854.075 704.719 850.594V699.656H553.781V739.031" stroke="#FF8E2E" stroke-width="8" stroke-linejoin="round"/>
<path d="M668.625 732.469V673.406C668.625 669.925 667.242 666.587 664.781 664.126C662.319 661.664 658.981 660.281 655.5 660.281H603C599.519 660.281 596.181 661.664 593.719 664.126C591.258 666.587 589.875 669.925 589.875 673.406V732.469" stroke="#FF8E2E" stroke-width="8" stroke-linejoin="round"/>
<path d="M553.781 719.344H704.719" stroke="#FF8E2E" stroke-width="8" stroke-linejoin="round"/>
<path d="M583.312 739.031C583.312 737.291 584.004 735.622 585.235 734.391C586.465 733.16 588.135 732.469 589.875 732.469C591.615 732.469 593.285 733.16 594.515 734.391C595.746 735.622 596.438 737.291 596.438 739.031" stroke="#FF8E2E" stroke-width="8" stroke-linejoin="round"/>
<path d="M668.625 745.594C672.249 745.594 675.188 742.656 675.188 739.031C675.188 735.407 672.249 732.469 668.625 732.469C665.001 732.469 662.062 735.407 662.062 739.031C662.062 742.656 665.001 745.594 668.625 745.594Z" stroke="#FF8E2E" stroke-width="8" stroke-linejoin="round"/>
<path d="M632.531 771.844H501.281V791.531H632.531V771.844Z" stroke="#FF8E2E" stroke-width="8" stroke-linejoin="round"/>
<path d="M511.125 791.531V857.156C511.125 858.897 511.816 860.566 513.047 861.797C514.278 863.027 515.947 863.719 517.688 863.719H616.125C617.865 863.719 619.535 863.027 620.765 861.797C621.996 860.566 622.688 858.897 622.688 857.156V791.531" stroke="#FF8E2E" stroke-width="8" stroke-linejoin="round"/>
<path d="M547.219 771.844V791.531" stroke="#FF8E2E" stroke-width="8" stroke-linejoin="round"/>
<path d="M586.594 771.844V791.531" stroke="#FF8E2E" stroke-width="8" stroke-linejoin="round"/>
<path d="M580.031 791.531V863.719" stroke="#FF8E2E" stroke-width="8" stroke-linejoin="round"/>
<path d="M553.781 791.531V863.719" stroke="#FF8E2E" stroke-width="8" stroke-linejoin="round"/>
<path d="M511.125 804.656H543.938" stroke="#FF8E2E" stroke-width="8" stroke-linejoin="round"/>
<path d="M589.875 804.656H622.688" stroke="#FF8E2E" stroke-width="8" stroke-linejoin="round"/>
<path d="M566.906 771.844V758.719C566.934 757.419 566.698 756.126 566.213 754.919C565.729 753.712 565.005 752.616 564.085 751.696C563.165 750.777 562.069 750.053 560.862 749.568C559.655 749.083 558.363 748.847 557.062 748.875H534.094C534.094 748.875 537.375 771.844 566.906 771.844Z" stroke="#FF8E2E" stroke-width="8" stroke-linejoin="round"/>
<path d="M566.906 771.844V758.719C566.879 757.419 567.114 756.126 567.599 754.919C568.084 753.712 568.808 752.616 569.728 751.696C570.647 750.777 571.744 750.053 572.95 749.568C574.157 749.083 575.45 748.847 576.75 748.875H599.719C599.719 748.875 596.437 771.844 566.906 771.844Z" stroke="#FF8E2E" stroke-width="8" stroke-linejoin="round"/>
<path d="M691.594 834.188V844.031C691.612 844.898 691.455 845.76 691.132 846.564C690.808 847.369 690.326 848.099 689.712 848.713C689.099 849.326 688.369 849.808 687.564 850.132C686.76 850.455 685.898 850.612 685.031 850.594H675.188" stroke="#FF8E2E" stroke-width="8" stroke-linejoin="round"/>
<path d="M609.562 837.469V850.594H596.438" stroke="#FF8E2E" stroke-width="8" stroke-linejoin="round"/>
</g>
<path d="M234.78 565.72C231.46 565.72 228.24 565.28 225.12 564.4C222.04 563.48 219.56 562.3 217.68 560.86L220.98 553.54C222.78 554.86 224.92 555.92 227.4 556.72C229.88 557.52 232.36 557.92 234.84 557.92C237.6 557.92 239.64 557.52 240.96 556.72C242.28 555.88 242.94 554.78 242.94 553.42C242.94 552.42 242.54 551.6 241.74 550.96C240.98 550.28 239.98 549.74 238.74 549.34C237.54 548.94 235.9 548.5 233.82 548.02C230.62 547.26 228 546.5 225.96 545.74C223.92 544.98 222.16 543.76 220.68 542.08C219.24 540.4 218.52 538.16 218.52 535.36C218.52 532.92 219.18 530.72 220.5 528.76C221.82 526.76 223.8 525.18 226.44 524.02C229.12 522.86 232.38 522.28 236.22 522.28C238.9 522.28 241.52 522.6 244.08 523.24C246.64 523.88 248.88 524.8 250.8 526L247.8 533.38C243.92 531.18 240.04 530.08 236.16 530.08C233.44 530.08 231.42 530.52 230.1 531.4C228.82 532.28 228.18 533.44 228.18 534.88C228.18 536.32 228.92 537.4 230.4 538.12C231.92 538.8 234.22 539.48 237.3 540.16C240.5 540.92 243.12 541.68 245.16 542.44C247.2 543.2 248.94 544.4 250.38 546.04C251.86 547.68 252.6 549.9 252.6 552.7C252.6 555.1 251.92 557.3 250.56 559.3C249.24 561.26 247.24 562.82 244.56 563.98C241.88 565.14 238.62 565.72 234.78 565.72ZM279.402 563.44C278.482 564.12 277.342 564.64 275.982 565C274.662 565.32 273.262 565.48 271.782 565.48C267.942 565.48 264.962 564.5 262.842 562.54C260.762 560.58 259.722 557.7 259.722 553.9V540.64H254.742V533.44H259.722V525.58H269.082V533.44H277.122V540.64H269.082V553.78C269.082 555.14 269.422 556.2 270.102 556.96C270.822 557.68 271.822 558.04 273.102 558.04C274.582 558.04 275.842 557.64 276.882 556.84L279.402 563.44ZM297.676 532.24C302.676 532.24 306.516 533.44 309.196 535.84C311.876 538.2 313.216 541.78 313.216 546.58V565H304.456V560.98C302.696 563.98 299.416 565.48 294.616 565.48C292.136 565.48 289.976 565.06 288.136 564.22C286.336 563.38 284.956 562.22 283.996 560.74C283.036 559.26 282.556 557.58 282.556 555.7C282.556 552.7 283.676 550.34 285.916 548.62C288.196 546.9 291.696 546.04 296.416 546.04H303.856C303.856 544 303.236 542.44 301.996 541.36C300.756 540.24 298.896 539.68 296.416 539.68C294.696 539.68 292.996 539.96 291.316 540.52C289.676 541.04 288.276 541.76 287.116 542.68L283.756 536.14C285.516 534.9 287.616 533.94 290.056 533.26C292.536 532.58 295.076 532.24 297.676 532.24ZM296.956 559.18C298.556 559.18 299.976 558.82 301.216 558.1C302.456 557.34 303.336 556.24 303.856 554.8V551.5H297.436C293.596 551.5 291.676 552.76 291.676 555.28C291.676 556.48 292.136 557.44 293.056 558.16C294.016 558.84 295.316 559.18 296.956 559.18ZM330.627 536.98C331.747 535.42 333.247 534.24 335.127 533.44C337.047 532.64 339.247 532.24 341.727 532.24V540.88C340.687 540.8 339.987 540.76 339.627 540.76C336.947 540.76 334.847 541.52 333.327 543.04C331.807 544.52 331.047 546.76 331.047 549.76V565H321.687V532.72H330.627V536.98ZM369.226 563.44C368.306 564.12 367.166 564.64 365.806 565C364.486 565.32 363.086 565.48 361.606 565.48C357.766 565.48 354.786 564.5 352.666 562.54C350.586 560.58 349.546 557.7 349.546 553.9V540.64H344.566V533.44H349.546V525.58H358.906V533.44H366.946V540.64H358.906V553.78C358.906 555.14 359.246 556.2 359.926 556.96C360.646 557.68 361.646 558.04 362.926 558.04C364.406 558.04 365.666 557.64 366.706 556.84L369.226 563.44ZM402.332 565.48C399.652 565.48 397.032 565.16 394.472 564.52C391.912 563.84 389.872 563 388.352 562L391.472 555.28C392.912 556.2 394.652 556.96 396.692 557.56C398.732 558.12 400.732 558.4 402.692 558.4C406.652 558.4 408.632 557.42 408.632 555.46C408.632 554.54 408.092 553.88 407.012 553.48C405.932 553.08 404.272 552.74 402.032 552.46C399.392 552.06 397.212 551.6 395.492 551.08C393.772 550.56 392.272 549.64 390.992 548.32C389.752 547 389.132 545.12 389.132 542.68C389.132 540.64 389.712 538.84 390.872 537.28C392.072 535.68 393.792 534.44 396.032 533.56C398.312 532.68 400.992 532.24 404.072 532.24C406.352 532.24 408.612 532.5 410.852 533.02C413.132 533.5 415.012 534.18 416.492 535.06L413.372 541.72C410.532 540.12 407.432 539.32 404.072 539.32C402.072 539.32 400.572 539.6 399.572 540.16C398.572 540.72 398.072 541.44 398.072 542.32C398.072 543.32 398.612 544.02 399.692 544.42C400.772 544.82 402.492 545.2 404.852 545.56C407.492 546 409.652 546.48 411.332 547C413.012 547.48 414.472 548.38 415.712 549.7C416.952 551.02 417.572 552.86 417.572 555.22C417.572 557.22 416.972 559 415.772 560.56C414.572 562.12 412.812 563.34 410.492 564.22C408.212 565.06 405.492 565.48 402.332 565.48ZM454.967 548.98C454.967 549.1 454.907 549.94 454.787 551.5H430.367C430.807 553.5 431.847 555.08 433.487 556.24C435.127 557.4 437.167 557.98 439.607 557.98C441.287 557.98 442.767 557.74 444.047 557.26C445.367 556.74 446.587 555.94 447.707 554.86L452.687 560.26C449.647 563.74 445.207 565.48 439.367 565.48C435.727 565.48 432.507 564.78 429.707 563.38C426.907 561.94 424.747 559.96 423.227 557.44C421.707 554.92 420.947 552.06 420.947 548.86C420.947 545.7 421.687 542.86 423.167 540.34C424.687 537.78 426.747 535.8 429.347 534.4C431.987 532.96 434.927 532.24 438.167 532.24C441.327 532.24 444.187 532.92 446.747 534.28C449.307 535.64 451.307 537.6 452.747 540.16C454.227 542.68 454.967 545.62 454.967 548.98ZM438.227 539.32C436.107 539.32 434.327 539.92 432.887 541.12C431.447 542.32 430.567 543.96 430.247 546.04H446.147C445.827 544 444.947 542.38 443.507 541.18C442.067 539.94 440.307 539.32 438.227 539.32ZM473.34 532.24C478.34 532.24 482.18 533.44 484.86 535.84C487.54 538.2 488.88 541.78 488.88 546.58V565H480.12V560.98C478.36 563.98 475.08 565.48 470.28 565.48C467.8 565.48 465.64 565.06 463.8 564.22C462 563.38 460.62 562.22 459.66 560.74C458.7 559.26 458.22 557.58 458.22 555.7C458.22 552.7 459.34 550.34 461.58 548.62C463.86 546.9 467.36 546.04 472.08 546.04H479.52C479.52 544 478.9 542.44 477.66 541.36C476.42 540.24 474.56 539.68 472.08 539.68C470.36 539.68 468.66 539.96 466.98 540.52C465.34 541.04 463.94 541.76 462.78 542.68L459.42 536.14C461.18 534.9 463.28 533.94 465.72 533.26C468.2 532.58 470.74 532.24 473.34 532.24ZM472.62 559.18C474.22 559.18 475.64 558.82 476.88 558.1C478.12 557.34 479 556.24 479.52 554.8V551.5H473.1C469.26 551.5 467.34 552.76 467.34 555.28C467.34 556.48 467.8 557.44 468.72 558.16C469.68 558.84 470.98 559.18 472.62 559.18ZM506.291 536.98C507.411 535.42 508.911 534.24 510.791 533.44C512.711 532.64 514.911 532.24 517.391 532.24V540.88C516.351 540.8 515.651 540.76 515.291 540.76C512.611 540.76 510.511 541.52 508.991 543.04C507.471 544.52 506.711 546.76 506.711 549.76V565H497.351V532.72H506.291V536.98ZM538.264 565.48C534.824 565.48 531.724 564.78 528.964 563.38C526.244 561.94 524.104 559.96 522.544 557.44C521.024 554.92 520.264 552.06 520.264 548.86C520.264 545.66 521.024 542.8 522.544 540.28C524.104 537.76 526.244 535.8 528.964 534.4C531.724 532.96 534.824 532.24 538.264 532.24C541.664 532.24 544.624 532.96 547.144 534.4C549.704 535.8 551.564 537.82 552.724 540.46L545.464 544.36C543.784 541.4 541.364 539.92 538.204 539.92C535.764 539.92 533.744 540.72 532.144 542.32C530.544 543.92 529.744 546.1 529.744 548.86C529.744 551.62 530.544 553.8 532.144 555.4C533.744 557 535.764 557.8 538.204 557.8C541.404 557.8 543.824 556.32 545.464 553.36L552.724 557.32C551.564 559.88 549.704 561.88 547.144 563.32C544.624 564.76 541.664 565.48 538.264 565.48ZM577.499 532.24C581.499 532.24 584.719 533.44 587.159 535.84C589.639 538.24 590.879 541.8 590.879 546.52V565H581.519V547.96C581.519 545.4 580.959 543.5 579.839 542.26C578.719 540.98 577.099 540.34 574.979 540.34C572.619 540.34 570.739 541.08 569.339 542.56C567.939 544 567.239 546.16 567.239 549.04V565H557.879V520.48H567.239V536.08C568.479 534.84 569.979 533.9 571.739 533.26C573.499 532.58 575.419 532.24 577.499 532.24ZM599.363 532.72H608.723V565H599.363V532.72ZM604.043 528.22C602.323 528.22 600.923 527.72 599.843 526.72C598.763 525.72 598.223 524.48 598.223 523C598.223 521.52 598.763 520.28 599.843 519.28C600.923 518.28 602.323 517.78 604.043 517.78C605.763 517.78 607.163 518.26 608.243 519.22C609.323 520.18 609.863 521.38 609.863 522.82C609.863 524.38 609.323 525.68 608.243 526.72C607.163 527.72 605.763 528.22 604.043 528.22ZM637.03 532.24C641.03 532.24 644.25 533.44 646.69 535.84C649.17 538.24 650.41 541.8 650.41 546.52V565H641.05V547.96C641.05 545.4 640.49 543.5 639.37 542.26C638.25 540.98 636.63 540.34 634.51 540.34C632.15 540.34 630.27 541.08 628.87 542.56C627.47 544 626.77 546.16 626.77 549.04V565H617.41V532.72H626.35V536.5C627.59 535.14 629.13 534.1 630.97 533.38C632.81 532.62 634.83 532.24 637.03 532.24ZM692.546 532.72V559.6C692.546 565.52 691.006 569.92 687.926 572.8C684.846 575.68 680.346 577.12 674.426 577.12C671.306 577.12 668.346 576.74 665.546 575.98C662.746 575.22 660.426 574.12 658.586 572.68L662.306 565.96C663.666 567.08 665.386 567.96 667.466 568.6C669.546 569.28 671.626 569.62 673.706 569.62C676.946 569.62 679.326 568.88 680.846 567.4C682.406 565.96 683.186 563.76 683.186 560.8V559.42C680.746 562.1 677.346 563.44 672.986 563.44C670.026 563.44 667.306 562.8 664.826 561.52C662.386 560.2 660.446 558.36 659.006 556C657.566 553.64 656.846 550.92 656.846 547.84C656.846 544.76 657.566 542.04 659.006 539.68C660.446 537.32 662.386 535.5 664.826 534.22C667.306 532.9 670.026 532.24 672.986 532.24C677.666 532.24 681.226 533.78 683.666 536.86V532.72H692.546ZM674.846 555.76C677.326 555.76 679.346 555.04 680.906 553.6C682.506 552.12 683.306 550.2 683.306 547.84C683.306 545.48 682.506 543.58 680.906 542.14C679.346 540.66 677.326 539.92 674.846 539.92C672.366 539.92 670.326 540.66 668.726 542.14C667.126 543.58 666.326 545.48 666.326 547.84C666.326 550.2 667.126 552.12 668.726 553.6C670.326 555.04 672.366 555.76 674.846 555.76ZM230.58 595.44H238.86V602.64H230.82V627H221.46V602.64H216.48V595.44H221.46V594C221.46 590.32 222.54 587.4 224.7 585.24C226.9 583.08 229.98 582 233.94 582C235.34 582 236.66 582.16 237.9 582.48C239.18 582.76 240.24 583.18 241.08 583.74L238.62 590.52C237.54 589.76 236.28 589.38 234.84 589.38C232 589.38 230.58 590.94 230.58 594.06V595.44ZM258.473 627.48C255.073 627.48 252.013 626.78 249.293 625.38C246.613 623.94 244.513 621.96 242.993 619.44C241.473 616.92 240.713 614.06 240.713 610.86C240.713 607.66 241.473 604.8 242.993 602.28C244.513 599.76 246.613 597.8 249.293 596.4C252.013 594.96 255.073 594.24 258.473 594.24C261.873 594.24 264.913 594.96 267.593 596.4C270.273 597.8 272.373 599.76 273.893 602.28C275.413 604.8 276.173 607.66 276.173 610.86C276.173 614.06 275.413 616.92 273.893 619.44C272.373 621.96 270.273 623.94 267.593 625.38C264.913 626.78 261.873 627.48 258.473 627.48ZM258.473 619.8C260.873 619.8 262.833 619 264.353 617.4C265.913 615.76 266.693 613.58 266.693 610.86C266.693 608.14 265.913 605.98 264.353 604.38C262.833 602.74 260.873 601.92 258.473 601.92C256.073 601.92 254.093 602.74 252.533 604.38C250.973 605.98 250.193 608.14 250.193 610.86C250.193 613.58 250.973 615.76 252.533 617.4C254.093 619 256.073 619.8 258.473 619.8ZM291.369 598.98C292.489 597.42 293.989 596.24 295.869 595.44C297.789 594.64 299.989 594.24 302.469 594.24V602.88C301.429 602.8 300.729 602.76 300.369 602.76C297.689 602.76 295.589 603.52 294.069 605.04C292.549 606.52 291.789 608.76 291.789 611.76V627H282.429V594.72H291.369V598.98ZM346.081 625.44C345.161 626.12 344.021 626.64 342.661 627C341.341 627.32 339.941 627.48 338.461 627.48C334.621 627.48 331.641 626.5 329.521 624.54C327.441 622.58 326.401 619.7 326.401 615.9V602.64H321.421V595.44H326.401V587.58H335.761V595.44H343.801V602.64H335.761V615.78C335.761 617.14 336.101 618.2 336.781 618.96C337.501 619.68 338.501 620.04 339.781 620.04C341.261 620.04 342.521 619.64 343.561 618.84L346.081 625.44ZM370.956 594.24C374.956 594.24 378.176 595.44 380.616 597.84C383.096 600.24 384.336 603.8 384.336 608.52V627H374.976V609.96C374.976 607.4 374.416 605.5 373.296 604.26C372.176 602.98 370.556 602.34 368.436 602.34C366.076 602.34 364.196 603.08 362.796 604.56C361.396 606 360.696 608.16 360.696 611.04V627H351.336V582.48H360.696V598.08C361.936 596.84 363.436 595.9 365.196 595.26C366.956 594.58 368.876 594.24 370.956 594.24ZM424.792 610.98C424.792 611.1 424.732 611.94 424.612 613.5H400.192C400.632 615.5 401.672 617.08 403.312 618.24C404.952 619.4 406.992 619.98 409.432 619.98C411.112 619.98 412.592 619.74 413.872 619.26C415.192 618.74 416.412 617.94 417.532 616.86L422.512 622.26C419.472 625.74 415.032 627.48 409.192 627.48C405.552 627.48 402.332 626.78 399.532 625.38C396.732 623.94 394.572 621.96 393.052 619.44C391.532 616.92 390.772 614.06 390.772 610.86C390.772 607.7 391.512 604.86 392.992 602.34C394.512 599.78 396.572 597.8 399.172 596.4C401.812 594.96 404.752 594.24 407.992 594.24C411.152 594.24 414.012 594.92 416.572 596.28C419.132 597.64 421.132 599.6 422.572 602.16C424.052 604.68 424.792 607.62 424.792 610.98ZM408.052 601.32C405.932 601.32 404.152 601.92 402.712 603.12C401.272 604.32 400.392 605.96 400.072 608.04H415.972C415.652 606 414.772 604.38 413.332 603.18C411.892 601.94 410.132 601.32 408.052 601.32ZM467.095 594.24C470.095 594.24 472.815 594.94 475.255 596.34C477.735 597.7 479.675 599.64 481.075 602.16C482.475 604.64 483.175 607.54 483.175 610.86C483.175 614.18 482.475 617.1 481.075 619.62C479.675 622.1 477.735 624.04 475.255 625.44C472.815 626.8 470.095 627.48 467.095 627.48C462.975 627.48 459.735 626.18 457.375 623.58V638.64H448.015V594.72H456.955V598.44C459.275 595.64 462.655 594.24 467.095 594.24ZM465.475 619.8C467.875 619.8 469.835 619 471.355 617.4C472.915 615.76 473.695 613.58 473.695 610.86C473.695 608.14 472.915 605.98 471.355 604.38C469.835 602.74 467.875 601.92 465.475 601.92C463.075 601.92 461.095 602.74 459.535 604.38C458.015 605.98 457.255 608.14 457.255 610.86C457.255 613.58 458.015 615.76 459.535 617.4C461.095 619 463.075 619.8 465.475 619.8ZM498.381 598.98C499.501 597.42 501.001 596.24 502.881 595.44C504.801 594.64 507.001 594.24 509.481 594.24V602.88C508.441 602.8 507.741 602.76 507.381 602.76C504.701 602.76 502.601 603.52 501.081 605.04C499.561 606.52 498.801 608.76 498.801 611.76V627H489.441V594.72H498.381V598.98ZM530.114 627.48C526.714 627.48 523.654 626.78 520.934 625.38C518.254 623.94 516.154 621.96 514.634 619.44C513.114 616.92 512.354 614.06 512.354 610.86C512.354 607.66 513.114 604.8 514.634 602.28C516.154 599.76 518.254 597.8 520.934 596.4C523.654 594.96 526.714 594.24 530.114 594.24C533.514 594.24 536.554 594.96 539.234 596.4C541.914 597.8 544.014 599.76 545.534 602.28C547.054 604.8 547.814 607.66 547.814 610.86C547.814 614.06 547.054 616.92 545.534 619.44C544.014 621.96 541.914 623.94 539.234 625.38C536.554 626.78 533.514 627.48 530.114 627.48ZM530.114 619.8C532.514 619.8 534.474 619 535.994 617.4C537.554 615.76 538.334 613.58 538.334 610.86C538.334 608.14 537.554 605.98 535.994 604.38C534.474 602.74 532.514 601.92 530.114 601.92C527.714 601.92 525.734 602.74 524.174 604.38C522.614 605.98 521.834 608.14 521.834 610.86C521.834 613.58 522.614 615.76 524.174 617.4C525.734 619 527.714 619.8 530.114 619.8ZM586.95 582.48V627H578.01V623.28C575.69 626.08 572.33 627.48 567.93 627.48C564.89 627.48 562.13 626.8 559.65 625.44C557.21 624.08 555.29 622.14 553.89 619.62C552.49 617.1 551.79 614.18 551.79 610.86C551.79 607.54 552.49 604.62 553.89 602.1C555.29 599.58 557.21 597.64 559.65 596.28C562.13 594.92 564.89 594.24 567.93 594.24C572.05 594.24 575.27 595.54 577.59 598.14V582.48H586.95ZM569.55 619.8C571.91 619.8 573.87 619 575.43 617.4C576.99 615.76 577.77 613.58 577.77 610.86C577.77 608.14 576.99 605.98 575.43 604.38C573.87 602.74 571.91 601.92 569.55 601.92C567.15 601.92 565.17 602.74 563.61 604.38C562.05 605.98 561.27 608.14 561.27 610.86C561.27 613.58 562.05 615.76 563.61 617.4C565.17 619 567.15 619.8 569.55 619.8ZM628.133 594.72V627H619.253V623.16C618.013 624.56 616.533 625.64 614.813 626.4C613.093 627.12 611.233 627.48 609.233 627.48C604.993 627.48 601.633 626.26 599.153 623.82C596.673 621.38 595.433 617.76 595.433 612.96V594.72H604.793V611.58C604.793 616.78 606.973 619.38 611.333 619.38C613.573 619.38 615.373 618.66 616.733 617.22C618.093 615.74 618.773 613.56 618.773 610.68V594.72H628.133ZM652.404 627.48C648.964 627.48 645.864 626.78 643.104 625.38C640.384 623.94 638.244 621.96 636.684 619.44C635.164 616.92 634.404 614.06 634.404 610.86C634.404 607.66 635.164 604.8 636.684 602.28C638.244 599.76 640.384 597.8 643.104 596.4C645.864 594.96 648.964 594.24 652.404 594.24C655.804 594.24 658.764 594.96 661.284 596.4C663.844 597.8 665.704 599.82 666.864 602.46L659.604 606.36C657.924 603.4 655.504 601.92 652.344 601.92C649.904 601.92 647.884 602.72 646.284 604.32C644.684 605.92 643.884 608.1 643.884 610.86C643.884 613.62 644.684 615.8 646.284 617.4C647.884 619 649.904 619.8 652.344 619.8C655.544 619.8 657.964 618.32 659.604 615.36L666.864 619.32C665.704 621.88 663.844 623.88 661.284 625.32C658.764 626.76 655.804 627.48 652.404 627.48ZM693.542 625.44C692.622 626.12 691.482 626.64 690.122 627C688.802 627.32 687.402 627.48 685.922 627.48C682.082 627.48 679.102 626.5 676.982 624.54C674.902 622.58 673.862 619.7 673.862 615.9V602.64H668.882V595.44H673.862V587.58H683.222V595.44H691.262V602.64H683.222V615.78C683.222 617.14 683.562 618.2 684.242 618.96C684.962 619.68 685.962 620.04 687.242 620.04C688.722 620.04 689.982 619.64 691.022 618.84L693.542 625.44ZM252.36 656.72L237.78 690.98C236.3 694.7 234.46 697.32 232.26 698.84C230.1 700.36 227.48 701.12 224.4 701.12C222.72 701.12 221.06 700.86 219.42 700.34C217.78 699.82 216.44 699.1 215.4 698.18L218.82 691.52C219.54 692.16 220.36 692.66 221.28 693.02C222.24 693.38 223.18 693.56 224.1 693.56C225.38 693.56 226.42 693.24 227.22 692.6C228.02 692 228.74 690.98 229.38 689.54L229.5 689.24L215.52 656.72H225.18L234.24 678.62L243.36 656.72H252.36ZM270.66 689.48C267.26 689.48 264.2 688.78 261.48 687.38C258.8 685.94 256.7 683.96 255.18 681.44C253.66 678.92 252.9 676.06 252.9 672.86C252.9 669.66 253.66 666.8 255.18 664.28C256.7 661.76 258.8 659.8 261.48 658.4C264.2 656.96 267.26 656.24 270.66 656.24C274.06 656.24 277.1 656.96 279.78 658.4C282.46 659.8 284.56 661.76 286.08 664.28C287.6 666.8 288.36 669.66 288.36 672.86C288.36 676.06 287.6 678.92 286.08 681.44C284.56 683.96 282.46 685.94 279.78 687.38C277.1 688.78 274.06 689.48 270.66 689.48ZM270.66 681.8C273.06 681.8 275.02 681 276.54 679.4C278.1 677.76 278.88 675.58 278.88 672.86C278.88 670.14 278.1 667.98 276.54 666.38C275.02 664.74 273.06 663.92 270.66 663.92C268.26 663.92 266.28 664.74 264.72 666.38C263.16 667.98 262.38 670.14 262.38 672.86C262.38 675.58 263.16 677.76 264.72 679.4C266.28 681 268.26 681.8 270.66 681.8ZM327.137 656.72V689H318.257V685.16C317.017 686.56 315.537 687.64 313.817 688.4C312.097 689.12 310.237 689.48 308.237 689.48C303.997 689.48 300.637 688.26 298.157 685.82C295.677 683.38 294.437 679.76 294.437 674.96V656.72H303.797V673.58C303.797 678.78 305.977 681.38 310.337 681.38C312.577 681.38 314.377 680.66 315.737 679.22C317.097 677.74 317.777 675.56 317.777 672.68V656.72H327.137ZM404.64 656.72L392.94 689H383.94L376.68 668.96L369.18 689H360.18L348.54 656.72H357.36L364.98 678.56L372.9 656.72H380.82L388.5 678.56L396.36 656.72H404.64ZM420.957 656.24C425.957 656.24 429.797 657.44 432.477 659.84C435.157 662.2 436.497 665.78 436.497 670.58V689H427.737V684.98C425.977 687.98 422.697 689.48 417.897 689.48C415.417 689.48 413.257 689.06 411.417 688.22C409.617 687.38 408.237 686.22 407.277 684.74C406.317 683.26 405.837 681.58 405.837 679.7C405.837 676.7 406.957 674.34 409.197 672.62C411.477 670.9 414.977 670.04 419.697 670.04H427.137C427.137 668 426.517 666.44 425.277 665.36C424.037 664.24 422.177 663.68 419.697 663.68C417.977 663.68 416.277 663.96 414.597 664.52C412.957 665.04 411.557 665.76 410.397 666.68L407.037 660.14C408.797 658.9 410.897 657.94 413.337 657.26C415.817 656.58 418.357 656.24 420.957 656.24ZM420.237 683.18C421.837 683.18 423.257 682.82 424.497 682.1C425.737 681.34 426.617 680.24 427.137 678.8V675.5H420.717C416.877 675.5 414.957 676.76 414.957 679.28C414.957 680.48 415.417 681.44 416.337 682.16C417.297 682.84 418.597 683.18 420.237 683.18ZM464.588 656.24C468.588 656.24 471.808 657.44 474.248 659.84C476.728 662.24 477.968 665.8 477.968 670.52V689H468.608V671.96C468.608 669.4 468.048 667.5 466.928 666.26C465.808 664.98 464.188 664.34 462.068 664.34C459.708 664.34 457.828 665.08 456.428 666.56C455.028 668 454.328 670.16 454.328 673.04V689H444.968V656.72H453.908V660.5C455.148 659.14 456.688 658.1 458.528 657.38C460.368 656.62 462.388 656.24 464.588 656.24ZM507.273 687.44C506.353 688.12 505.213 688.64 503.853 689C502.533 689.32 501.133 689.48 499.653 689.48C495.813 689.48 492.833 688.5 490.713 686.54C488.633 684.58 487.593 681.7 487.593 677.9V664.64H482.613V657.44H487.593V649.58H496.953V657.44H504.993V664.64H496.953V677.78C496.953 679.14 497.293 680.2 497.973 680.96C498.693 681.68 499.693 682.04 500.973 682.04C502.453 682.04 503.713 681.64 504.753 680.84L507.273 687.44Z" fill="black"/>
<defs>
<clipPath id="clip0">
<rect width="373" height="88" fill="white" transform="translate(7 112)"/>
</clipPath>
<clipPath id="clip1">
<rect width="210" height="210" fill="white" transform="translate(498 657)"/>
</clipPath>
</defs>
</svg>
